{"glyphs":{"0":{"ha":557,"x_min":71,"x_max":486,"o":"m 278 -17 q 174 10 221 -17 q 99 91 126 36 q 71 232 71 146 l 71 593 q 132 774 71 715 q 281 832 193 832 q 426 773 367 832 q 486 593 486 714 l 486 232 q 459 89 486 144 q 384 8 432 33 q 278 -17 336 -17 m 279 26 q 380 74 340 26 q 419 210 419 122 l 419 604 q 378 740 419 692 q 279 788 338 788 q 178 740 219 788 q 138 604 138 692 l 138 210 q 178 74 138 122 q 279 26 219 26 z "},"1":{"ha":322,"x_min":31,"x_max":228,"o":"m 160 0 l 160 717 l 31 717 l 31 757 l 108 757 q 152 772 139 758 q 172 821 165 785 l 228 821 l 228 0 l 160 0 z "},"2":{"ha":518,"x_min":61,"x_max":474,"o":"m 64 0 q 64 77 64 39 q 64 154 64 115 q 85 262 64 222 q 144 328 106 301 q 238 382 183 354 q 321 435 286 404 q 375 510 356 465 q 394 617 394 554 q 365 733 396 693 q 263 774 333 774 q 165 736 200 774 q 129 621 129 699 l 129 551 l 61 551 l 61 632 q 115 778 61 731 q 264 826 168 826 q 382 802 338 826 q 447 731 426 778 q 467 613 467 683 q 427 456 467 521 q 311 350 388 390 q 229 308 267 331 q 167 253 192 286 q 140 169 142 221 q 135 115 136 143 q 133 58 133 88 l 474 58 l 474 0 l 64 0 z "},"3":{"ha":539,"x_min":57,"x_max":476,"o":"m 267 -11 q 144 16 190 -11 q 77 90 97 43 q 57 194 57 136 l 57 274 l 126 274 l 126 197 q 163 84 126 125 q 265 40 199 43 q 367 80 329 40 q 404 189 404 119 l 404 264 q 363 367 404 331 q 250 404 321 403 l 165 404 l 165 451 l 250 451 q 315 465 285 451 q 365 503 346 478 q 390 545 382 522 q 399 594 399 568 l 399 640 q 367 735 399 696 q 265 775 335 775 q 165 735 196 775 q 133 632 133 694 l 133 581 l 63 581 l 63 636 q 111 776 63 726 q 267 826 160 826 q 422 777 374 826 q 471 640 471 728 l 471 604 q 434 487 471 531 q 340 426 397 443 q 442 366 408 414 q 476 247 476 318 l 476 194 q 457 88 476 135 q 391 15 438 42 q 267 -11 344 -11 z "},"4":{"ha":492,"x_min":24,"x_max":465,"o":"m 317 0 l 317 167 l 24 167 l 24 219 l 328 821 l 385 821 l 385 215 l 465 215 l 465 167 l 385 167 l 385 0 l 317 0 m 85 215 l 317 215 l 317 676 l 85 215 z "},"5":{"ha":546,"x_min":64,"x_max":482,"o":"m 275 -11 q 158 7 206 -11 q 88 74 111 25 q 64 211 64 122 l 64 250 l 132 250 l 132 218 q 165 82 132 122 q 278 42 197 42 q 382 88 351 42 q 413 225 413 135 l 413 338 q 401 422 413 383 q 360 482 390 460 q 272 504 329 504 q 182 476 219 504 q 133 401 144 449 l 68 401 l 68 821 l 457 821 l 457 767 l 136 767 l 136 478 q 197 533 158 514 q 290 553 236 553 q 432 509 382 553 q 482 350 482 465 l 482 221 q 454 75 482 125 q 380 7 426 25 q 275 -11 333 -11 z "},"6":{"ha":554,"x_min":71,"x_max":488,"o":"m 278 -12 q 156 15 201 -12 q 91 90 111 42 q 71 199 71 139 l 71 624 q 128 772 71 719 q 281 825 186 825 q 427 778 375 825 q 479 631 479 731 l 479 578 l 411 578 l 411 640 q 377 744 411 711 q 281 776 343 776 q 177 736 215 776 q 139 635 139 696 l 139 425 q 206 485 164 464 q 300 507 249 507 q 433 458 379 507 q 488 324 488 408 l 488 193 q 466 89 488 136 q 399 15 444 42 q 278 -12 354 -12 m 278 33 q 380 71 340 33 q 419 186 419 108 l 419 317 q 379 422 419 388 q 278 458 339 457 q 179 424 219 458 q 139 328 139 389 l 139 186 q 176 74 139 113 q 278 33 213 35 z "},"7":{"ha":406,"x_min":18,"x_max":368,"o":"m 75 0 l 303 769 l 19 769 l 18 821 l 368 821 l 368 767 l 142 0 l 75 0 z "},"8":{"ha":544,"x_min":64,"x_max":481,"o":"m 272 -11 q 151 16 197 -11 q 84 90 104 43 q 64 194 64 136 l 64 244 q 74 322 64 286 q 110 385 85 358 q 149 413 125 400 q 204 431 172 425 q 153 450 175 438 q 114 481 132 463 q 82 538 93 504 q 71 614 71 572 l 71 640 q 91 742 71 700 q 156 805 111 783 q 272 826 201 826 q 390 805 346 826 q 455 742 435 783 q 475 640 475 700 l 475 614 q 459 528 475 565 q 415 467 443 490 q 346 431 386 443 q 410 406 385 424 q 452 364 436 389 q 474 309 468 339 q 481 244 481 279 l 481 194 q 461 92 481 139 q 397 17 442 46 q 272 -11 351 -11 m 272 33 q 374 71 336 33 q 411 175 411 108 l 411 263 q 374 361 411 325 q 272 400 336 397 q 172 362 210 400 q 133 261 133 324 l 133 175 q 169 73 133 111 q 272 33 206 35 m 272 457 q 366 497 328 457 q 404 601 404 538 l 404 650 q 373 744 404 706 q 272 783 342 783 q 172 744 203 783 q 140 650 140 704 l 140 601 q 158 526 140 558 q 206 475 176 493 q 272 457 236 457 z "},"9":{"ha":551,"x_min":64,"x_max":481,"o":"m 269 -12 q 124 35 175 -12 q 72 182 72 82 l 72 240 l 139 240 l 139 172 q 174 69 139 103 q 269 36 208 36 q 374 76 336 36 q 411 178 411 117 l 411 390 q 344 331 386 351 q 250 310 303 310 q 156 332 199 310 q 88 399 113 354 q 64 504 64 443 l 64 619 q 85 724 64 678 q 152 798 106 771 q 274 825 199 825 q 395 798 350 825 q 460 723 440 771 q 481 614 481 675 l 481 189 q 423 40 481 93 q 269 -12 365 -12 m 274 357 q 372 392 332 357 q 411 489 411 428 l 411 626 q 374 740 411 701 q 272 779 338 778 q 171 742 211 779 q 131 626 131 704 l 131 499 q 172 394 131 429 q 274 357 213 358 z "},"\r":{"ha":833,"x_min":0,"x_max":0,"o":""}," ":{"ha":264,"x_min":0,"x_max":0,"o":""}," ":{"ha":264,"x_min":0,"x_max":0,"o":""},"A":{"ha":508,"x_min":24,"x_max":485,"o":"m 24 0 l 214 821 l 296 821 l 485 0 l 413 0 l 364 201 l 139 201 l 92 0 l 24 0 m 143 240 l 361 240 l 253 725 l 143 240 z "},"А":{"ha":508,"x_min":24,"x_max":485,"o":"m 24 0 l 214 821 l 296 821 l 485 0 l 413 0 l 364 201 l 139 201 l 92 0 l 24 0 m 143 240 l 361 240 l 253 725 l 143 240 z "},"Æ":{"ha":726,"x_min":15,"x_max":692,"o":"m 15 0 l 306 821 l 676 821 l 676 771 l 392 771 l 396 457 l 644 457 l 644 404 l 396 404 l 400 49 l 692 49 l 692 0 l 329 0 l 326 201 l 156 201 l 85 0 l 15 0 m 164 240 l 331 240 l 333 707 l 333 725 l 331 710 l 164 240 z "},"Á":{"ha":508,"x_min":24,"x_max":485,"o":"m 24 0 l 214 821 l 296 821 l 485 0 l 413 0 l 364 201 l 139 201 l 92 0 l 24 0 m 143 240 l 361 240 l 253 725 l 143 240 m 192 879 l 303 990 l 376 990 l 238 879 l 192 879 z "},"Ă":{"ha":508,"x_min":24,"x_max":485,"o":"m 24 0 l 214 821 l 296 821 l 485 0 l 413 0 l 364 201 l 139 201 l 92 0 l 24 0 m 143 240 l 361 240 l 253 725 l 143 240 m 253 875 q 174 895 203 875 q 134 943 146 915 q 121 994 122 971 l 164 994 q 194 933 169 953 q 253 913 218 913 q 315 932 290 913 q 343 994 339 951 l 386 994 q 370 940 383 968 q 328 894 357 913 q 253 875 300 875 z "},"Ắ":{"ha":508,"x_min":24,"x_max":485,"o":"m 24 0 l 214 821 l 296 821 l 485 0 l 413 0 l 364 201 l 139 201 l 92 0 l 24 0 m 143 240 l 361 240 l 253 725 l 143 240 m 254 869 q 195 884 217 869 q 165 919 174 899 q 156 958 157 940 l 199 958 q 216 919 201 932 q 254 907 231 907 q 293 919 278 907 q 310 958 308 931 l 353 958 q 328 898 350 926 q 254 869 307 869 m 217 974 l 271 1065 l 340 1065 l 258 974 l 217 974 z "},"Ặ":{"ha":508,"x_min":24,"x_max":485,"o":"m 24 0 l 214 821 l 296 821 l 485 0 l 413 0 l 364 201 l 139 201 l 92 0 l 24 0 m 143 240 l 361 240 l 253 725 l 143 240 m 254 -142 q 224 -130 236 -142 q 213 -103 213 -118 q 224 -74 213 -86 q 254 -62 236 -62 q 282 -74 269 -62 q 294 -103 294 -86 q 282 -130 294 -118 q 254 -142 269 -142 m 253 875 q 174 895 203 875 q 134 943 146 915 q 121 994 122 971 l 164 994 q 194 933 169 953 q 253 913 218 913 q 315 932 290 913 q 343 994 339 951 l 386 994 q 370 940 383 968 q 328 894 357 913 q 253 875 300 875 z "},"Ằ":{"ha":508,"x_min":24,"x_max":485,"o":"m 24 0 l 214 821 l 296 821 l 485 0 l 413 0 l 364 201 l 139 201 l 92 0 l 24 0 m 143 240 l 361 240 l 253 725 l 143 240 m 254 869 q 195 884 217 869 q 165 919 174 899 q 157 958 157 940 l 199 958 q 217 919 201 932 q 254 907 232 907 q 293 919 278 907 q 311 958 308 931 l 353 958 q 328 898 350 926 q 254 869 307 869 m 253 974 l 171 1065 l 239 1065 l 294 974 l 253 974 z "},"Ẳ":{"ha":508,"x_min":24,"x_max":485,"o":"m 24 0 l 214 821 l 296 821 l 485 0 l 413 0 l 364 201 l 139 201 l 92 0 l 24 0 m 143 240 l 361 240 l 253 725 l 143 240 m 254 869 q 195 884 217 869 q 165 919 174 899 q 156 958 157 940 l 199 958 q 216 919 201 932 q 254 907 231 907 q 293 919 278 907 q 310 958 308 931 l 353 958 q 328 898 350 926 q 254 869 307 869 m 235 975 l 235 990 q 247 1012 235 1004 q 269 1026 258 1019 q 281 1044 281 1032 l 281 1049 q 274 1067 281 1060 q 251 1075 267 1075 q 234 1069 242 1075 q 224 1051 226 1063 l 192 1058 q 210 1091 196 1079 q 253 1103 225 1103 q 304 1090 289 1103 q 319 1049 319 1076 l 319 1046 q 308 1017 319 1025 q 284 1003 296 1008 q 272 986 272 997 l 272 975 l 235 975 z "},"Ẵ":{"ha":508,"x_min":24,"x_max":485,"o":"m 24 0 l 214 821 l 296 821 l 485 0 l 413 0 l 364 201 l 139 201 l 92 0 l 24 0 m 143 240 l 361 240 l 253 725 l 143 240 m 253 869 q 194 884 215 869 q 164 919 172 899 q 154 958 156 940 l 197 958 q 216 919 201 932 q 253 907 231 907 q 292 919 278 907 q 310 958 307 931 l 351 958 q 327 898 350 926 q 253 869 304 869 m 296 981 q 272 985 282 981 q 247 1000 263 990 q 231 1010 240 1004 q 208 1017 221 1017 q 190 1008 197 1017 q 179 982 182 999 l 153 982 q 169 1031 156 1011 q 208 1050 183 1050 q 235 1045 224 1050 q 256 1033 246 1040 q 277 1022 268 1026 q 296 1017 286 1017 q 315 1024 308 1017 q 325 1049 322 1031 l 353 1049 q 344 1013 351 1029 q 324 989 336 997 q 296 981 311 981 z "},"Ǎ":{"ha":508,"x_min":24,"x_max":485,"o":"m 24 0 l 214 821 l 296 821 l 485 0 l 413 0 l 364 201 l 139 201 l 92 0 l 24 0 m 143 240 l 361 240 l 253 725 l 143 240 m 229 874 l 113 982 l 163 982 l 254 910 l 346 983 l 394 983 l 278 874 l 229 874 z "},"Â":{"ha":508,"x_min":24,"x_max":485,"o":"m 24 0 l 214 821 l 296 821 l 485 0 l 413 0 l 364 201 l 139 201 l 92 0 l 24 0 m 143 240 l 361 240 l 253 725 l 143 240 m 107 874 l 229 994 l 278 994 l 400 874 l 353 874 l 253 958 l 156 874 l 107 874 z "},"Ấ":{"ha":508,"x_min":24,"x_max":485,"o":"m 24 0 l 214 821 l 296 821 l 485 0 l 413 0 l 364 201 l 139 201 l 92 0 l 24 0 m 143 240 l 361 240 l 253 725 l 143 240 m 144 871 l 232 961 l 275 961 l 363 871 l 318 871 l 253 928 l 190 871 l 144 871 m 361 926 l 415 1018 l 485 1018 l 403 926 l 361 926 z "},"Ậ":{"ha":508,"x_min":24,"x_max":485,"o":"m 24 0 l 214 821 l 296 821 l 485 0 l 413 0 l 364 201 l 139 201 l 92 0 l 24 0 m 143 240 l 361 240 l 253 725 l 143 240 m 254 -142 q 224 -130 236 -142 q 213 -103 213 -118 q 224 -74 213 -86 q 254 -62 236 -62 q 282 -74 269 -62 q 294 -103 294 -86 q 282 -130 294 -118 q 254 -142 269 -142 m 107 874 l 229 994 l 278 994 l 400 874 l 353 874 l 253 958 l 156 874 l 107 874 z "},"Ầ":{"ha":508,"x_min":24,"x_max":485,"o":"m 24 0 l 214 821 l 296 821 l 485 0 l 413 0 l 364 201 l 139 201 l 92 0 l 24 0 m 143 240 l 361 240 l 253 725 l 143 240 m 144 871 l 232 961 l 275 961 l 363 871 l 318 871 l 253 928 l 190 871 l 144 871 m 397 926 l 315 1017 l 385 1017 l 439 926 l 397 926 z "},"Ẩ":{"ha":508,"x_min":24,"x_max":485,"o":"m 24 0 l 214 821 l 296 821 l 485 0 l 413 0 l 364 201 l 139 201 l 92 0 l 24 0 m 143 240 l 361 240 l 253 725 l 143 240 m 144 871 l 232 961 l 275 961 l 363 871 l 318 871 l 253 928 l 190 871 l 144 871 m 378 925 l 378 942 q 389 962 378 956 q 412 975 400 968 q 424 994 424 982 l 424 999 q 416 1017 424 1010 q 394 1025 408 1025 q 369 1001 375 1025 l 338 1008 q 356 1040 340 1029 q 399 1051 371 1051 q 447 1040 432 1051 q 461 1000 461 1028 l 461 997 q 449 967 461 975 q 426 953 438 958 q 414 938 414 949 l 414 925 l 378 925 z "},"Ẫ":{"ha":508,"x_min":24,"x_max":485,"o":"m 24 0 l 214 821 l 296 821 l 485 0 l 413 0 l 364 201 l 139 201 l 92 0 l 24 0 m 143 240 l 361 240 l 253 725 l 143 240 m 144 871 l 232 961 l 275 961 l 363 871 l 318 871 l 253 928 l 190 871 l 144 871 m 294 983 q 272 988 281 983 q 249 1000 263 992 q 230 1012 240 1006 q 208 1018 219 1018 q 188 1010 197 1018 q 176 985 179 1001 l 153 985 q 170 1033 156 1017 q 208 1050 185 1050 q 232 1047 221 1050 q 257 1033 243 1043 q 276 1022 267 1026 q 294 1018 286 1018 q 316 1026 307 1018 q 328 1050 325 1033 l 353 1050 q 343 1014 351 1029 q 322 991 335 999 q 294 983 310 983 z "},"Ä":{"ha":508,"x_min":24,"x_max":485,"o":"m 24 0 l 214 821 l 296 821 l 485 0 l 413 0 l 364 201 l 139 201 l 92 0 l 24 0 m 143 240 l 361 240 l 253 725 l 143 240 m 192 890 q 163 901 175 890 q 151 929 151 913 q 163 956 151 946 q 192 967 175 967 q 219 956 208 967 q 231 929 231 946 q 219 901 231 913 q 192 890 208 890 m 318 890 q 290 901 301 890 q 278 929 278 913 q 290 956 278 946 q 318 967 301 967 q 346 956 335 967 q 357 929 357 946 q 346 901 357 913 q 318 890 335 890 z "},"Ạ":{"ha":508,"x_min":24,"x_max":485,"o":"m 24 0 l 214 821 l 296 821 l 485 0 l 413 0 l 364 201 l 139 201 l 92 0 l 24 0 m 143 240 l 361 240 l 253 725 l 143 240 m 254 -142 q 224 -130 236 -142 q 213 -103 213 -118 q 224 -74 213 -86 q 254 -62 236 -62 q 282 -74 269 -62 q 294 -103 294 -86 q 282 -130 294 -118 q 254 -142 269 -142 z "},"À":{"ha":508,"x_min":24,"x_max":485,"o":"m 24 0 l 214 821 l 296 821 l 485 0 l 413 0 l 364 201 l 139 201 l 92 0 l 24 0 m 143 240 l 361 240 l 253 725 l 143 240 m 267 879 l 131 990 l 204 990 l 315 879 l 267 879 z "},"Ả":{"ha":508,"x_min":24,"x_max":485,"o":"m 24 0 l 214 821 l 296 821 l 485 0 l 413 0 l 364 201 l 139 201 l 92 0 l 24 0 m 143 240 l 361 240 l 253 725 l 143 240 m 232 871 l 232 894 q 248 924 232 914 q 281 943 264 933 q 297 972 297 953 l 297 976 q 287 1003 297 992 q 253 1015 276 1015 q 215 982 222 1015 l 179 989 q 203 1032 183 1017 q 257 1047 222 1047 q 319 1031 299 1047 q 339 976 339 1015 l 339 974 q 322 931 339 943 q 288 912 306 919 q 271 888 271 904 l 271 871 l 232 871 z "},"Ā":{"ha":508,"x_min":24,"x_max":485,"o":"m 24 0 l 214 821 l 296 821 l 485 0 l 413 0 l 364 201 l 139 201 l 92 0 l 24 0 m 143 240 l 361 240 l 253 725 l 143 240 m 128 906 l 128 944 l 378 944 l 378 906 l 128 906 z "},"Ą":{"ha":508,"x_min":24,"x_max":510,"o":"m 24 0 l 214 821 l 296 821 l 485 0 l 413 0 l 364 201 l 139 201 l 92 0 l 24 0 m 143 240 l 361 240 l 253 725 l 143 240 m 450 -185 q 387 -162 414 -185 q 360 -106 360 -140 q 387 -39 360 -67 q 444 0 414 -11 l 483 0 q 428 -44 447 -18 q 408 -97 408 -71 q 426 -139 408 -125 q 463 -153 444 -153 q 485 -149 475 -153 q 500 -143 494 -146 l 511 -169 q 488 -179 503 -174 q 450 -185 472 -185 z "},"Å":{"ha":508,"x_min":24,"x_max":485,"o":"m 24 0 l 214 821 l 296 821 l 485 0 l 413 0 l 364 201 l 139 201 l 92 0 l 24 0 m 143 240 l 361 240 l 253 725 l 143 240 m 258 803 q 181 833 211 803 q 151 903 151 863 q 181 976 151 946 q 258 1006 211 1006 q 336 976 307 1006 q 365 903 365 946 q 333 833 365 863 q 258 803 301 803 m 258 838 q 309 856 290 838 q 328 903 328 875 q 309 951 328 933 q 258 969 290 969 q 208 951 226 969 q 190 903 190 933 q 208 856 190 875 q 258 838 226 838 z "},"Ã":{"ha":508,"x_min":24,"x_max":485,"o":"m 24 0 l 214 821 l 296 821 l 485 0 l 413 0 l 364 201 l 139 201 l 92 0 l 24 0 m 143 240 l 361 240 l 253 725 l 143 240 m 311 889 q 281 894 293 889 q 249 913 268 900 q 223 930 238 921 q 192 939 208 939 q 164 927 175 939 q 149 890 153 915 l 118 890 q 140 951 121 928 q 193 975 160 975 q 227 967 211 975 q 258 949 243 960 q 285 933 272 940 q 311 926 297 926 q 340 938 328 926 q 356 974 351 949 l 388 974 q 376 928 386 947 q 349 899 365 908 q 311 889 332 889 z "},"B":{"ha":574,"x_min":94,"x_max":500,"o":"m 94 0 l 94 821 l 339 821 q 448 789 404 821 q 492 685 492 757 l 492 583 q 480 515 492 544 q 450 467 468 485 q 401 441 429 447 q 356 433 374 435 l 356 436 q 413 431 386 436 q 457 407 439 425 q 489 357 478 386 q 500 289 500 328 l 500 168 q 478 61 500 97 q 417 13 456 25 q 325 0 378 0 l 94 0 m 163 40 l 314 40 q 376 50 350 40 q 417 88 403 60 q 432 174 432 117 l 432 289 q 394 383 432 360 q 300 406 357 406 l 163 406 l 163 40 m 163 451 l 299 451 q 394 484 361 451 q 426 576 426 517 l 426 674 q 396 753 426 728 q 324 779 365 779 l 163 779 l 163 451 z "},"Б":{"ha":533,"x_min":94,"x_max":472,"o":"m 94 0 l 94 821 l 454 821 l 454 769 l 161 769 l 161 604 l 304 604 q 403 585 367 604 q 456 526 439 565 q 472 428 472 488 l 472 201 q 463 108 472 147 q 433 46 453 69 q 380 11 413 22 q 300 0 347 0 l 94 0 m 289 40 q 364 60 339 40 q 397 113 389 79 q 406 188 406 147 l 406 417 q 398 486 406 453 q 365 540 390 519 q 286 560 340 560 l 161 560 l 161 40 l 289 40 z "},"C":{"ha":556,"x_min":81,"x_max":483,"o":"m 282 -17 q 178 -3 224 -17 q 107 52 133 10 q 81 181 81 94 l 81 650 q 107 768 81 729 q 180 819 133 807 q 283 832 226 832 q 388 819 343 832 q 458 767 432 806 q 483 650 483 728 l 483 514 l 417 514 l 417 650 q 399 740 417 711 q 352 779 382 769 q 283 789 322 789 q 214 779 244 789 q 166 740 183 769 q 149 650 149 711 l 149 165 q 166 75 149 104 q 214 36 183 46 q 283 26 244 26 q 352 36 322 26 q 399 75 382 46 q 417 165 417 104 l 417 279 l 483 279 l 483 181 q 458 51 483 93 q 387 -3 432 10 q 282 -17 342 -17 z "},"Ć":{"ha":556,"x_min":81,"x_max":483,"o":"m 282 -17 q 178 -3 224 -17 q 107 52 133 10 q 81 181 81 94 l 81 650 q 107 768 81 729 q 180 819 133 807 q 283 832 226 832 q 388 819 343 832 q 458 767 432 806 q 483 650 483 728 l 483 514 l 417 514 l 417 650 q 399 740 417 711 q 352 779 382 769 q 283 789 322 789 q 214 779 244 789 q 166 740 183 769 q 149 650 149 711 l 149 165 q 166 75 149 104 q 214 36 183 46 q 283 26 244 26 q 352 36 322 26 q 399 75 382 46 q 417 165 417 104 l 417 279 l 483 279 l 483 181 q 458 51 483 93 q 387 -3 432 10 q 282 -17 342 -17 m 217 879 l 328 990 l 401 990 l 263 879 l 217 879 z "},"Č":{"ha":556,"x_min":81,"x_max":483,"o":"m 282 -17 q 178 -3 224 -17 q 107 52 133 10 q 81 181 81 94 l 81 650 q 107 768 81 729 q 180 819 133 807 q 283 832 226 832 q 388 819 343 832 q 458 767 432 806 q 483 650 483 728 l 483 514 l 417 514 l 417 650 q 399 740 417 711 q 352 779 382 769 q 283 789 322 789 q 214 779 244 789 q 166 740 183 769 q 149 650 149 711 l 149 165 q 166 75 149 104 q 214 36 183 46 q 283 26 244 26 q 352 36 322 26 q 399 75 382 46 q 417 165 417 104 l 417 279 l 483 279 l 483 181 q 458 51 483 93 q 387 -3 432 10 q 282 -17 342 -17 m 253 874 l 136 982 l 186 982 l 278 910 l 369 983 l 418 983 l 301 874 l 253 874 z "},"Ç":{"ha":556,"x_min":81,"x_max":483,"o":"m 282 -17 q 178 -3 224 -17 q 107 52 133 10 q 81 181 81 94 l 81 650 q 107 768 81 729 q 180 819 133 807 q 283 832 226 832 q 388 819 343 832 q 458 767 432 806 q 483 650 483 728 l 483 514 l 417 514 l 417 650 q 399 740 417 711 q 352 779 382 769 q 283 789 322 789 q 214 779 244 789 q 166 740 183 769 q 149 650 149 711 l 149 165 q 166 75 149 104 q 214 36 183 46 q 283 26 244 26 q 352 36 322 26 q 399 75 382 46 q 417 165 417 104 l 417 279 l 483 279 l 483 181 q 458 51 483 93 q 387 -3 432 10 q 282 -17 342 -17 m 272 -196 q 235 -190 251 -196 q 208 -178 219 -183 l 219 -150 q 244 -160 228 -156 q 269 -165 260 -165 q 313 -153 299 -165 q 326 -122 326 -140 q 313 -92 326 -103 q 281 -82 300 -82 q 261 -85 271 -82 q 243 -96 251 -89 l 218 -82 l 263 0 l 296 0 l 258 -71 l 250 -68 q 272 -59 260 -61 q 296 -57 285 -57 q 349 -77 329 -57 q 368 -119 368 -97 q 343 -174 368 -153 q 272 -196 318 -196 z "},"Ċ":{"ha":556,"x_min":81,"x_max":483,"o":"m 282 -17 q 178 -3 224 -17 q 107 52 133 10 q 81 181 81 94 l 81 650 q 107 768 81 729 q 180 819 133 807 q 283 832 226 832 q 388 819 343 832 q 458 767 432 806 q 483 650 483 728 l 483 514 l 417 514 l 417 650 q 399 740 417 711 q 352 779 382 769 q 283 789 322 789 q 214 779 244 789 q 166 740 183 769 q 149 650 149 711 l 149 165 q 166 75 149 104 q 214 36 183 46 q 283 26 244 26 q 352 36 322 26 q 399 75 382 46 q 417 165 417 104 l 417 279 l 483 279 l 483 181 q 458 51 483 93 q 387 -3 432 10 q 282 -17 342 -17 m 283 892 q 252 904 265 892 q 239 935 239 917 q 252 965 239 953 q 283 978 265 978 q 315 965 301 978 q 328 935 328 953 q 315 904 328 917 q 283 892 301 892 z "},"Ч":{"ha":500,"x_min":61,"x_max":438,"o":"m 369 0 l 369 233 q 314 203 353 218 q 228 188 275 188 q 118 212 154 188 q 72 278 82 236 q 61 374 61 321 l 61 821 l 128 821 l 128 372 q 151 272 128 306 q 246 238 175 238 q 332 255 304 238 q 369 281 360 272 l 369 821 l 438 821 l 438 0 l 369 0 z "},"D":{"ha":581,"x_min":94,"x_max":499,"o":"m 94 0 l 94 821 l 329 821 q 419 806 382 821 q 478 753 457 790 q 499 649 499 715 l 499 179 q 476 69 499 108 q 415 15 454 29 q 322 0 375 0 l 94 0 m 164 40 l 314 40 q 400 69 368 40 q 432 178 432 97 l 432 640 q 400 749 432 721 q 314 778 368 778 l 164 778 l 164 40 z "},"Ď":{"ha":581,"x_min":94,"x_max":499,"o":"m 94 0 l 94 821 l 329 821 q 419 806 382 821 q 478 753 457 790 q 499 649 499 715 l 499 179 q 476 69 499 108 q 415 15 454 29 q 322 0 375 0 l 94 0 m 164 40 l 314 40 q 400 69 368 40 q 432 178 432 97 l 432 640 q 400 749 432 721 q 314 778 368 778 l 164 778 l 164 40 m 265 874 l 149 982 l 199 982 l 290 910 l 382 983 l 431 983 l 314 874 l 265 874 z "},"Đ":{"ha":601,"x_min":29,"x_max":519,"o":"m 111 0 l 111 821 l 351 821 q 440 806 403 821 q 499 753 478 790 q 519 649 519 715 l 519 179 q 498 69 519 108 q 437 15 476 29 q 344 0 397 0 l 111 0 m 29 378 l 29 425 l 269 425 l 269 378 l 29 378 m 179 40 l 333 40 q 421 69 389 40 q 453 178 453 97 l 453 640 q 421 749 453 721 q 333 778 389 778 l 179 778 l 179 40 z "},"Д":{"ha":756,"x_min":50,"x_max":706,"o":"m 50 -146 l 50 46 l 117 46 q 167 76 147 49 q 193 169 188 104 q 203 293 199 228 q 213 426 208 358 q 223 560 218 493 q 232 694 228 628 q 242 821 236 761 l 588 821 l 588 46 l 706 46 l 706 -146 l 646 -146 l 646 -10 l 110 -10 l 110 -146 l 50 -146 m 225 46 l 519 46 l 519 769 l 306 769 q 285 474 294 621 q 264 181 275 328 q 254 107 261 147 q 225 46 247 67 z "},"Δ":{"ha":721,"x_min":61,"x_max":660,"o":"m 61 0 l 328 813 l 400 813 l 660 0 l 61 0 m 149 58 l 568 58 l 361 722 l 149 58 z "},"Ђ":{"ha":608,"x_min":15,"x_max":549,"o":"m 165 0 l 165 769 l 15 769 l 15 821 l 385 821 l 385 769 l 235 769 l 235 521 q 284 570 247 547 q 382 593 321 593 q 485 572 450 593 q 535 509 521 550 q 549 413 549 468 l 549 242 q 535 115 549 163 q 497 42 521 67 q 438 8 472 17 q 363 0 404 0 q 346 1 354 0 q 331 4 338 3 l 331 42 q 342 40 336 40 q 354 40 349 40 q 452 88 424 40 q 481 229 481 135 l 481 410 q 458 513 481 478 q 360 547 435 547 q 271 519 300 547 q 235 465 242 492 l 235 0 l 165 0 z "},"Ѕ":{"ha":513,"x_min":57,"x_max":456,"o":"m 250 -8 q 148 13 192 -8 q 81 87 104 35 q 57 232 57 139 l 57 276 q 91 276 74 276 q 124 276 108 276 l 124 228 q 140 113 124 154 q 185 54 156 71 q 251 38 214 38 q 348 74 310 38 q 386 207 386 111 q 367 304 386 271 q 311 357 349 338 q 219 397 274 376 q 139 440 175 415 q 82 505 103 464 q 61 610 61 546 q 81 728 61 681 q 143 798 100 775 q 256 821 186 821 q 397 774 346 821 q 447 642 447 728 l 447 553 q 415 553 431 553 q 382 553 399 553 l 382 626 q 349 732 382 696 q 256 768 317 768 q 158 729 189 768 q 128 613 128 690 q 150 523 128 556 q 206 472 172 490 q 279 439 240 454 q 381 390 342 415 q 438 324 419 364 q 456 214 456 285 q 429 82 456 131 q 357 13 403 33 q 250 -8 311 -8 z "},"Џ":{"ha":500,"x_min":63,"x_max":438,"o":"m 224 -137 l 224 0 l 63 0 l 63 821 l 132 821 l 132 50 l 368 50 l 368 821 l 438 821 l 438 0 l 274 0 l 274 -137 l 224 -137 z "},"E":{"ha":478,"x_min":94,"x_max":443,"o":"m 94 0 l 94 821 l 443 821 l 443 771 l 165 771 l 165 457 l 383 457 l 383 404 l 165 404 l 165 49 l 443 49 l 443 0 l 94 0 z "},"É":{"ha":478,"x_min":94,"x_max":443,"o":"m 94 0 l 94 821 l 443 821 l 443 771 l 165 771 l 165 457 l 383 457 l 383 404 l 165 404 l 165 49 l 443 49 l 443 0 l 94 0 m 207 879 l 318 990 l 392 990 l 253 879 l 207 879 z "},"Ě":{"ha":478,"x_min":94,"x_max":443,"o":"m 94 0 l 94 821 l 443 821 l 443 771 l 165 771 l 165 457 l 383 457 l 383 404 l 165 404 l 165 49 l 443 49 l 443 0 l 94 0 m 244 874 l 128 982 l 178 982 l 269 910 l 361 983 l 410 983 l 293 874 l 244 874 z "},"Ê":{"ha":478,"x_min":94,"x_max":443,"o":"m 94 0 l 94 821 l 443 821 l 443 771 l 165 771 l 165 457 l 383 457 l 383 404 l 165 404 l 165 49 l 443 49 l 443 0 l 94 0 m 122 874 l 244 994 l 293 994 l 415 874 l 368 874 l 268 958 l 171 874 l 122 874 z "},"Ế":{"ha":478,"x_min":94,"x_max":500,"o":"m 94 0 l 94 821 l 443 821 l 443 771 l 165 771 l 165 457 l 383 457 l 383 404 l 165 404 l 165 49 l 443 49 l 443 0 l 94 0 m 160 871 l 247 961 l 290 961 l 378 871 l 333 871 l 268 928 l 206 871 l 160 871 m 376 926 l 431 1018 l 500 1018 l 418 926 l 376 926 z "},"Ệ":{"ha":478,"x_min":94,"x_max":443,"o":"m 94 0 l 94 821 l 443 821 l 443 771 l 165 771 l 165 457 l 383 457 l 383 404 l 165 404 l 165 49 l 443 49 l 443 0 l 94 0 m 274 -142 q 244 -130 256 -142 q 232 -103 232 -118 q 244 -74 232 -86 q 274 -62 256 -62 q 301 -74 289 -62 q 314 -103 314 -86 q 301 -130 314 -118 q 274 -142 289 -142 m 122 874 l 244 994 l 293 994 l 415 874 l 368 874 l 268 958 l 171 874 l 122 874 z "},"Ề":{"ha":478,"x_min":94,"x_max":454,"o":"m 94 0 l 94 821 l 443 821 l 443 771 l 165 771 l 165 457 l 383 457 l 383 404 l 165 404 l 165 49 l 443 49 l 443 0 l 94 0 m 160 871 l 247 961 l 290 961 l 378 871 l 333 871 l 268 928 l 206 871 l 160 871 m 413 926 l 331 1017 l 400 1017 l 454 926 l 413 926 z "},"Ể":{"ha":478,"x_min":94,"x_max":476,"o":"m 94 0 l 94 821 l 443 821 l 443 771 l 165 771 l 165 457 l 383 457 l 383 404 l 165 404 l 165 49 l 443 49 l 443 0 l 94 0 m 160 871 l 247 961 l 290 961 l 378 871 l 333 871 l 268 928 l 206 871 l 160 871 m 393 925 l 393 942 q 404 962 393 956 q 427 975 415 968 q 439 994 439 982 l 439 999 q 431 1017 439 1010 q 410 1025 424 1025 q 385 1001 390 1025 l 353 1008 q 371 1040 356 1029 q 414 1051 386 1051 q 462 1040 447 1051 q 476 1000 476 1028 l 476 997 q 465 967 476 975 q 441 953 453 958 q 429 938 429 949 l 429 925 l 393 925 z "},"Ễ":{"ha":478,"x_min":94,"x_max":443,"o":"m 94 0 l 94 821 l 443 821 l 443 771 l 165 771 l 165 457 l 383 457 l 383 404 l 165 404 l 165 49 l 443 49 l 443 0 l 94 0 m 160 871 l 247 961 l 290 961 l 378 871 l 333 871 l 268 928 l 206 871 l 160 871 m 310 983 q 287 988 296 983 q 264 1000 278 992 q 245 1012 256 1006 q 224 1018 235 1018 q 203 1010 213 1018 q 192 985 194 1001 l 168 985 q 185 1033 171 1017 q 224 1050 200 1050 q 247 1047 236 1050 q 272 1033 258 1043 q 292 1022 282 1026 q 310 1018 301 1018 q 331 1026 322 1018 q 343 1050 340 1033 l 368 1050 q 358 1014 367 1029 q 338 991 350 999 q 310 983 325 983 z "},"Ë":{"ha":478,"x_min":94,"x_max":443,"o":"m 94 0 l 94 821 l 443 821 l 443 771 l 165 771 l 165 457 l 383 457 l 383 404 l 165 404 l 165 49 l 443 49 l 443 0 l 94 0 m 207 890 q 178 901 190 890 q 167 929 167 913 q 178 956 167 946 q 207 967 190 967 q 235 956 224 967 q 246 929 246 946 q 235 901 246 913 q 207 890 224 890 m 333 890 q 305 901 317 890 q 293 929 293 913 q 305 956 293 946 q 333 967 317 967 q 361 956 350 967 q 372 929 372 946 q 361 901 372 913 q 333 890 350 890 z "},"Ė":{"ha":478,"x_min":94,"x_max":443,"o":"m 94 0 l 94 821 l 443 821 l 443 771 l 165 771 l 165 457 l 383 457 l 383 404 l 165 404 l 165 49 l 443 49 l 443 0 l 94 0 m 274 892 q 242 904 256 892 q 229 935 229 917 q 242 965 229 953 q 274 978 256 978 q 305 965 292 978 q 318 935 318 953 q 305 904 318 917 q 274 892 292 892 z "},"Ẹ":{"ha":478,"x_min":94,"x_max":443,"o":"m 94 0 l 94 821 l 443 821 l 443 771 l 165 771 l 165 457 l 383 457 l 383 404 l 165 404 l 165 49 l 443 49 l 443 0 l 94 0 m 274 -142 q 244 -130 256 -142 q 232 -103 232 -118 q 244 -74 232 -86 q 274 -62 256 -62 q 301 -74 289 -62 q 314 -103 314 -86 q 301 -130 314 -118 q 274 -142 289 -142 z "},"Ф":{"ha":642,"x_min":60,"x_max":582,"o":"m 288 -11 l 288 88 l 257 88 q 108 132 157 88 q 60 276 60 176 l 60 549 q 106 687 60 642 q 251 732 153 732 l 288 732 l 288 821 l 356 821 l 356 732 l 386 732 q 533 690 485 732 q 582 544 582 647 l 582 281 q 531 128 582 169 q 379 88 481 88 l 356 88 l 356 -11 l 288 -11 m 264 128 l 288 128 q 288 409 288 269 q 288 689 288 549 l 265 689 q 163 653 197 689 q 128 540 128 618 l 128 276 q 162 163 128 199 q 264 128 196 128 m 356 128 l 371 128 q 477 160 440 128 q 514 278 514 192 l 514 538 q 477 656 514 624 q 371 689 440 689 l 356 689 q 356 409 356 549 q 356 128 356 269 z "},"È":{"ha":478,"x_min":94,"x_max":443,"o":"m 94 0 l 94 821 l 443 821 l 443 771 l 165 771 l 165 457 l 383 457 l 383 404 l 165 404 l 165 49 l 443 49 l 443 0 l 94 0 m 282 879 l 146 990 l 219 990 l 331 879 l 282 879 z "},"Ẻ":{"ha":478,"x_min":94,"x_max":443,"o":"m 94 0 l 94 821 l 443 821 l 443 771 l 165 771 l 165 457 l 383 457 l 383 404 l 165 404 l 165 49 l 443 49 l 443 0 l 94 0 m 249 871 l 249 894 q 265 924 249 914 q 297 943 281 933 q 314 972 314 953 l 314 976 q 303 1003 314 992 q 269 1015 293 1015 q 232 982 239 1015 l 196 989 q 219 1032 200 1017 q 274 1047 239 1047 q 335 1031 315 1047 q 356 976 356 1015 l 356 974 q 339 931 356 943 q 305 912 322 919 q 288 888 288 904 l 288 871 l 249 871 z "},"Л":{"ha":578,"x_min":24,"x_max":515,"o":"m 24 0 l 24 40 q 69 65 51 40 q 92 144 88 90 l 138 821 l 515 821 l 515 0 l 447 0 l 447 769 l 204 769 l 158 124 q 153 86 156 107 q 140 47 150 65 q 112 16 131 29 q 61 0 93 3 l 24 0 z "},"М":{"ha":735,"x_min":94,"x_max":639,"o":"m 94 0 l 94 821 l 172 821 l 367 117 l 567 821 l 639 821 l 639 0 l 578 0 l 578 678 l 393 0 l 342 0 l 157 678 l 157 0 l 94 0 z "},"Ē":{"ha":478,"x_min":94,"x_max":443,"o":"m 94 0 l 94 821 l 443 821 l 443 771 l 165 771 l 165 457 l 383 457 l 383 404 l 165 404 l 165 49 l 443 49 l 443 0 l 94 0 m 143 906 l 143 944 l 393 944 l 393 906 l 143 906 z "},"Н":{"ha":593,"x_min":94,"x_max":499,"o":"m 94 0 l 94 821 l 163 821 l 163 456 l 432 456 l 432 821 l 499 821 l 499 0 l 432 0 l 432 404 l 163 404 l 163 0 l 94 0 z "},"Ŋ":{"ha":593,"x_min":94,"x_max":499,"o":"m 358 -236 q 333 -236 346 -236 q 307 -235 319 -236 l 307 -185 l 353 -186 q 415 -169 396 -186 q 433 -101 433 -151 l 435 1 l 158 660 l 157 0 l 94 0 l 96 821 l 156 821 l 436 142 l 438 821 l 499 821 l 497 -60 q 488 -165 497 -126 q 447 -219 478 -203 q 358 -236 417 -236 z "},"Ę":{"ha":478,"x_min":94,"x_max":443,"o":"m 94 0 l 94 821 l 443 821 l 443 771 l 165 771 l 165 457 l 383 457 l 383 404 l 165 404 l 165 49 l 443 49 l 443 0 l 94 0 m 338 -185 q 274 -162 301 -185 q 247 -106 247 -140 q 274 -39 247 -67 q 332 0 301 -11 l 371 0 q 315 -44 335 -18 q 296 -97 296 -71 q 314 -139 296 -125 q 350 -153 332 -153 q 372 -149 363 -153 q 388 -143 382 -146 l 399 -169 q 375 -179 390 -174 q 338 -185 360 -185 z "},"Р":{"ha":531,"x_min":94,"x_max":493,"o":"m 94 0 l 94 821 l 340 821 q 450 789 407 821 q 493 685 493 757 l 493 532 q 480 447 493 486 q 429 384 467 408 q 318 360 392 360 l 165 360 l 165 0 l 94 0 m 165 403 l 301 403 q 394 437 363 403 q 426 542 426 471 l 426 661 q 397 751 426 722 q 326 779 367 779 l 165 779 l 165 403 z "},"Э":{"ha":531,"x_min":61,"x_max":468,"o":"m 265 -17 q 159 -3 206 -17 q 87 51 113 10 q 61 182 61 93 l 61 268 l 129 268 l 129 161 q 147 74 129 103 q 194 35 164 44 q 264 26 225 26 q 333 35 303 26 q 381 74 364 44 q 397 161 397 103 l 397 386 l 176 386 l 176 436 l 397 436 l 397 649 q 381 737 397 708 q 334 775 364 765 q 264 785 304 785 q 194 776 225 785 q 147 740 164 768 q 129 654 129 713 l 129 522 l 61 522 l 61 649 q 87 765 61 725 q 158 819 113 806 q 263 832 204 832 q 368 819 322 832 q 441 766 414 806 q 468 649 468 726 l 468 181 q 442 53 468 96 q 369 -3 415 10 q 265 -17 324 -17 z "},"С":{"ha":556,"x_min":81,"x_max":483,"o":"m 282 -17 q 178 -3 224 -17 q 107 52 133 10 q 81 181 81 94 l 81 650 q 107 768 81 729 q 180 819 133 807 q 283 832 226 832 q 388 819 343 832 q 458 767 432 806 q 483 650 483 728 l 483 514 l 417 514 l 417 650 q 399 740 417 711 q 352 779 382 769 q 283 789 322 789 q 214 779 244 789 q 166 740 183 769 q 149 650 149 711 l 149 165 q 166 75 149 104 q 214 36 183 46 q 283 26 244 26 q 352 36 322 26 q 399 75 382 46 q 417 165 417 104 l 417 279 l 483 279 l 483 181 q 458 51 483 93 q 387 -3 432 10 q 282 -17 342 -17 z "},"Ð":{"ha":601,"x_min":29,"x_max":519,"o":"m 111 0 l 111 821 l 351 821 q 440 806 403 821 q 499 753 478 790 q 519 649 519 715 l 519 179 q 498 69 519 108 q 437 15 476 29 q 344 0 397 0 l 111 0 m 29 378 l 29 425 l 269 425 l 269 378 l 29 378 m 179 40 l 333 40 q 421 69 389 40 q 453 178 453 97 l 453 640 q 421 749 453 721 q 333 778 389 778 l 179 778 l 179 40 z "},"Ẽ":{"ha":478,"x_min":94,"x_max":443,"o":"m 94 0 l 94 821 l 443 821 l 443 771 l 165 771 l 165 457 l 383 457 l 383 404 l 165 404 l 165 49 l 443 49 l 443 0 l 94 0 m 326 889 q 296 894 308 889 q 264 913 283 900 q 238 930 253 921 q 207 939 224 939 q 179 927 190 939 q 164 890 168 915 l 133 890 q 156 951 136 928 q 208 975 175 975 q 242 967 226 975 q 274 949 258 960 q 300 933 288 940 q 326 926 313 926 q 355 938 343 926 q 371 974 367 949 l 403 974 q 391 928 401 947 q 364 899 381 908 q 326 889 347 889 z "},"F":{"ha":465,"x_min":94,"x_max":443,"o":"m 94 0 l 94 821 l 443 821 l 443 771 l 165 771 l 165 457 l 383 457 l 383 404 l 165 404 l 165 0 l 94 0 z "},"G":{"ha":560,"x_min":81,"x_max":483,"o":"m 267 -17 q 173 -3 215 -17 q 106 51 131 10 q 81 174 81 92 l 81 650 q 107 767 81 728 q 179 819 133 806 q 283 832 225 832 q 388 818 343 832 q 458 766 432 804 q 483 650 483 728 l 483 549 l 418 549 l 418 649 q 401 740 418 710 q 353 778 383 769 q 282 788 324 788 q 213 778 243 788 q 165 740 182 769 q 147 649 147 710 l 147 165 q 165 75 147 104 q 213 36 182 46 q 282 26 243 26 q 380 63 342 26 q 418 165 418 99 l 418 339 l 301 339 l 301 382 l 483 382 l 483 0 l 435 0 l 431 82 q 418 61 425 72 q 406 43 411 50 q 351 -1 385 15 q 267 -17 318 -17 z "},"Ğ":{"ha":560,"x_min":81,"x_max":483,"o":"m 267 -17 q 173 -3 215 -17 q 106 51 131 10 q 81 174 81 92 l 81 650 q 107 767 81 728 q 179 819 133 806 q 283 832 225 832 q 388 818 343 832 q 458 766 432 804 q 483 650 483 728 l 483 549 l 418 549 l 418 649 q 401 740 418 710 q 353 778 383 769 q 282 788 324 788 q 213 778 243 788 q 165 740 182 769 q 147 649 147 710 l 147 165 q 165 75 147 104 q 213 36 182 46 q 282 26 243 26 q 380 63 342 26 q 418 165 418 99 l 418 339 l 301 339 l 301 382 l 483 382 l 483 0 l 435 0 l 431 82 q 418 61 425 72 q 406 43 411 50 q 351 -1 385 15 q 267 -17 318 -17 m 279 875 q 201 895 229 875 q 160 943 172 915 q 147 994 149 971 l 190 994 q 220 933 196 953 q 279 913 244 913 q 341 932 317 913 q 369 994 365 951 l 413 994 q 397 940 410 968 q 355 894 383 913 q 279 875 326 875 z "},"Ģ":{"ha":560,"x_min":81,"x_max":483,"o":"m 267 -17 q 173 -3 215 -17 q 106 51 131 10 q 81 174 81 92 l 81 650 q 107 767 81 728 q 179 819 133 806 q 283 832 225 832 q 388 818 343 832 q 458 766 432 804 q 483 650 483 728 l 483 549 l 418 549 l 418 649 q 401 740 418 710 q 353 778 383 769 q 282 788 324 788 q 213 778 243 788 q 165 740 182 769 q 147 649 147 710 l 147 165 q 165 75 147 104 q 213 36 182 46 q 282 26 243 26 q 380 63 342 26 q 418 165 418 99 l 418 339 l 301 339 l 301 382 l 483 382 l 483 0 l 435 0 l 431 82 q 418 61 425 72 q 406 43 411 50 q 351 -1 385 15 q 267 -17 318 -17 m 232 -215 q 257 -169 246 -192 q 268 -131 268 -147 q 262 -117 268 -122 q 249 -104 256 -111 q 243 -85 243 -97 q 253 -62 243 -72 q 279 -53 264 -53 q 308 -65 297 -53 q 318 -92 318 -78 q 310 -129 318 -107 q 289 -174 301 -151 q 263 -215 276 -197 l 232 -215 z "},"Ġ":{"ha":560,"x_min":81,"x_max":483,"o":"m 267 -17 q 173 -3 215 -17 q 106 51 131 10 q 81 174 81 92 l 81 650 q 107 767 81 728 q 179 819 133 806 q 283 832 225 832 q 388 818 343 832 q 458 766 432 804 q 483 650 483 728 l 483 549 l 418 549 l 418 649 q 401 740 418 710 q 353 778 383 769 q 282 788 324 788 q 213 778 243 788 q 165 740 182 769 q 147 649 147 710 l 147 165 q 165 75 147 104 q 213 36 182 46 q 282 26 243 26 q 380 63 342 26 q 418 165 418 99 l 418 339 l 301 339 l 301 382 l 483 382 l 483 0 l 435 0 l 431 82 q 418 61 425 72 q 406 43 411 50 q 351 -1 385 15 q 267 -17 318 -17 m 285 892 q 253 904 267 892 q 240 935 240 917 q 253 965 240 953 q 285 978 267 978 q 316 965 303 978 q 329 935 329 953 q 316 904 329 917 q 285 892 303 892 z "},"Г":{"ha":438,"x_min":63,"x_max":414,"o":"m 63 0 l 63 821 l 414 821 l 414 769 l 132 769 l 132 0 l 63 0 z "},"ẞ":{"ha":1068,"x_min":88,"x_max":979,"o":"m 772 -8 q 669 13 713 -8 q 603 87 626 35 q 581 232 581 139 l 581 276 q 614 276 597 276 q 647 276 631 276 l 647 228 q 663 113 647 154 q 708 54 679 71 q 775 38 738 38 q 872 74 833 38 q 910 207 910 111 q 890 304 910 271 q 834 357 871 338 q 742 397 797 376 q 662 440 697 415 q 606 505 626 464 q 585 610 585 546 q 603 728 585 681 q 665 798 622 775 q 779 821 708 821 q 920 774 869 821 q 971 642 971 728 l 971 553 q 938 553 954 553 q 906 553 922 553 l 906 626 q 873 732 906 696 q 779 768 840 768 q 681 729 711 768 q 651 613 651 690 q 673 523 651 556 q 729 472 694 490 q 801 439 764 454 q 904 390 865 415 q 961 324 943 364 q 979 214 979 285 q 953 82 979 131 q 880 13 926 33 q 772 -8 833 -8 m 281 -8 q 178 13 221 -8 q 111 87 135 35 q 88 232 88 139 l 88 276 q 122 276 106 276 q 157 276 139 276 l 157 228 q 173 113 157 154 q 217 54 189 71 q 282 38 244 38 q 380 74 342 38 q 418 207 418 111 q 399 304 418 271 q 342 357 379 338 q 251 397 306 376 q 171 440 207 415 q 114 505 135 464 q 93 610 93 546 q 113 728 93 681 q 174 798 132 775 q 286 821 217 821 q 428 774 378 821 q 479 642 479 728 l 479 553 q 446 553 463 553 q 414 553 429 553 l 414 626 q 381 732 414 696 q 288 768 349 768 q 191 729 221 768 q 161 613 161 690 q 182 523 161 556 q 238 472 203 490 q 311 439 272 454 q 413 390 374 415 q 469 324 451 364 q 488 214 488 285 q 460 82 488 131 q 388 13 433 33 q 281 -8 342 -8 z "},"Ѓ":{"ha":438,"x_min":63,"x_max":414,"o":"m 63 0 l 63 821 l 414 821 l 414 769 l 132 769 l 132 0 l 63 0 m 157 879 l 268 990 l 342 990 l 203 879 l 157 879 z "},"H":{"ha":593,"x_min":94,"x_max":499,"o":"m 94 0 l 94 821 l 163 821 l 163 456 l 432 456 l 432 821 l 499 821 l 499 0 l 432 0 l 432 404 l 163 404 l 163 0 l 94 0 z "},"Х":{"ha":426,"x_min":26,"x_max":401,"o":"m 26 0 l 160 417 l 38 821 l 104 821 l 214 456 l 333 821 l 401 821 l 268 415 l 399 0 l 331 0 l 214 367 l 96 0 l 26 0 z "},"Ъ":{"ha":543,"x_min":13,"x_max":482,"o":"m 104 0 l 104 769 l 13 769 l 13 821 l 172 821 l 172 604 l 314 604 q 413 585 376 604 q 465 526 449 565 q 482 428 482 488 l 482 201 q 472 108 482 147 q 442 46 463 69 q 390 11 422 22 q 310 0 357 0 l 104 0 m 172 40 l 299 40 q 374 60 349 40 q 407 117 399 81 q 415 204 415 154 l 415 410 q 408 484 415 450 q 377 539 401 518 q 297 560 353 560 l 172 560 l 172 40 z "},"Ħ":{"ha":593,"x_min":42,"x_max":579,"o":"m 42 658 l 42 694 l 579 694 l 579 658 l 42 658 m 94 0 l 94 821 l 163 821 l 163 456 l 432 456 l 432 821 l 499 821 l 499 0 l 432 0 l 432 404 l 163 404 l 163 0 l 94 0 z "},"I":{"ha":257,"x_min":94,"x_max":163,"o":"m 94 0 l 94 821 l 163 821 l 163 0 l 94 0 z "},"І":{"ha":257,"x_min":94,"x_max":163,"o":"m 94 0 l 94 821 l 163 821 l 163 0 l 94 0 z "},"Я":{"ha":574,"x_min":46,"x_max":478,"o":"m 478 0 l 408 0 l 408 386 l 293 386 q 246 370 264 386 q 217 329 228 354 q 197 278 206 304 l 118 0 l 46 0 l 132 282 q 172 373 150 343 q 239 403 194 403 l 239 401 q 122 440 167 403 q 78 551 78 478 l 78 685 q 122 789 78 757 q 231 821 165 821 l 478 821 l 478 0 m 408 433 l 408 779 l 246 779 q 175 754 206 779 q 144 674 144 729 l 144 560 q 176 462 144 490 q 271 433 208 433 l 408 433 z "},"Í":{"ha":257,"x_min":67,"x_max":251,"o":"m 94 0 l 94 821 l 163 821 l 163 0 l 94 0 m 67 879 l 178 990 l 251 990 l 113 879 l 67 879 z "},"Ǐ":{"ha":257,"x_min":-12,"x_max":269,"o":"m 94 0 l 94 821 l 163 821 l 163 0 l 94 0 m 104 874 l -12 982 l 38 982 l 129 910 l 221 983 l 269 983 l 153 874 l 104 874 z "},"Î":{"ha":257,"x_min":-18,"x_max":275,"o":"m 94 0 l 94 821 l 163 821 l 163 0 l 94 0 m -18 874 l 104 994 l 153 994 l 275 874 l 228 874 l 128 958 l 31 874 l -18 874 z "},"Ï":{"ha":257,"x_min":26,"x_max":232,"o":"m 94 0 l 94 821 l 163 821 l 163 0 l 94 0 m 67 890 q 38 901 50 890 q 26 929 26 913 q 38 956 26 946 q 67 967 50 967 q 94 956 83 967 q 106 929 106 946 q 94 901 106 913 q 67 890 83 890 m 193 890 q 165 901 176 890 q 153 929 153 913 q 165 956 153 946 q 193 967 176 967 q 221 956 210 967 q 232 929 232 946 q 221 901 232 913 q 193 890 210 890 z "},"İ":{"ha":257,"x_min":89,"x_max":178,"o":"m 94 0 l 94 821 l 163 821 l 163 0 l 94 0 m 133 892 q 102 904 115 892 q 89 935 89 917 q 102 965 89 953 q 133 978 115 978 q 165 965 151 978 q 178 935 178 953 q 165 904 178 917 q 133 892 151 892 z "},"Ị":{"ha":257,"x_min":88,"x_max":169,"o":"m 94 0 l 94 821 l 163 821 l 163 0 l 94 0 m 129 -142 q 99 -130 111 -142 q 88 -103 88 -118 q 99 -74 88 -86 q 129 -62 111 -62 q 157 -74 144 -62 q 169 -103 169 -86 q 157 -130 169 -118 q 129 -142 144 -142 z "},"Е":{"ha":478,"x_min":94,"x_max":443,"o":"m 94 0 l 94 821 l 443 821 l 443 771 l 165 771 l 165 457 l 383 457 l 383 404 l 165 404 l 165 49 l 443 49 l 443 0 l 94 0 z "},"Ѐ":{"ha":478,"x_min":94,"x_max":443,"o":"m 94 0 l 94 821 l 443 821 l 443 771 l 165 771 l 165 457 l 383 457 l 383 404 l 165 404 l 165 49 l 443 49 l 443 0 l 94 0 m 288 879 l 151 990 l 225 990 l 336 879 l 288 879 z "},"Ì":{"ha":257,"x_min":6,"x_max":190,"o":"m 94 0 l 94 821 l 163 821 l 163 0 l 94 0 m 142 879 l 6 990 l 79 990 l 190 879 l 142 879 z "},"Ỉ":{"ha":257,"x_min":54,"x_max":214,"o":"m 94 0 l 94 821 l 163 821 l 163 0 l 94 0 m 107 871 l 107 894 q 123 924 107 914 q 156 943 139 933 q 172 972 172 953 l 172 976 q 162 1003 172 992 q 128 1015 151 1015 q 90 982 97 1015 l 54 989 q 78 1032 58 1017 q 132 1047 97 1047 q 194 1031 174 1047 q 214 976 214 1015 l 214 974 q 197 931 214 943 q 163 912 181 919 q 146 888 146 904 l 146 871 l 107 871 z "},"И":{"ha":531,"x_min":63,"x_max":467,"o":"m 63 0 l 63 821 l 125 821 l 125 140 l 406 821 l 467 821 l 467 0 l 404 0 l 404 661 l 128 0 l 63 0 z "},"Ѝ":{"ha":531,"x_min":63,"x_max":467,"o":"m 63 0 l 63 821 l 125 821 l 125 140 l 406 821 l 467 821 l 467 0 l 404 0 l 404 661 l 128 0 l 63 0 m 278 879 l 142 990 l 215 990 l 326 879 l 278 879 z "},"Й":{"ha":531,"x_min":63,"x_max":467,"o":"m 63 0 l 63 821 l 125 821 l 125 140 l 406 821 l 467 821 l 467 0 l 404 0 l 404 661 l 128 0 l 63 0 m 264 875 q 185 895 214 875 q 145 943 157 915 q 132 994 133 971 l 175 994 q 205 933 181 953 q 264 913 229 913 q 326 932 301 913 q 354 994 350 951 l 397 994 q 381 940 394 968 q 340 894 368 913 q 264 875 311 875 z "},"Ī":{"ha":257,"x_min":3,"x_max":253,"o":"m 94 0 l 94 821 l 163 821 l 163 0 l 94 0 m 3 906 l 3 944 l 253 944 l 253 906 l 3 906 z "},"Ё":{"ha":478,"x_min":94,"x_max":443,"o":"m 94 0 l 94 821 l 443 821 l 443 771 l 165 771 l 165 457 l 383 457 l 383 404 l 165 404 l 165 49 l 443 49 l 443 0 l 94 0 m 213 890 q 184 901 196 890 q 172 929 172 913 q 184 956 172 946 q 213 967 196 967 q 240 956 229 967 q 251 929 251 946 q 240 901 251 913 q 213 890 229 890 m 339 890 q 310 901 322 890 q 299 929 299 913 q 310 956 299 946 q 339 967 322 967 q 367 956 356 967 q 378 929 378 946 q 367 901 378 913 q 339 890 356 890 z "},"Į":{"ha":257,"x_min":38,"x_max":188,"o":"m 94 0 l 94 821 l 163 821 l 163 0 l 94 0 m 128 -185 q 65 -162 92 -185 q 38 -106 38 -140 q 65 -39 38 -67 q 122 0 92 -11 l 161 0 q 106 -44 125 -18 q 86 -97 86 -71 q 104 -139 86 -125 q 140 -153 122 -153 q 163 -149 153 -153 q 178 -143 172 -146 l 189 -169 q 165 -179 181 -174 q 128 -185 150 -185 z "},"Ĩ":{"ha":257,"x_min":-7,"x_max":263,"o":"m 94 0 l 94 821 l 163 821 l 163 0 l 94 0 m 186 889 q 156 894 168 889 q 124 913 143 900 q 98 930 113 921 q 67 939 83 939 q 39 927 50 939 q 24 890 28 915 l -7 890 q 15 951 -4 928 q 68 975 35 975 q 102 967 86 975 q 133 949 118 960 q 160 933 147 940 q 186 926 172 926 q 215 938 203 926 q 231 974 226 949 l 263 974 q 251 928 261 947 q 224 899 240 908 q 186 889 207 889 z "},"Ю":{"ha":814,"x_min":63,"x_max":751,"o":"m 547 -17 q 443 -3 489 -17 q 371 53 397 10 q 344 182 344 96 l 344 404 l 131 404 l 131 0 l 63 0 l 63 821 l 131 821 l 131 456 l 344 456 l 344 649 q 371 767 344 728 q 444 819 397 807 q 549 832 490 832 q 654 819 608 832 q 726 766 700 806 q 751 649 751 726 l 751 182 q 726 52 751 94 q 653 -3 700 10 q 547 -17 607 -17 m 549 26 q 617 36 588 26 q 665 74 647 46 q 683 161 683 103 l 683 654 q 665 741 683 713 q 617 778 647 769 q 549 788 588 788 q 481 778 511 788 q 432 741 450 769 q 414 654 414 713 l 414 161 q 432 74 414 103 q 481 36 450 46 q 549 26 511 26 z "},"J":{"ha":294,"x_min":10,"x_max":206,"o":"m 64 -1 q 38 -1 51 -1 q 10 0 24 -1 l 10 50 l 57 49 q 120 65 101 47 q 139 132 139 83 l 139 821 l 206 821 l 206 174 q 195 69 206 108 q 154 15 185 31 q 64 -1 124 -1 z "},"Ј":{"ha":294,"x_min":10,"x_max":206,"o":"m 64 -1 q 38 -1 51 -1 q 10 0 24 -1 l 10 50 l 57 49 q 120 65 101 47 q 139 132 139 83 l 139 821 l 206 821 l 206 174 q 195 69 206 108 q 154 15 185 31 q 64 -1 124 -1 z "},"K":{"ha":507,"x_min":94,"x_max":488,"o":"m 413 0 l 185 428 l 406 821 l 479 821 l 254 425 l 488 0 l 413 0 m 94 0 l 94 821 l 163 821 l 163 0 l 94 0 z "},"К":{"ha":506,"x_min":63,"x_max":471,"o":"m 63 0 l 63 821 l 129 821 l 129 443 l 181 443 l 389 821 l 464 821 l 246 425 l 471 0 l 393 0 l 186 394 l 129 394 l 129 0 l 63 0 z "},"Ķ":{"ha":507,"x_min":94,"x_max":488,"o":"m 413 0 l 185 428 l 406 821 l 479 821 l 254 425 l 488 0 l 413 0 m 94 0 l 94 821 l 163 821 l 163 0 l 94 0 m 229 -215 q 254 -169 243 -192 q 265 -131 265 -147 q 259 -117 265 -122 q 247 -104 253 -111 q 240 -85 240 -97 q 251 -62 240 -72 q 276 -53 261 -53 q 305 -65 294 -53 q 315 -92 315 -78 q 307 -129 315 -107 q 286 -174 299 -151 q 260 -215 274 -197 l 229 -215 z "},"Ќ":{"ha":506,"x_min":63,"x_max":471,"o":"m 63 0 l 63 821 l 129 821 l 129 443 l 181 443 l 389 821 l 464 821 l 246 425 l 471 0 l 393 0 l 186 394 l 129 394 l 129 0 l 63 0 m 192 879 l 303 990 l 376 990 l 238 879 l 192 879 z "},"L":{"ha":411,"x_min":94,"x_max":403,"o":"m 94 0 l 94 821 l 163 821 l 163 49 l 403 49 l 403 0 l 94 0 z "},"Ĺ":{"ha":411,"x_min":78,"x_max":403,"o":"m 94 0 l 94 821 l 163 821 l 163 49 l 403 49 l 403 0 l 94 0 m 78 879 l 189 990 l 263 990 l 124 879 l 78 879 z "},"Ľ":{"ha":418,"x_min":94,"x_max":403,"o":"m 94 0 l 94 821 l 163 821 l 163 49 l 403 49 l 403 0 l 94 0 m 307 675 l 331 846 l 378 846 l 336 675 l 307 675 z "},"Ļ":{"ha":411,"x_min":94,"x_max":403,"o":"m 94 0 l 94 821 l 163 821 l 163 49 l 403 49 l 403 0 l 94 0 m 200 -215 q 225 -169 214 -192 q 236 -131 236 -147 q 230 -117 236 -122 q 217 -104 224 -111 q 211 -85 211 -97 q 222 -62 211 -72 q 247 -53 232 -53 q 276 -65 265 -53 q 286 -92 286 -78 q 278 -129 286 -107 q 257 -174 269 -151 q 231 -215 244 -197 l 200 -215 z "},"Љ":{"ha":886,"x_min":24,"x_max":824,"o":"m 24 0 l 24 40 q 69 65 51 40 q 92 144 88 90 l 138 821 l 515 821 l 515 0 l 447 0 l 447 769 l 204 769 l 158 124 q 153 86 156 107 q 140 47 150 65 q 112 16 131 29 q 61 0 93 3 l 24 0 m 515 40 l 642 40 q 717 60 692 40 q 750 117 742 81 q 758 204 758 154 l 758 411 q 751 484 758 450 q 719 539 743 518 q 639 560 694 560 l 515 560 l 515 40 m 447 0 l 447 818 l 514 818 l 514 604 l 656 604 q 754 585 718 604 q 807 526 790 565 q 824 428 824 488 l 824 201 q 814 108 824 147 q 784 46 804 69 q 731 11 764 22 q 651 0 699 0 l 447 0 z "},"Ł":{"ha":513,"x_min":60,"x_max":453,"o":"m 146 0 l 146 242 l 60 203 l 60 244 l 146 283 l 146 819 l 213 819 l 213 313 l 353 378 l 353 336 l 213 272 l 213 49 l 453 49 l 453 0 l 146 0 z "},"M":{"ha":735,"x_min":94,"x_max":639,"o":"m 94 0 l 94 821 l 172 821 l 367 117 l 567 821 l 639 821 l 639 0 l 578 0 l 578 678 l 393 0 l 342 0 l 157 678 l 157 0 l 94 0 z "},"N":{"ha":592,"x_min":94,"x_max":497,"o":"m 94 0 l 94 821 l 154 821 l 436 142 l 436 821 l 497 821 l 497 0 l 435 0 l 157 660 l 157 0 l 94 0 z "},"Ń":{"ha":592,"x_min":94,"x_max":497,"o":"m 94 0 l 94 821 l 154 821 l 436 142 l 436 821 l 497 821 l 497 0 l 435 0 l 157 660 l 157 0 l 94 0 m 239 879 l 350 990 l 424 990 l 285 879 l 239 879 z "},"Ň":{"ha":592,"x_min":94,"x_max":497,"o":"m 94 0 l 94 821 l 154 821 l 436 142 l 436 821 l 497 821 l 497 0 l 435 0 l 157 660 l 157 0 l 94 0 m 276 874 l 160 982 l 210 982 l 301 910 l 393 983 l 442 983 l 325 874 l 276 874 z "},"Ņ":{"ha":592,"x_min":94,"x_max":497,"o":"m 94 0 l 94 821 l 154 821 l 436 142 l 436 821 l 497 821 l 497 0 l 435 0 l 157 660 l 157 0 l 94 0 m 247 -215 q 272 -169 261 -192 q 283 -131 283 -147 q 277 -117 283 -122 q 265 -104 271 -111 q 258 -85 258 -97 q 269 -62 258 -72 q 294 -53 279 -53 q 323 -65 313 -53 q 333 -92 333 -78 q 325 -129 333 -107 q 304 -174 317 -151 q 278 -215 292 -197 l 247 -215 z "},"Њ":{"ha":842,"x_min":63,"x_max":776,"o":"m 63 0 l 63 821 l 129 821 l 129 456 l 400 456 l 400 821 l 468 821 l 468 604 l 608 604 q 708 585 671 604 q 760 526 744 565 q 776 428 776 488 l 776 201 q 767 108 776 147 q 738 46 758 69 q 685 11 718 22 q 604 0 651 0 l 400 0 l 400 403 l 129 403 l 129 0 l 63 0 m 468 40 l 593 40 q 669 60 644 40 q 701 117 693 81 q 710 203 710 154 l 710 401 q 703 483 710 447 q 671 539 696 518 q 590 560 646 560 l 468 560 l 468 40 z "},"Ñ":{"ha":592,"x_min":94,"x_max":497,"o":"m 94 0 l 94 821 l 154 821 l 436 142 l 436 821 l 497 821 l 497 0 l 435 0 l 157 660 l 157 0 l 94 0 m 358 889 q 328 894 340 889 q 296 913 315 900 q 270 930 285 921 q 239 939 256 939 q 211 927 222 939 q 196 890 200 915 l 165 890 q 188 951 168 928 q 240 975 207 975 q 274 967 258 975 q 306 949 290 960 q 332 933 319 940 q 358 926 344 926 q 387 938 375 926 q 403 974 399 949 l 435 974 q 423 928 433 947 q 396 899 413 908 q 358 889 379 889 z "},"O":{"ha":565,"x_min":81,"x_max":483,"o":"m 281 -17 q 178 -3 222 -17 q 107 52 133 10 q 81 181 81 94 l 81 650 q 107 768 81 729 q 179 819 133 807 q 283 832 225 832 q 387 819 342 832 q 458 767 432 806 q 483 650 483 728 l 483 181 q 458 51 483 93 q 386 -3 432 10 q 281 -17 340 -17 m 282 26 q 352 36 322 26 q 399 76 382 46 q 417 165 417 106 l 417 649 q 399 739 417 710 q 351 778 382 768 q 282 788 321 788 q 211 778 242 788 q 164 739 181 768 q 147 649 147 710 l 147 165 q 164 76 147 106 q 211 36 181 46 q 282 26 242 26 z "},"О":{"ha":565,"x_min":81,"x_max":483,"o":"m 281 -17 q 178 -3 222 -17 q 107 52 133 10 q 81 181 81 94 l 81 650 q 107 768 81 729 q 179 819 133 807 q 283 832 225 832 q 387 819 342 832 q 458 767 432 806 q 483 650 483 728 l 483 181 q 458 51 483 93 q 386 -3 432 10 q 281 -17 340 -17 m 282 26 q 352 36 322 26 q 399 76 382 46 q 417 165 417 106 l 417 649 q 399 739 417 710 q 351 778 382 768 q 282 788 321 788 q 211 778 242 788 q 164 739 181 768 q 147 649 147 710 l 147 165 q 164 76 147 106 q 211 36 181 46 q 282 26 242 26 z "},"Œ":{"ha":806,"x_min":81,"x_max":771,"o":"m 282 -17 q 178 -3 224 -17 q 107 52 133 10 q 81 181 81 94 l 81 650 q 108 768 81 729 q 181 819 135 807 q 283 832 226 832 q 385 819 342 832 q 455 767 429 806 q 481 650 481 728 l 481 181 q 455 51 481 93 q 385 -3 429 10 q 282 -17 340 -17 m 283 26 q 353 36 322 26 q 401 76 383 46 q 418 165 418 106 l 418 649 q 401 739 418 710 q 353 778 383 768 q 283 788 322 788 q 213 778 243 788 q 165 739 182 768 q 147 649 147 710 l 147 165 q 165 76 147 106 q 213 36 182 46 q 283 26 243 26 m 418 0 l 418 821 l 771 821 l 771 771 l 485 771 l 485 457 l 713 457 l 713 404 l 485 404 l 485 49 l 771 49 l 771 0 l 418 0 z "},"Ó":{"ha":565,"x_min":81,"x_max":483,"o":"m 281 -17 q 178 -3 222 -17 q 107 52 133 10 q 81 181 81 94 l 81 650 q 107 768 81 729 q 179 819 133 807 q 283 832 225 832 q 387 819 342 832 q 458 767 432 806 q 483 650 483 728 l 483 181 q 458 51 483 93 q 386 -3 432 10 q 281 -17 340 -17 m 282 26 q 352 36 322 26 q 399 76 382 46 q 417 165 417 106 l 417 649 q 399 739 417 710 q 351 778 382 768 q 282 788 321 788 q 211 778 242 788 q 164 739 181 768 q 147 649 147 710 l 147 165 q 164 76 147 106 q 211 36 181 46 q 282 26 242 26 m 221 879 l 332 990 l 406 990 l 267 879 l 221 879 z "},"Ǒ":{"ha":565,"x_min":81,"x_max":483,"o":"m 281 -17 q 178 -3 222 -17 q 107 52 133 10 q 81 181 81 94 l 81 650 q 107 768 81 729 q 179 819 133 807 q 283 832 225 832 q 387 819 342 832 q 458 767 432 806 q 483 650 483 728 l 483 181 q 458 51 483 93 q 386 -3 432 10 q 281 -17 340 -17 m 282 26 q 352 36 322 26 q 399 76 382 46 q 417 165 417 106 l 417 649 q 399 739 417 710 q 351 778 382 768 q 282 788 321 788 q 211 778 242 788 q 164 739 181 768 q 147 649 147 710 l 147 165 q 164 76 147 106 q 211 36 181 46 q 282 26 242 26 m 258 874 l 142 982 l 192 982 l 283 910 l 375 983 l 424 983 l 307 874 l 258 874 z "},"Ô":{"ha":565,"x_min":81,"x_max":483,"o":"m 281 -17 q 178 -3 222 -17 q 107 52 133 10 q 81 181 81 94 l 81 650 q 107 768 81 729 q 179 819 133 807 q 283 832 225 832 q 387 819 342 832 q 458 767 432 806 q 483 650 483 728 l 483 181 q 458 51 483 93 q 386 -3 432 10 q 281 -17 340 -17 m 282 26 q 352 36 322 26 q 399 76 382 46 q 417 165 417 106 l 417 649 q 399 739 417 710 q 351 778 382 768 q 282 788 321 788 q 211 778 242 788 q 164 739 181 768 q 147 649 147 710 l 147 165 q 164 76 147 106 q 211 36 181 46 q 282 26 242 26 m 136 874 l 258 994 l 307 994 l 429 874 l 382 874 l 282 958 l 185 874 l 136 874 z "},"Ố":{"ha":565,"x_min":81,"x_max":514,"o":"m 281 -17 q 178 -3 222 -17 q 107 52 133 10 q 81 181 81 94 l 81 650 q 107 768 81 729 q 179 819 133 807 q 283 832 225 832 q 387 819 342 832 q 458 767 432 806 q 483 650 483 728 l 483 181 q 458 51 483 93 q 386 -3 432 10 q 281 -17 340 -17 m 282 26 q 352 36 322 26 q 399 76 382 46 q 417 165 417 106 l 417 649 q 399 739 417 710 q 351 778 382 768 q 282 788 321 788 q 211 778 242 788 q 164 739 181 768 q 147 649 147 710 l 147 165 q 164 76 147 106 q 211 36 181 46 q 282 26 242 26 m 174 871 l 261 961 l 304 961 l 392 871 l 347 871 l 282 928 l 219 871 l 174 871 m 390 926 l 444 1018 l 514 1018 l 432 926 l 390 926 z "},"Ộ":{"ha":565,"x_min":81,"x_max":483,"o":"m 281 -17 q 178 -3 222 -17 q 107 52 133 10 q 81 181 81 94 l 81 650 q 107 768 81 729 q 179 819 133 807 q 283 832 225 832 q 387 819 342 832 q 458 767 432 806 q 483 650 483 728 l 483 181 q 458 51 483 93 q 386 -3 432 10 q 281 -17 340 -17 m 282 26 q 352 36 322 26 q 399 76 382 46 q 417 165 417 106 l 417 649 q 399 739 417 710 q 351 778 382 768 q 282 788 321 788 q 211 778 242 788 q 164 739 181 768 q 147 649 147 710 l 147 165 q 164 76 147 106 q 211 36 181 46 q 282 26 242 26 m 283 -142 q 253 -130 265 -142 q 242 -103 242 -118 q 253 -74 242 -86 q 283 -62 265 -62 q 311 -74 299 -62 q 324 -103 324 -86 q 311 -130 324 -118 q 283 -142 299 -142 m 136 874 l 258 994 l 307 994 l 429 874 l 382 874 l 282 958 l 185 874 l 136 874 z "},"Ồ":{"ha":565,"x_min":81,"x_max":483,"o":"m 281 -17 q 178 -3 222 -17 q 107 52 133 10 q 81 181 81 94 l 81 650 q 107 768 81 729 q 179 819 133 807 q 283 832 225 832 q 387 819 342 832 q 458 767 432 806 q 483 650 483 728 l 483 181 q 458 51 483 93 q 386 -3 432 10 q 281 -17 340 -17 m 282 26 q 352 36 322 26 q 399 76 382 46 q 417 165 417 106 l 417 649 q 399 739 417 710 q 351 778 382 768 q 282 788 321 788 q 211 778 242 788 q 164 739 181 768 q 147 649 147 710 l 147 165 q 164 76 147 106 q 211 36 181 46 q 282 26 242 26 m 174 871 l 261 961 l 304 961 l 392 871 l 347 871 l 282 928 l 219 871 l 174 871 m 426 926 l 344 1017 l 414 1017 l 468 926 l 426 926 z "},"Ổ":{"ha":565,"x_min":81,"x_max":490,"o":"m 281 -17 q 178 -3 222 -17 q 107 52 133 10 q 81 181 81 94 l 81 650 q 107 768 81 729 q 179 819 133 807 q 283 832 225 832 q 387 819 342 832 q 458 767 432 806 q 483 650 483 728 l 483 181 q 458 51 483 93 q 386 -3 432 10 q 281 -17 340 -17 m 282 26 q 352 36 322 26 q 399 76 382 46 q 417 165 417 106 l 417 649 q 399 739 417 710 q 351 778 382 768 q 282 788 321 788 q 211 778 242 788 q 164 739 181 768 q 147 649 147 710 l 147 165 q 164 76 147 106 q 211 36 181 46 q 282 26 242 26 m 174 871 l 261 961 l 304 961 l 392 871 l 347 871 l 282 928 l 219 871 l 174 871 m 407 925 l 407 942 q 418 962 407 956 q 441 975 429 968 q 453 994 453 982 l 453 999 q 445 1017 453 1010 q 424 1025 438 1025 q 399 1001 404 1025 l 367 1008 q 385 1040 369 1029 q 428 1051 400 1051 q 476 1040 461 1051 q 490 1000 490 1028 l 490 997 q 478 967 490 975 q 455 953 467 958 q 443 938 443 949 l 443 925 l 407 925 z "},"Ỗ":{"ha":565,"x_min":81,"x_max":483,"o":"m 281 -17 q 178 -3 222 -17 q 107 52 133 10 q 81 181 81 94 l 81 650 q 107 768 81 729 q 179 819 133 807 q 283 832 225 832 q 387 819 342 832 q 458 767 432 806 q 483 650 483 728 l 483 181 q 458 51 483 93 q 386 -3 432 10 q 281 -17 340 -17 m 282 26 q 352 36 322 26 q 399 76 382 46 q 417 165 417 106 l 417 649 q 399 739 417 710 q 351 778 382 768 q 282 788 321 788 q 211 778 242 788 q 164 739 181 768 q 147 649 147 710 l 147 165 q 164 76 147 106 q 211 36 181 46 q 282 26 242 26 m 174 871 l 261 961 l 304 961 l 392 871 l 347 871 l 282 928 l 219 871 l 174 871 m 324 983 q 301 988 310 983 q 278 1000 292 992 q 259 1012 269 1006 q 238 1018 249 1018 q 217 1010 226 1018 q 206 985 208 1001 l 182 985 q 199 1033 185 1017 q 238 1050 214 1050 q 261 1047 250 1050 q 286 1033 272 1043 q 306 1022 296 1026 q 324 1018 315 1018 q 345 1026 336 1018 q 357 1050 354 1033 l 382 1050 q 372 1014 381 1029 q 351 991 364 999 q 324 983 339 983 z "},"Ö":{"ha":565,"x_min":81,"x_max":483,"o":"m 281 -17 q 178 -3 222 -17 q 107 52 133 10 q 81 181 81 94 l 81 650 q 107 768 81 729 q 179 819 133 807 q 283 832 225 832 q 387 819 342 832 q 458 767 432 806 q 483 650 483 728 l 483 181 q 458 51 483 93 q 386 -3 432 10 q 281 -17 340 -17 m 282 26 q 352 36 322 26 q 399 76 382 46 q 417 165 417 106 l 417 649 q 399 739 417 710 q 351 778 382 768 q 282 788 321 788 q 211 778 242 788 q 164 739 181 768 q 147 649 147 710 l 147 165 q 164 76 147 106 q 211 36 181 46 q 282 26 242 26 m 221 890 q 192 901 204 890 q 181 929 181 913 q 192 956 181 946 q 221 967 204 967 q 249 956 238 967 q 260 929 260 946 q 249 901 260 913 q 221 890 238 890 m 347 890 q 319 901 331 890 q 307 929 307 913 q 319 956 307 946 q 347 967 331 967 q 375 956 364 967 q 386 929 386 946 q 375 901 386 913 q 347 890 364 890 z "},"Ọ":{"ha":565,"x_min":81,"x_max":483,"o":"m 281 -17 q 178 -3 222 -17 q 107 52 133 10 q 81 181 81 94 l 81 650 q 107 768 81 729 q 179 819 133 807 q 283 832 225 832 q 387 819 342 832 q 458 767 432 806 q 483 650 483 728 l 483 181 q 458 51 483 93 q 386 -3 432 10 q 281 -17 340 -17 m 282 26 q 352 36 322 26 q 399 76 382 46 q 417 165 417 106 l 417 649 q 399 739 417 710 q 351 778 382 768 q 282 788 321 788 q 211 778 242 788 q 164 739 181 768 q 147 649 147 710 l 147 165 q 164 76 147 106 q 211 36 181 46 q 282 26 242 26 m 283 -142 q 253 -130 265 -142 q 242 -103 242 -118 q 253 -74 242 -86 q 283 -62 265 -62 q 311 -74 299 -62 q 324 -103 324 -86 q 311 -130 324 -118 q 283 -142 299 -142 z "},"Ò":{"ha":565,"x_min":81,"x_max":483,"o":"m 281 -17 q 178 -3 222 -17 q 107 52 133 10 q 81 181 81 94 l 81 650 q 107 768 81 729 q 179 819 133 807 q 283 832 225 832 q 387 819 342 832 q 458 767 432 806 q 483 650 483 728 l 483 181 q 458 51 483 93 q 386 -3 432 10 q 281 -17 340 -17 m 282 26 q 352 36 322 26 q 399 76 382 46 q 417 165 417 106 l 417 649 q 399 739 417 710 q 351 778 382 768 q 282 788 321 788 q 211 778 242 788 q 164 739 181 768 q 147 649 147 710 l 147 165 q 164 76 147 106 q 211 36 181 46 q 282 26 242 26 m 296 879 l 160 990 l 233 990 l 344 879 l 296 879 z "},"Ỏ":{"ha":565,"x_min":81,"x_max":483,"o":"m 281 -17 q 178 -3 222 -17 q 107 52 133 10 q 81 181 81 94 l 81 650 q 107 768 81 729 q 179 819 133 807 q 283 832 225 832 q 387 819 342 832 q 458 767 432 806 q 483 650 483 728 l 483 181 q 458 51 483 93 q 386 -3 432 10 q 281 -17 340 -17 m 282 26 q 352 36 322 26 q 399 76 382 46 q 417 165 417 106 l 417 649 q 399 739 417 710 q 351 778 382 768 q 282 788 321 788 q 211 778 242 788 q 164 739 181 768 q 147 649 147 710 l 147 165 q 164 76 147 106 q 211 36 181 46 q 282 26 242 26 m 261 871 l 261 894 q 277 924 261 914 q 310 943 293 933 q 326 972 326 953 l 326 976 q 316 1003 326 992 q 282 1015 306 1015 q 244 982 251 1015 l 208 989 q 232 1032 213 1017 q 286 1047 251 1047 q 348 1031 328 1047 q 368 976 368 1015 l 368 974 q 351 931 368 943 q 317 912 335 919 q 300 888 300 904 l 300 871 l 261 871 z "},"Ơ":{"ha":565,"x_min":81,"x_max":489,"o":"m 281 -17 q 178 -3 222 -17 q 107 52 133 10 q 81 181 81 94 l 81 650 q 107 768 81 729 q 179 819 133 807 q 283 832 225 832 q 387 819 342 832 q 458 767 432 806 q 483 650 483 728 l 483 181 q 458 51 483 93 q 386 -3 432 10 q 281 -17 340 -17 m 282 26 q 352 36 322 26 q 399 76 382 46 q 417 165 417 106 l 417 649 q 399 739 417 710 q 351 778 382 768 q 282 788 321 788 q 211 778 242 788 q 164 739 181 768 q 147 649 147 710 l 147 165 q 164 76 147 106 q 211 36 181 46 q 282 26 242 26 m 360 786 l 356 821 l 371 821 q 440 883 440 821 l 440 906 l 489 906 l 489 889 q 456 811 489 838 q 360 786 422 785 z "},"Ớ":{"ha":565,"x_min":81,"x_max":489,"o":"m 281 -17 q 178 -3 222 -17 q 107 52 133 10 q 81 181 81 94 l 81 650 q 107 768 81 729 q 179 819 133 807 q 283 832 225 832 q 387 819 342 832 q 458 767 432 806 q 483 650 483 728 l 483 181 q 458 51 483 93 q 386 -3 432 10 q 281 -17 340 -17 m 282 26 q 352 36 322 26 q 399 76 382 46 q 417 165 417 106 l 417 649 q 399 739 417 710 q 351 778 382 768 q 282 788 321 788 q 211 778 242 788 q 164 739 181 768 q 147 649 147 710 l 147 165 q 164 76 147 106 q 211 36 181 46 q 282 26 242 26 m 360 786 l 356 821 l 371 821 q 440 883 440 821 l 440 906 l 489 906 l 489 889 q 456 811 489 838 q 360 786 422 785 m 221 879 l 332 990 l 406 990 l 267 879 l 221 879 z "},"Ợ":{"ha":565,"x_min":81,"x_max":489,"o":"m 281 -17 q 178 -3 222 -17 q 107 52 133 10 q 81 181 81 94 l 81 650 q 107 768 81 729 q 179 819 133 807 q 283 832 225 832 q 387 819 342 832 q 458 767 432 806 q 483 650 483 728 l 483 181 q 458 51 483 93 q 386 -3 432 10 q 281 -17 340 -17 m 282 26 q 352 36 322 26 q 399 76 382 46 q 417 165 417 106 l 417 649 q 399 739 417 710 q 351 778 382 768 q 282 788 321 788 q 211 778 242 788 q 164 739 181 768 q 147 649 147 710 l 147 165 q 164 76 147 106 q 211 36 181 46 q 282 26 242 26 m 360 786 l 356 821 l 371 821 q 440 883 440 821 l 440 906 l 489 906 l 489 889 q 456 811 489 838 q 360 786 422 785 m 283 -142 q 253 -130 265 -142 q 242 -103 242 -118 q 253 -74 242 -86 q 283 -62 265 -62 q 311 -74 299 -62 q 324 -103 324 -86 q 311 -130 324 -118 q 283 -142 299 -142 z "},"Ờ":{"ha":565,"x_min":81,"x_max":489,"o":"m 281 -17 q 178 -3 222 -17 q 107 52 133 10 q 81 181 81 94 l 81 650 q 107 768 81 729 q 179 819 133 807 q 283 832 225 832 q 387 819 342 832 q 458 767 432 806 q 483 650 483 728 l 483 181 q 458 51 483 93 q 386 -3 432 10 q 281 -17 340 -17 m 282 26 q 352 36 322 26 q 399 76 382 46 q 417 165 417 106 l 417 649 q 399 739 417 710 q 351 778 382 768 q 282 788 321 788 q 211 778 242 788 q 164 739 181 768 q 147 649 147 710 l 147 165 q 164 76 147 106 q 211 36 181 46 q 282 26 242 26 m 360 786 l 356 821 l 371 821 q 440 883 440 821 l 440 906 l 489 906 l 489 889 q 456 811 489 838 q 360 786 422 785 m 296 879 l 160 990 l 233 990 l 344 879 l 296 879 z "},"Ở":{"ha":565,"x_min":81,"x_max":489,"o":"m 281 -17 q 178 -3 222 -17 q 107 52 133 10 q 81 181 81 94 l 81 650 q 107 768 81 729 q 179 819 133 807 q 283 832 225 832 q 387 819 342 832 q 458 767 432 806 q 483 650 483 728 l 483 181 q 458 51 483 93 q 386 -3 432 10 q 281 -17 340 -17 m 282 26 q 352 36 322 26 q 399 76 382 46 q 417 165 417 106 l 417 649 q 399 739 417 710 q 351 778 382 768 q 282 788 321 788 q 211 778 242 788 q 164 739 181 768 q 147 649 147 710 l 147 165 q 164 76 147 106 q 211 36 181 46 q 282 26 242 26 m 360 786 l 356 821 l 371 821 q 440 883 440 821 l 440 906 l 489 906 l 489 889 q 456 811 489 838 q 360 786 422 785 m 261 871 l 261 894 q 277 924 261 914 q 310 943 293 933 q 326 972 326 953 l 326 976 q 316 1003 326 992 q 282 1015 306 1015 q 244 982 251 1015 l 208 989 q 232 1032 213 1017 q 286 1047 251 1047 q 348 1031 328 1047 q 368 976 368 1015 l 368 974 q 351 931 368 943 q 317 912 335 919 q 300 888 300 904 l 300 871 l 261 871 z "},"Ỡ":{"ha":565,"x_min":81,"x_max":489,"o":"m 281 -17 q 178 -3 222 -17 q 107 52 133 10 q 81 181 81 94 l 81 650 q 107 768 81 729 q 179 819 133 807 q 283 832 225 832 q 387 819 342 832 q 458 767 432 806 q 483 650 483 728 l 483 181 q 458 51 483 93 q 386 -3 432 10 q 281 -17 340 -17 m 282 26 q 352 36 322 26 q 399 76 382 46 q 417 165 417 106 l 417 649 q 399 739 417 710 q 351 778 382 768 q 282 788 321 788 q 211 778 242 788 q 164 739 181 768 q 147 649 147 710 l 147 165 q 164 76 147 106 q 211 36 181 46 q 282 26 242 26 m 360 786 l 356 821 l 371 821 q 440 883 440 821 l 440 906 l 489 906 l 489 889 q 456 811 489 838 q 360 786 422 785 m 340 889 q 310 894 322 889 q 278 913 297 900 q 252 930 267 921 q 221 939 238 939 q 193 927 204 939 q 178 890 182 915 l 147 890 q 169 951 150 928 q 222 975 189 975 q 256 967 240 975 q 288 949 272 960 q 314 933 301 940 q 340 926 326 926 q 369 938 357 926 q 385 974 381 949 l 417 974 q 405 928 415 947 q 378 899 394 908 q 340 889 361 889 z "},"Ő":{"ha":565,"x_min":81,"x_max":483,"o":"m 281 -17 q 178 -3 222 -17 q 107 52 133 10 q 81 181 81 94 l 81 650 q 107 768 81 729 q 179 819 133 807 q 283 832 225 832 q 387 819 342 832 q 458 767 432 806 q 483 650 483 728 l 483 181 q 458 51 483 93 q 386 -3 432 10 q 281 -17 340 -17 m 282 26 q 352 36 322 26 q 399 76 382 46 q 417 165 417 106 l 417 649 q 399 739 417 710 q 351 778 382 768 q 282 788 321 788 q 211 778 242 788 q 164 739 181 768 q 147 649 147 710 l 147 165 q 164 76 147 106 q 211 36 181 46 q 282 26 242 26 m 211 872 l 254 999 l 318 999 l 243 872 l 211 872 m 301 872 l 349 999 l 413 999 l 336 872 l 301 872 z "},"Ō":{"ha":565,"x_min":81,"x_max":483,"o":"m 281 -17 q 178 -3 222 -17 q 107 52 133 10 q 81 181 81 94 l 81 650 q 107 768 81 729 q 179 819 133 807 q 283 832 225 832 q 387 819 342 832 q 458 767 432 806 q 483 650 483 728 l 483 181 q 458 51 483 93 q 386 -3 432 10 q 281 -17 340 -17 m 282 26 q 352 36 322 26 q 399 76 382 46 q 417 165 417 106 l 417 649 q 399 739 417 710 q 351 778 382 768 q 282 788 321 788 q 211 778 242 788 q 164 739 181 768 q 147 649 147 710 l 147 165 q 164 76 147 106 q 211 36 181 46 q 282 26 242 26 m 157 906 l 157 944 l 407 944 l 407 906 l 157 906 z "},"Ω":{"ha":833,"x_min":65,"x_max":779,"o":"m 65 0 l 65 56 l 296 50 l 286 57 q 165 188 207 121 q 109 317 124 254 q 94 426 94 381 q 115 574 94 508 q 178 686 136 639 q 281 758 219 733 q 424 783 343 783 q 565 758 504 783 q 668 685 626 732 q 731 574 710 639 q 751 431 751 510 q 735 319 751 382 q 678 190 719 257 q 558 57 636 122 l 547 50 l 779 56 l 779 0 l 472 0 l 472 39 q 580 140 539 89 q 643 243 621 192 q 674 341 665 294 q 682 425 682 388 q 651 589 682 518 q 563 699 621 660 q 424 739 506 739 q 283 699 342 739 q 192 585 224 658 q 161 411 161 511 q 170 335 161 379 q 201 240 179 290 q 265 138 224 190 q 372 39 306 86 l 372 0 l 65 0 z "},"Ø":{"ha":589,"x_min":50,"x_max":517,"o":"m 50 -19 l 472 821 l 517 821 l 93 -19 l 50 -19 m 293 -17 q 190 -3 235 -17 q 118 52 144 10 q 92 181 92 94 l 92 650 q 119 768 92 729 q 192 819 146 807 q 296 832 238 832 q 399 819 354 832 q 470 767 444 806 q 496 650 496 728 l 496 181 q 470 51 496 93 q 399 -3 444 10 q 293 -17 354 -17 m 294 26 q 365 36 335 26 q 411 75 394 46 q 428 165 428 104 l 428 649 q 411 740 428 710 q 364 778 394 769 q 294 788 333 788 q 225 778 256 788 q 178 740 194 769 q 161 649 161 710 l 161 165 q 178 75 161 104 q 225 36 194 46 q 294 26 256 26 z "},"Õ":{"ha":565,"x_min":81,"x_max":483,"o":"m 281 -17 q 178 -3 222 -17 q 107 52 133 10 q 81 181 81 94 l 81 650 q 107 768 81 729 q 179 819 133 807 q 283 832 225 832 q 387 819 342 832 q 458 767 432 806 q 483 650 483 728 l 483 181 q 458 51 483 93 q 386 -3 432 10 q 281 -17 340 -17 m 282 26 q 352 36 322 26 q 399 76 382 46 q 417 165 417 106 l 417 649 q 399 739 417 710 q 351 778 382 768 q 282 788 321 788 q 211 778 242 788 q 164 739 181 768 q 147 649 147 710 l 147 165 q 164 76 147 106 q 211 36 181 46 q 282 26 242 26 m 340 889 q 310 894 322 889 q 278 913 297 900 q 252 930 267 921 q 221 939 238 939 q 193 927 204 939 q 178 890 182 915 l 147 890 q 169 951 150 928 q 222 975 189 975 q 256 967 240 975 q 288 949 272 960 q 314 933 301 940 q 340 926 326 926 q 369 938 357 926 q 385 974 381 949 l 417 974 q 405 928 415 947 q 378 899 394 908 q 340 889 361 889 z "},"P":{"ha":531,"x_min":94,"x_max":493,"o":"m 94 0 l 94 821 l 340 821 q 450 789 407 821 q 493 685 493 757 l 493 532 q 480 447 493 486 q 429 384 467 408 q 318 360 392 360 l 165 360 l 165 0 l 94 0 m 165 403 l 301 403 q 394 437 363 403 q 426 542 426 471 l 426 661 q 397 751 426 722 q 326 779 367 779 l 165 779 l 165 403 z "},"П":{"ha":511,"x_min":63,"x_max":449,"o":"m 63 0 l 63 821 l 449 821 l 449 0 l 376 0 l 376 769 l 133 769 l 133 0 l 63 0 z "},"Q":{"ha":567,"x_min":81,"x_max":486,"o":"m 425 -160 l 339 -12 q 311 -15 325 -14 q 281 -15 297 -15 q 178 -2 224 -15 q 107 53 133 11 q 81 181 81 96 l 81 650 q 107 768 81 729 q 180 819 133 807 q 285 832 226 832 q 390 819 344 832 q 460 767 435 806 q 486 650 486 728 l 486 182 q 463 58 486 99 q 397 3 439 18 l 475 -129 l 425 -160 m 283 28 q 354 37 324 28 q 401 76 385 46 q 418 167 418 106 l 418 649 q 401 740 418 710 q 353 778 385 769 q 283 788 322 788 q 214 778 244 788 q 166 740 183 769 q 149 649 149 710 l 149 167 q 166 76 149 106 q 214 37 183 46 q 283 28 244 28 z "},"R":{"ha":574,"x_min":94,"x_max":528,"o":"m 94 0 l 94 821 l 342 821 q 451 789 408 821 q 494 685 494 757 l 494 551 q 451 440 494 478 q 333 401 407 403 l 333 403 q 401 373 379 403 q 442 282 424 343 l 528 0 l 456 0 l 376 278 q 357 329 369 304 q 326 370 344 354 q 279 386 308 386 l 164 386 l 164 0 l 94 0 m 164 433 l 303 433 q 397 462 365 433 q 428 560 428 490 l 428 674 q 398 754 428 729 q 326 779 368 779 l 164 779 l 164 433 z "},"Ŕ":{"ha":574,"x_min":94,"x_max":528,"o":"m 94 0 l 94 821 l 342 821 q 451 789 408 821 q 494 685 494 757 l 494 551 q 451 440 494 478 q 333 401 407 403 l 333 403 q 401 373 379 403 q 442 282 424 343 l 528 0 l 456 0 l 376 278 q 357 329 369 304 q 326 370 344 354 q 279 386 308 386 l 164 386 l 164 0 l 94 0 m 164 433 l 303 433 q 397 462 365 433 q 428 560 428 490 l 428 674 q 398 754 428 729 q 326 779 368 779 l 164 779 l 164 433 m 225 879 l 336 990 l 410 990 l 271 879 l 225 879 z "},"Ř":{"ha":574,"x_min":94,"x_max":528,"o":"m 94 0 l 94 821 l 342 821 q 451 789 408 821 q 494 685 494 757 l 494 551 q 451 440 494 478 q 333 401 407 403 l 333 403 q 401 373 379 403 q 442 282 424 343 l 528 0 l 456 0 l 376 278 q 357 329 369 304 q 326 370 344 354 q 279 386 308 386 l 164 386 l 164 0 l 94 0 m 164 433 l 303 433 q 397 462 365 433 q 428 560 428 490 l 428 674 q 398 754 428 729 q 326 779 368 779 l 164 779 l 164 433 m 261 874 l 144 982 l 194 982 l 286 910 l 378 983 l 426 983 l 310 874 l 261 874 z "},"Ŗ":{"ha":574,"x_min":94,"x_max":528,"o":"m 94 0 l 94 821 l 342 821 q 451 789 408 821 q 494 685 494 757 l 494 551 q 451 440 494 478 q 333 401 407 403 l 333 403 q 401 373 379 403 q 442 282 424 343 l 528 0 l 456 0 l 376 278 q 357 329 369 304 q 326 370 344 354 q 279 386 308 386 l 164 386 l 164 0 l 94 0 m 164 433 l 303 433 q 397 462 365 433 q 428 560 428 490 l 428 674 q 398 754 428 729 q 326 779 368 779 l 164 779 l 164 433 m 253 -215 q 278 -169 267 -192 q 289 -131 289 -147 q 283 -117 289 -122 q 270 -104 276 -111 q 264 -85 264 -97 q 274 -62 264 -72 q 300 -53 285 -53 q 328 -65 318 -53 q 339 -92 339 -78 q 331 -129 339 -107 q 310 -174 322 -151 q 283 -215 297 -197 l 253 -215 z "},"S":{"ha":513,"x_min":57,"x_max":456,"o":"m 250 -8 q 148 13 192 -8 q 81 87 104 35 q 57 232 57 139 l 57 276 q 91 276 74 276 q 124 276 108 276 l 124 228 q 140 113 124 154 q 185 54 156 71 q 251 38 214 38 q 348 74 310 38 q 386 207 386 111 q 367 304 386 271 q 311 357 349 338 q 219 397 274 376 q 139 440 175 415 q 82 505 103 464 q 61 610 61 546 q 81 728 61 681 q 143 798 100 775 q 256 821 186 821 q 397 774 346 821 q 447 642 447 728 l 447 553 q 415 553 431 553 q 382 553 399 553 l 382 626 q 349 732 382 696 q 256 768 317 768 q 158 729 189 768 q 128 613 128 690 q 150 523 128 556 q 206 472 172 490 q 279 439 240 454 q 381 390 342 415 q 438 324 419 364 q 456 214 456 285 q 429 82 456 131 q 357 13 403 33 q 250 -8 311 -8 z "},"Ś":{"ha":513,"x_min":57,"x_max":456,"o":"m 250 -8 q 148 13 192 -8 q 81 87 104 35 q 57 232 57 139 l 57 276 q 91 276 74 276 q 124 276 108 276 l 124 228 q 140 113 124 154 q 185 54 156 71 q 251 38 214 38 q 348 74 310 38 q 386 207 386 111 q 367 304 386 271 q 311 357 349 338 q 219 397 274 376 q 139 440 175 415 q 82 505 103 464 q 61 610 61 546 q 81 728 61 681 q 143 798 100 775 q 256 821 186 821 q 397 774 346 821 q 447 642 447 728 l 447 553 q 415 553 431 553 q 382 553 399 553 l 382 626 q 349 732 382 696 q 256 768 317 768 q 158 729 189 768 q 128 613 128 690 q 150 523 128 556 q 206 472 172 490 q 279 439 240 454 q 381 390 342 415 q 438 324 419 364 q 456 214 456 285 q 429 82 456 131 q 357 13 403 33 q 250 -8 311 -8 m 194 879 l 306 990 l 379 990 l 240 879 l 194 879 z "},"Š":{"ha":513,"x_min":57,"x_max":456,"o":"m 250 -8 q 148 13 192 -8 q 81 87 104 35 q 57 232 57 139 l 57 276 q 91 276 74 276 q 124 276 108 276 l 124 228 q 140 113 124 154 q 185 54 156 71 q 251 38 214 38 q 348 74 310 38 q 386 207 386 111 q 367 304 386 271 q 311 357 349 338 q 219 397 274 376 q 139 440 175 415 q 82 505 103 464 q 61 610 61 546 q 81 728 61 681 q 143 798 100 775 q 256 821 186 821 q 397 774 346 821 q 447 642 447 728 l 447 553 q 415 553 431 553 q 382 553 399 553 l 382 626 q 349 732 382 696 q 256 768 317 768 q 158 729 189 768 q 128 613 128 690 q 150 523 128 556 q 206 472 172 490 q 279 439 240 454 q 381 390 342 415 q 438 324 419 364 q 456 214 456 285 q 429 82 456 131 q 357 13 403 33 q 250 -8 311 -8 m 232 874 l 115 982 l 165 982 l 257 910 l 349 983 l 397 983 l 281 874 l 232 874 z "},"Ş":{"ha":513,"x_min":57,"x_max":456,"o":"m 250 -8 q 148 13 192 -8 q 81 87 104 35 q 57 232 57 139 l 57 276 q 91 276 74 276 q 124 276 108 276 l 124 228 q 140 113 124 154 q 185 54 156 71 q 251 38 214 38 q 348 74 310 38 q 386 207 386 111 q 367 304 386 271 q 311 357 349 338 q 219 397 274 376 q 139 440 175 415 q 82 505 103 464 q 61 610 61 546 q 81 728 61 681 q 143 798 100 775 q 256 821 186 821 q 397 774 346 821 q 447 642 447 728 l 447 553 q 415 553 431 553 q 382 553 399 553 l 382 626 q 349 732 382 696 q 256 768 317 768 q 158 729 189 768 q 128 613 128 690 q 150 523 128 556 q 206 472 172 490 q 279 439 240 454 q 381 390 342 415 q 438 324 419 364 q 456 214 456 285 q 429 82 456 131 q 357 13 403 33 q 250 -8 311 -8 m 250 -196 q 213 -190 229 -196 q 186 -178 197 -183 l 197 -150 q 222 -160 206 -156 q 247 -165 238 -165 q 290 -153 276 -165 q 304 -122 304 -140 q 291 -92 304 -103 q 258 -82 278 -82 q 239 -85 249 -82 q 221 -96 229 -89 l 196 -82 l 240 0 l 274 0 l 236 -71 l 228 -68 q 250 -59 238 -61 q 274 -57 263 -57 q 326 -77 307 -57 q 346 -119 346 -97 q 321 -174 346 -153 q 250 -196 296 -196 z "},"Ș":{"ha":513,"x_min":57,"x_max":456,"o":"m 250 -8 q 148 13 192 -8 q 81 87 104 35 q 57 232 57 139 l 57 276 q 91 276 74 276 q 124 276 108 276 l 124 228 q 140 113 124 154 q 185 54 156 71 q 251 38 214 38 q 348 74 310 38 q 386 207 386 111 q 367 304 386 271 q 311 357 349 338 q 219 397 274 376 q 139 440 175 415 q 82 505 103 464 q 61 610 61 546 q 81 728 61 681 q 143 798 100 775 q 256 821 186 821 q 397 774 346 821 q 447 642 447 728 l 447 553 q 415 553 431 553 q 382 553 399 553 l 382 626 q 349 732 382 696 q 256 768 317 768 q 158 729 189 768 q 128 613 128 690 q 150 523 128 556 q 206 472 172 490 q 279 439 240 454 q 381 390 342 415 q 438 324 419 364 q 456 214 456 285 q 429 82 456 131 q 357 13 403 33 q 250 -8 311 -8 m 208 -215 q 233 -169 222 -192 q 244 -131 244 -147 q 238 -117 244 -122 q 226 -104 232 -111 q 219 -85 219 -97 q 230 -62 219 -72 q 256 -53 240 -53 q 284 -65 274 -53 q 294 -92 294 -78 q 286 -129 294 -107 q 265 -174 278 -151 q 239 -215 253 -197 l 208 -215 z "},"Ш":{"ha":821,"x_min":63,"x_max":758,"o":"m 63 0 l 63 821 l 132 821 l 132 50 l 375 50 l 375 821 l 446 821 l 446 50 l 689 50 l 689 821 l 758 821 l 758 0 l 63 0 z "},"Щ":{"ha":850,"x_min":63,"x_max":796,"o":"m 736 -110 l 736 0 l 63 0 l 63 821 l 132 821 l 132 50 l 375 50 l 375 821 l 446 821 l 446 50 l 689 50 l 689 821 l 758 821 l 758 38 l 796 38 l 796 -110 l 736 -110 z "},"Ь":{"ha":501,"x_min":63,"x_max":439,"o":"m 63 0 l 63 818 l 129 818 l 129 604 l 271 604 q 370 585 333 604 q 423 526 407 565 q 439 428 439 488 l 439 201 q 430 108 439 147 q 401 46 421 69 q 347 11 381 22 q 267 0 314 0 l 63 0 m 129 40 l 256 40 q 331 60 307 40 q 364 117 356 81 q 372 204 372 154 l 372 411 q 365 484 372 450 q 333 539 358 518 q 253 560 308 560 l 129 560 l 129 40 z "},"T":{"ha":383,"x_min":15,"x_max":368,"o":"m 157 0 l 157 771 l 15 771 l 15 821 l 368 821 l 368 771 l 224 771 l 224 0 l 157 0 z "},"Ŧ":{"ha":411,"x_min":15,"x_max":368,"o":"m 83 575 l 83 619 l 321 619 l 321 575 l 83 575 m 157 0 l 157 771 l 15 771 l 15 821 l 368 821 l 368 771 l 224 771 l 224 0 l 157 0 z "},"Ť":{"ha":383,"x_min":15,"x_max":368,"o":"m 157 0 l 157 771 l 15 771 l 15 821 l 368 821 l 368 771 l 224 771 l 224 0 l 157 0 m 167 874 l 50 982 l 100 982 l 192 910 l 283 983 l 332 983 l 215 874 l 167 874 z "},"Ţ":{"ha":383,"x_min":15,"x_max":368,"o":"m 157 0 l 157 771 l 15 771 l 15 821 l 368 821 l 368 771 l 224 771 l 224 0 l 157 0 m 186 -196 q 149 -190 165 -196 q 122 -178 133 -183 l 133 -150 q 158 -160 142 -156 q 183 -165 174 -165 q 226 -153 213 -165 q 240 -122 240 -140 q 227 -92 240 -103 q 194 -82 214 -82 q 175 -85 185 -82 q 157 -96 165 -89 l 132 -82 l 176 0 l 210 0 l 172 -71 l 164 -68 q 186 -59 174 -61 q 210 -57 199 -57 q 263 -77 243 -57 q 282 -119 282 -97 q 257 -174 282 -153 q 186 -196 232 -196 z "},"Ț":{"ha":383,"x_min":15,"x_max":368,"o":"m 157 0 l 157 771 l 15 771 l 15 821 l 368 821 l 368 771 l 224 771 l 224 0 l 157 0 m 144 -215 q 169 -169 158 -192 q 181 -131 181 -147 q 174 -117 181 -122 q 162 -104 168 -111 q 156 -85 156 -97 q 166 -62 156 -72 q 192 -53 176 -53 q 220 -65 210 -53 q 231 -92 231 -78 q 222 -129 231 -107 q 201 -174 214 -151 q 175 -215 189 -197 l 144 -215 z "},"Т":{"ha":383,"x_min":15,"x_max":368,"o":"m 157 0 l 157 771 l 15 771 l 15 821 l 368 821 l 368 771 l 224 771 l 224 0 l 157 0 z "},"Þ":{"ha":522,"x_min":63,"x_max":460,"o":"m 63 0 l 63 821 l 132 821 l 132 664 l 307 664 q 417 631 374 664 q 460 528 460 599 l 460 375 q 447 290 460 329 q 396 226 433 251 q 285 201 358 201 l 132 201 l 132 0 l 63 0 m 132 243 l 267 243 q 362 278 331 243 q 393 383 393 313 l 393 503 q 363 594 393 565 q 293 622 333 622 l 132 622 l 132 243 z "},"Ц":{"ha":546,"x_min":63,"x_max":486,"o":"m 428 -110 l 428 0 l 63 0 l 63 821 l 133 821 l 133 51 l 379 51 l 379 821 l 450 821 l 450 39 l 486 39 l 486 -110 l 428 -110 z "},"Ћ":{"ha":614,"x_min":24,"x_max":551,"o":"m 174 0 l 174 769 l 24 769 l 24 821 l 393 821 l 393 769 l 243 769 l 243 533 q 292 579 256 557 q 385 601 328 601 q 494 576 458 601 q 541 508 531 551 q 551 415 551 465 l 551 0 l 483 0 l 483 415 q 475 487 483 456 q 442 535 467 518 q 365 553 417 553 q 279 526 308 553 q 243 472 250 499 l 243 0 l 174 0 z "},"U":{"ha":576,"x_min":88,"x_max":489,"o":"m 289 -17 q 211 -10 247 -17 q 147 15 175 -4 q 103 72 119 35 q 88 168 88 108 l 88 821 l 156 821 l 156 157 q 174 76 156 104 q 223 38 193 47 q 289 28 253 28 q 354 38 324 28 q 403 76 385 47 q 422 157 422 104 l 422 821 l 489 821 l 489 168 q 473 72 489 108 q 430 15 457 35 q 366 -10 403 -4 q 289 -17 329 -17 z "},"У":{"ha":426,"x_min":13,"x_max":414,"o":"m 96 -10 q 57 -7 75 -10 q 26 -1 39 -4 l 26 39 q 46 36 35 38 q 71 35 57 35 q 108 41 88 35 q 143 68 128 47 q 160 100 153 82 q 169 144 167 118 l 13 821 l 83 821 l 215 210 l 214 210 l 350 821 l 414 821 l 261 169 q 203 31 239 72 q 96 -10 167 -10 z "},"Ú":{"ha":576,"x_min":88,"x_max":489,"o":"m 289 -17 q 211 -10 247 -17 q 147 15 175 -4 q 103 72 119 35 q 88 168 88 108 l 88 821 l 156 821 l 156 157 q 174 76 156 104 q 223 38 193 47 q 289 28 253 28 q 354 38 324 28 q 403 76 385 47 q 422 157 422 104 l 422 821 l 489 821 l 489 168 q 473 72 489 108 q 430 15 457 35 q 366 -10 403 -4 q 289 -17 329 -17 m 226 879 l 338 990 l 411 990 l 272 879 l 226 879 z "},"Ǔ":{"ha":576,"x_min":88,"x_max":489,"o":"m 289 -17 q 211 -10 247 -17 q 147 15 175 -4 q 103 72 119 35 q 88 168 88 108 l 88 821 l 156 821 l 156 157 q 174 76 156 104 q 223 38 193 47 q 289 28 253 28 q 354 38 324 28 q 403 76 385 47 q 422 157 422 104 l 422 821 l 489 821 l 489 168 q 473 72 489 108 q 430 15 457 35 q 366 -10 403 -4 q 289 -17 329 -17 m 263 874 l 146 982 l 196 982 l 288 910 l 379 983 l 428 983 l 311 874 l 263 874 z "},"Û":{"ha":576,"x_min":88,"x_max":489,"o":"m 289 -17 q 211 -10 247 -17 q 147 15 175 -4 q 103 72 119 35 q 88 168 88 108 l 88 821 l 156 821 l 156 157 q 174 76 156 104 q 223 38 193 47 q 289 28 253 28 q 354 38 324 28 q 403 76 385 47 q 422 157 422 104 l 422 821 l 489 821 l 489 168 q 473 72 489 108 q 430 15 457 35 q 366 -10 403 -4 q 289 -17 329 -17 m 142 874 l 264 994 l 313 994 l 435 874 l 388 874 l 288 958 l 190 874 l 142 874 z "},"Ü":{"ha":576,"x_min":88,"x_max":489,"o":"m 289 -17 q 211 -10 247 -17 q 147 15 175 -4 q 103 72 119 35 q 88 168 88 108 l 88 821 l 156 821 l 156 157 q 174 76 156 104 q 223 38 193 47 q 289 28 253 28 q 354 38 324 28 q 403 76 385 47 q 422 157 422 104 l 422 821 l 489 821 l 489 168 q 473 72 489 108 q 430 15 457 35 q 366 -10 403 -4 q 289 -17 329 -17 m 225 890 q 197 901 208 890 q 185 929 185 913 q 197 956 185 946 q 225 967 208 967 q 253 956 242 967 q 264 929 264 946 q 253 901 264 913 q 225 890 242 890 m 351 890 q 323 901 335 890 q 311 929 311 913 q 323 956 311 946 q 351 967 335 967 q 379 956 368 967 q 390 929 390 946 q 379 901 390 913 q 351 890 368 890 z "},"Ǘ":{"ha":576,"x_min":88,"x_max":489,"o":"m 289 -17 q 211 -10 247 -17 q 147 15 175 -4 q 103 72 119 35 q 88 168 88 108 l 88 821 l 156 821 l 156 157 q 174 76 156 104 q 223 38 193 47 q 289 28 253 28 q 354 38 324 28 q 403 76 385 47 q 422 157 422 104 l 422 821 l 489 821 l 489 168 q 473 72 489 108 q 430 15 457 35 q 366 -10 403 -4 q 289 -17 329 -17 m 225 890 q 197 901 208 890 q 185 929 185 913 q 197 956 185 946 q 225 967 208 967 q 253 956 242 967 q 264 929 264 946 q 253 901 264 913 q 225 890 242 890 m 351 890 q 323 901 335 890 q 311 929 311 913 q 323 956 311 946 q 351 967 335 967 q 379 956 368 967 q 390 929 390 946 q 379 901 390 913 q 351 890 368 890 m 226 996 l 338 1107 l 411 1107 l 272 996 l 226 996 z "},"Ǚ":{"ha":576,"x_min":88,"x_max":489,"o":"m 289 -17 q 211 -10 247 -17 q 147 15 175 -4 q 103 72 119 35 q 88 168 88 108 l 88 821 l 156 821 l 156 157 q 174 76 156 104 q 223 38 193 47 q 289 28 253 28 q 354 38 324 28 q 403 76 385 47 q 422 157 422 104 l 422 821 l 489 821 l 489 168 q 473 72 489 108 q 430 15 457 35 q 366 -10 403 -4 q 289 -17 329 -17 m 225 890 q 197 901 208 890 q 185 929 185 913 q 197 956 185 946 q 225 967 208 967 q 253 956 242 967 q 264 929 264 946 q 253 901 264 913 q 225 890 242 890 m 351 890 q 323 901 335 890 q 311 929 311 913 q 323 956 311 946 q 351 967 335 967 q 379 956 368 967 q 390 929 390 946 q 379 901 390 913 q 351 890 368 890 m 263 990 l 146 1099 l 196 1099 l 288 1026 l 379 1100 l 428 1100 l 311 990 l 263 990 z "},"Ǜ":{"ha":576,"x_min":88,"x_max":489,"o":"m 289 -17 q 211 -10 247 -17 q 147 15 175 -4 q 103 72 119 35 q 88 168 88 108 l 88 821 l 156 821 l 156 157 q 174 76 156 104 q 223 38 193 47 q 289 28 253 28 q 354 38 324 28 q 403 76 385 47 q 422 157 422 104 l 422 821 l 489 821 l 489 168 q 473 72 489 108 q 430 15 457 35 q 366 -10 403 -4 q 289 -17 329 -17 m 225 890 q 197 901 208 890 q 185 929 185 913 q 197 956 185 946 q 225 967 208 967 q 253 956 242 967 q 264 929 264 946 q 253 901 264 913 q 225 890 242 890 m 351 890 q 323 901 335 890 q 311 929 311 913 q 323 956 311 946 q 351 967 335 967 q 379 956 368 967 q 390 929 390 946 q 379 901 390 913 q 351 890 368 890 m 300 996 l 164 1107 l 238 1107 l 349 996 l 300 996 z "},"Ǖ":{"ha":576,"x_min":88,"x_max":489,"o":"m 289 -17 q 211 -10 247 -17 q 147 15 175 -4 q 103 72 119 35 q 88 168 88 108 l 88 821 l 156 821 l 156 157 q 174 76 156 104 q 223 38 193 47 q 289 28 253 28 q 354 38 324 28 q 403 76 385 47 q 422 157 422 104 l 422 821 l 489 821 l 489 168 q 473 72 489 108 q 430 15 457 35 q 366 -10 403 -4 q 289 -17 329 -17 m 225 890 q 197 901 208 890 q 185 929 185 913 q 197 956 185 946 q 225 967 208 967 q 253 956 242 967 q 264 929 264 946 q 253 901 264 913 q 225 890 242 890 m 351 890 q 323 901 335 890 q 311 929 311 913 q 323 956 311 946 q 351 967 335 967 q 379 956 368 967 q 390 929 390 946 q 379 901 390 913 q 351 890 368 890 m 163 1022 l 163 1061 l 413 1061 l 413 1022 l 163 1022 z "},"Ụ":{"ha":576,"x_min":88,"x_max":489,"o":"m 289 -17 q 211 -10 247 -17 q 147 15 175 -4 q 103 72 119 35 q 88 168 88 108 l 88 821 l 156 821 l 156 157 q 174 76 156 104 q 223 38 193 47 q 289 28 253 28 q 354 38 324 28 q 403 76 385 47 q 422 157 422 104 l 422 821 l 489 821 l 489 168 q 473 72 489 108 q 430 15 457 35 q 366 -10 403 -4 q 289 -17 329 -17 m 289 -142 q 259 -130 271 -142 q 247 -103 247 -118 q 259 -74 247 -86 q 289 -62 271 -62 q 317 -74 304 -62 q 329 -103 329 -86 q 317 -130 329 -118 q 289 -142 304 -142 z "},"Ù":{"ha":576,"x_min":88,"x_max":489,"o":"m 289 -17 q 211 -10 247 -17 q 147 15 175 -4 q 103 72 119 35 q 88 168 88 108 l 88 821 l 156 821 l 156 157 q 174 76 156 104 q 223 38 193 47 q 289 28 253 28 q 354 38 324 28 q 403 76 385 47 q 422 157 422 104 l 422 821 l 489 821 l 489 168 q 473 72 489 108 q 430 15 457 35 q 366 -10 403 -4 q 289 -17 329 -17 m 300 879 l 164 990 l 238 990 l 349 879 l 300 879 z "},"Ủ":{"ha":576,"x_min":88,"x_max":489,"o":"m 289 -17 q 211 -10 247 -17 q 147 15 175 -4 q 103 72 119 35 q 88 168 88 108 l 88 821 l 156 821 l 156 157 q 174 76 156 104 q 223 38 193 47 q 289 28 253 28 q 354 38 324 28 q 403 76 385 47 q 422 157 422 104 l 422 821 l 489 821 l 489 168 q 473 72 489 108 q 430 15 457 35 q 366 -10 403 -4 q 289 -17 329 -17 m 267 871 l 267 894 q 283 924 267 914 q 315 943 299 933 q 332 972 332 953 l 332 976 q 322 1003 332 992 q 288 1015 311 1015 q 250 982 257 1015 l 214 989 q 238 1032 218 1017 q 292 1047 257 1047 q 353 1031 333 1047 q 374 976 374 1015 l 374 974 q 357 931 374 943 q 323 912 340 919 q 306 888 306 904 l 306 871 l 267 871 z "},"Ư":{"ha":576,"x_min":88,"x_max":564,"o":"m 289 -17 q 211 -10 247 -17 q 147 15 175 -4 q 103 72 119 35 q 88 168 88 108 l 88 821 l 156 821 l 156 157 q 174 76 156 104 q 223 38 193 47 q 289 28 253 28 q 354 38 324 28 q 403 76 385 47 q 422 157 422 104 l 422 821 l 489 821 l 489 168 q 473 72 489 108 q 430 15 457 35 q 366 -10 403 -4 q 289 -17 329 -17 m 435 786 l 431 821 l 446 821 q 515 883 515 821 l 515 906 l 564 906 l 564 889 q 531 811 564 838 q 435 786 497 785 z "},"Ứ":{"ha":576,"x_min":88,"x_max":564,"o":"m 289 -17 q 211 -10 247 -17 q 147 15 175 -4 q 103 72 119 35 q 88 168 88 108 l 88 821 l 156 821 l 156 157 q 174 76 156 104 q 223 38 193 47 q 289 28 253 28 q 354 38 324 28 q 403 76 385 47 q 422 157 422 104 l 422 821 l 489 821 l 489 168 q 473 72 489 108 q 430 15 457 35 q 366 -10 403 -4 q 289 -17 329 -17 m 435 786 l 431 821 l 446 821 q 515 883 515 821 l 515 906 l 564 906 l 564 889 q 531 811 564 838 q 435 786 497 785 m 226 879 l 338 990 l 411 990 l 272 879 l 226 879 z "},"Ự":{"ha":576,"x_min":88,"x_max":564,"o":"m 289 -17 q 211 -10 247 -17 q 147 15 175 -4 q 103 72 119 35 q 88 168 88 108 l 88 821 l 156 821 l 156 157 q 174 76 156 104 q 223 38 193 47 q 289 28 253 28 q 354 38 324 28 q 403 76 385 47 q 422 157 422 104 l 422 821 l 489 821 l 489 168 q 473 72 489 108 q 430 15 457 35 q 366 -10 403 -4 q 289 -17 329 -17 m 435 786 l 431 821 l 446 821 q 515 883 515 821 l 515 906 l 564 906 l 564 889 q 531 811 564 838 q 435 786 497 785 m 289 -142 q 259 -130 271 -142 q 247 -103 247 -118 q 259 -74 247 -86 q 289 -62 271 -62 q 317 -74 304 -62 q 329 -103 329 -86 q 317 -130 329 -118 q 289 -142 304 -142 z "},"Ừ":{"ha":576,"x_min":88,"x_max":564,"o":"m 289 -17 q 211 -10 247 -17 q 147 15 175 -4 q 103 72 119 35 q 88 168 88 108 l 88 821 l 156 821 l 156 157 q 174 76 156 104 q 223 38 193 47 q 289 28 253 28 q 354 38 324 28 q 403 76 385 47 q 422 157 422 104 l 422 821 l 489 821 l 489 168 q 473 72 489 108 q 430 15 457 35 q 366 -10 403 -4 q 289 -17 329 -17 m 435 786 l 431 821 l 446 821 q 515 883 515 821 l 515 906 l 564 906 l 564 889 q 531 811 564 838 q 435 786 497 785 m 300 879 l 164 990 l 238 990 l 349 879 l 300 879 z "},"Ử":{"ha":576,"x_min":88,"x_max":564,"o":"m 289 -17 q 211 -10 247 -17 q 147 15 175 -4 q 103 72 119 35 q 88 168 88 108 l 88 821 l 156 821 l 156 157 q 174 76 156 104 q 223 38 193 47 q 289 28 253 28 q 354 38 324 28 q 403 76 385 47 q 422 157 422 104 l 422 821 l 489 821 l 489 168 q 473 72 489 108 q 430 15 457 35 q 366 -10 403 -4 q 289 -17 329 -17 m 435 786 l 431 821 l 446 821 q 515 883 515 821 l 515 906 l 564 906 l 564 889 q 531 811 564 838 q 435 786 497 785 m 267 871 l 267 894 q 283 924 267 914 q 315 943 299 933 q 332 972 332 953 l 332 976 q 322 1003 332 992 q 288 1015 311 1015 q 250 982 257 1015 l 214 989 q 238 1032 218 1017 q 292 1047 257 1047 q 353 1031 333 1047 q 374 976 374 1015 l 374 974 q 357 931 374 943 q 323 912 340 919 q 306 888 306 904 l 306 871 l 267 871 z "},"Ữ":{"ha":576,"x_min":88,"x_max":564,"o":"m 289 -17 q 211 -10 247 -17 q 147 15 175 -4 q 103 72 119 35 q 88 168 88 108 l 88 821 l 156 821 l 156 157 q 174 76 156 104 q 223 38 193 47 q 289 28 253 28 q 354 38 324 28 q 403 76 385 47 q 422 157 422 104 l 422 821 l 489 821 l 489 168 q 473 72 489 108 q 430 15 457 35 q 366 -10 403 -4 q 289 -17 329 -17 m 435 786 l 431 821 l 446 821 q 515 883 515 821 l 515 906 l 564 906 l 564 889 q 531 811 564 838 q 435 786 497 785 m 346 889 q 315 894 328 889 q 283 913 303 900 q 258 930 272 921 q 226 939 243 939 q 199 927 210 939 q 183 890 188 915 l 153 890 q 175 951 156 928 q 228 975 194 975 q 262 967 246 975 q 293 949 278 960 q 319 933 307 940 q 346 926 332 926 q 374 938 363 926 q 390 974 386 949 l 422 974 q 410 928 421 947 q 383 899 400 908 q 346 889 367 889 z "},"Ű":{"ha":576,"x_min":88,"x_max":489,"o":"m 289 -17 q 211 -10 247 -17 q 147 15 175 -4 q 103 72 119 35 q 88 168 88 108 l 88 821 l 156 821 l 156 157 q 174 76 156 104 q 223 38 193 47 q 289 28 253 28 q 354 38 324 28 q 403 76 385 47 q 422 157 422 104 l 422 821 l 489 821 l 489 168 q 473 72 489 108 q 430 15 457 35 q 366 -10 403 -4 q 289 -17 329 -17 m 217 872 l 260 999 l 324 999 l 249 872 l 217 872 m 307 872 l 354 999 l 418 999 l 342 872 l 307 872 z "},"Ū":{"ha":576,"x_min":88,"x_max":489,"o":"m 289 -17 q 211 -10 247 -17 q 147 15 175 -4 q 103 72 119 35 q 88 168 88 108 l 88 821 l 156 821 l 156 157 q 174 76 156 104 q 223 38 193 47 q 289 28 253 28 q 354 38 324 28 q 403 76 385 47 q 422 157 422 104 l 422 821 l 489 821 l 489 168 q 473 72 489 108 q 430 15 457 35 q 366 -10 403 -4 q 289 -17 329 -17 m 163 906 l 163 944 l 413 944 l 413 906 l 163 906 z "},"Ų":{"ha":576,"x_min":88,"x_max":489,"o":"m 289 -17 q 211 -10 247 -17 q 147 15 175 -4 q 103 72 119 35 q 88 168 88 108 l 88 821 l 156 821 l 156 157 q 174 76 156 104 q 223 38 193 47 q 289 28 253 28 q 354 38 324 28 q 403 76 385 47 q 422 157 422 104 l 422 821 l 489 821 l 489 168 q 473 72 489 108 q 430 15 457 35 q 366 -10 403 -4 q 289 -17 329 -17 m 304 -185 q 241 -162 268 -185 q 214 -106 214 -140 q 241 -39 214 -67 q 299 0 268 -11 l 338 0 q 282 -44 301 -18 q 263 -97 263 -71 q 281 -139 263 -125 q 317 -153 299 -153 q 339 -149 329 -153 q 354 -143 349 -146 l 365 -169 q 342 -179 357 -174 q 304 -185 326 -185 z "},"Ů":{"ha":576,"x_min":88,"x_max":489,"o":"m 289 -17 q 211 -10 247 -17 q 147 15 175 -4 q 103 72 119 35 q 88 168 88 108 l 88 821 l 156 821 l 156 157 q 174 76 156 104 q 223 38 193 47 q 289 28 253 28 q 354 38 324 28 q 403 76 385 47 q 422 157 422 104 l 422 821 l 489 821 l 489 168 q 473 72 489 108 q 430 15 457 35 q 366 -10 403 -4 q 289 -17 329 -17 m 288 850 q 210 880 240 850 q 181 950 181 910 q 210 1023 181 993 q 288 1053 240 1053 q 365 1023 336 1053 q 394 950 394 993 q 363 880 394 910 q 288 850 331 850 m 288 885 q 338 903 319 885 q 357 950 357 922 q 338 999 357 981 q 288 1017 319 1017 q 238 999 256 1017 q 219 950 219 981 q 238 903 219 922 q 288 885 256 885 z "},"Ў":{"ha":426,"x_min":13,"x_max":414,"o":"m 96 -10 q 57 -7 75 -10 q 26 -1 39 -4 l 26 39 q 46 36 35 38 q 71 35 57 35 q 108 41 88 35 q 143 68 128 47 q 160 100 153 82 q 169 144 167 118 l 13 821 l 83 821 l 215 210 l 214 210 l 350 821 l 414 821 l 261 169 q 203 31 239 72 q 96 -10 167 -10 m 213 875 q 134 895 163 875 q 94 943 106 915 q 81 994 82 971 l 124 994 q 153 933 129 953 q 213 913 178 913 q 274 932 250 913 q 303 994 299 951 l 346 994 q 330 940 343 968 q 288 894 317 913 q 213 875 260 875 z "},"Ũ":{"ha":576,"x_min":88,"x_max":489,"o":"m 289 -17 q 211 -10 247 -17 q 147 15 175 -4 q 103 72 119 35 q 88 168 88 108 l 88 821 l 156 821 l 156 157 q 174 76 156 104 q 223 38 193 47 q 289 28 253 28 q 354 38 324 28 q 403 76 385 47 q 422 157 422 104 l 422 821 l 489 821 l 489 168 q 473 72 489 108 q 430 15 457 35 q 366 -10 403 -4 q 289 -17 329 -17 m 346 889 q 315 894 328 889 q 283 913 303 900 q 258 930 272 921 q 226 939 243 939 q 199 927 210 939 q 183 890 188 915 l 153 890 q 175 951 156 928 q 228 975 194 975 q 262 967 246 975 q 293 949 278 960 q 319 933 307 940 q 346 926 332 926 q 374 938 363 926 q 390 974 386 949 l 422 974 q 410 928 421 947 q 383 899 400 908 q 346 889 367 889 z "},"V":{"ha":458,"x_min":31,"x_max":429,"o":"m 189 0 l 31 821 l 97 821 l 232 97 l 228 97 l 363 821 l 429 821 l 269 0 l 189 0 z "},"В":{"ha":574,"x_min":94,"x_max":500,"o":"m 94 0 l 94 821 l 339 821 q 448 789 404 821 q 492 685 492 757 l 492 583 q 480 515 492 544 q 450 467 468 485 q 401 441 429 447 q 356 433 374 435 l 356 436 q 413 431 386 436 q 457 407 439 425 q 489 357 478 386 q 500 289 500 328 l 500 168 q 478 61 500 97 q 417 13 456 25 q 325 0 378 0 l 94 0 m 163 40 l 314 40 q 376 50 350 40 q 417 88 403 60 q 432 174 432 117 l 432 289 q 394 383 432 360 q 300 406 357 406 l 163 406 l 163 40 m 163 451 l 299 451 q 394 484 361 451 q 426 576 426 517 l 426 674 q 396 753 426 728 q 324 779 365 779 l 163 779 l 163 451 z "},"W":{"ha":744,"x_min":31,"x_max":714,"o":"m 161 0 l 31 821 l 97 821 l 208 99 l 346 821 l 399 821 l 533 100 l 647 821 l 714 821 l 582 0 l 506 0 l 372 663 l 242 0 l 161 0 z "},"Ẃ":{"ha":744,"x_min":31,"x_max":714,"o":"m 161 0 l 31 821 l 97 821 l 208 99 l 346 821 l 399 821 l 533 100 l 647 821 l 714 821 l 582 0 l 506 0 l 372 663 l 242 0 l 161 0 m 311 879 l 422 990 l 496 990 l 357 879 l 311 879 z "},"Ŵ":{"ha":744,"x_min":31,"x_max":714,"o":"m 161 0 l 31 821 l 97 821 l 208 99 l 346 821 l 399 821 l 533 100 l 647 821 l 714 821 l 582 0 l 506 0 l 372 663 l 242 0 l 161 0 m 225 874 l 347 994 l 396 994 l 518 874 l 471 874 l 371 958 l 274 874 l 225 874 z "},"Ẅ":{"ha":744,"x_min":31,"x_max":714,"o":"m 161 0 l 31 821 l 97 821 l 208 99 l 346 821 l 399 821 l 533 100 l 647 821 l 714 821 l 582 0 l 506 0 l 372 663 l 242 0 l 161 0 m 310 890 q 281 901 293 890 q 269 929 269 913 q 281 956 269 946 q 310 967 293 967 q 338 956 326 967 q 349 929 349 946 q 338 901 349 913 q 310 890 326 890 m 436 890 q 408 901 419 890 q 396 929 396 913 q 408 956 396 946 q 436 967 419 967 q 464 956 453 967 q 475 929 475 946 q 464 901 475 913 q 436 890 453 890 z "},"Ẁ":{"ha":744,"x_min":31,"x_max":714,"o":"m 161 0 l 31 821 l 97 821 l 208 99 l 346 821 l 399 821 l 533 100 l 647 821 l 714 821 l 582 0 l 506 0 l 372 663 l 242 0 l 161 0 m 385 879 l 249 990 l 322 990 l 433 879 l 385 879 z "},"X":{"ha":426,"x_min":26,"x_max":401,"o":"m 26 0 l 160 417 l 38 821 l 104 821 l 214 456 l 333 821 l 401 821 l 268 415 l 399 0 l 331 0 l 214 367 l 96 0 l 26 0 z "},"Y":{"ha":435,"x_min":25,"x_max":410,"o":"m 178 0 l 178 363 l 25 821 l 96 821 l 210 458 l 215 438 l 219 458 l 343 821 l 410 821 l 246 360 l 246 0 l 178 0 z "},"Ý":{"ha":435,"x_min":25,"x_max":410,"o":"m 178 0 l 178 363 l 25 821 l 96 821 l 210 458 l 215 438 l 219 458 l 343 821 l 410 821 l 246 360 l 246 0 l 178 0 m 157 879 l 268 990 l 342 990 l 203 879 l 157 879 z "},"Ѣ":{"ha":561,"x_min":21,"x_max":499,"o":"m 122 0 l 122 818 l 189 818 l 189 604 l 331 604 q 429 585 392 604 q 483 526 467 565 q 499 428 499 488 l 499 201 q 490 108 499 147 q 460 46 481 69 q 408 11 440 22 q 326 0 375 0 l 122 0 m 189 40 l 315 40 q 391 60 365 40 q 424 117 417 81 q 432 204 432 154 l 432 411 q 425 484 432 450 q 393 539 418 518 q 313 560 368 560 l 189 560 l 189 40 m 21 711 l 21 754 l 421 754 l 421 711 l 21 711 z "},"Ŷ":{"ha":435,"x_min":25,"x_max":410,"o":"m 178 0 l 178 363 l 25 821 l 96 821 l 210 458 l 215 438 l 219 458 l 343 821 l 410 821 l 246 360 l 246 0 l 178 0 m 72 874 l 194 994 l 243 994 l 365 874 l 318 874 l 218 958 l 121 874 l 72 874 z "},"Ÿ":{"ha":435,"x_min":25,"x_max":410,"o":"m 178 0 l 178 363 l 25 821 l 96 821 l 210 458 l 215 438 l 219 458 l 343 821 l 410 821 l 246 360 l 246 0 l 178 0 m 157 890 q 128 901 140 890 q 117 929 117 913 q 128 956 117 946 q 157 967 140 967 q 185 956 174 967 q 196 929 196 946 q 185 901 196 913 q 157 890 174 890 m 283 890 q 255 901 267 890 q 243 929 243 913 q 255 956 243 946 q 283 967 267 967 q 311 956 300 967 q 322 929 322 946 q 311 901 322 913 q 283 890 300 890 z "},"Ỵ":{"ha":435,"x_min":25,"x_max":410,"o":"m 178 0 l 178 363 l 25 821 l 96 821 l 210 458 l 215 438 l 219 458 l 343 821 l 410 821 l 246 360 l 246 0 l 178 0 m 218 -142 q 188 -130 200 -142 q 176 -103 176 -118 q 188 -74 176 -86 q 218 -62 200 -62 q 246 -74 233 -62 q 258 -103 258 -86 q 246 -130 258 -118 q 218 -142 233 -142 z "},"Ы":{"ha":669,"x_min":63,"x_max":606,"o":"m 63 0 l 63 818 l 129 818 l 129 604 l 271 604 q 370 585 333 604 q 423 526 407 565 q 439 428 439 488 l 439 201 q 430 108 439 147 q 401 46 421 69 q 347 11 381 22 q 267 0 314 0 l 63 0 m 129 40 l 256 40 q 331 60 307 40 q 364 117 356 81 q 372 204 372 154 l 372 411 q 365 484 372 450 q 333 539 358 518 q 253 560 308 560 l 129 560 l 129 40 m 539 0 l 539 821 l 606 821 l 606 0 l 539 0 z "},"Ỳ":{"ha":435,"x_min":25,"x_max":410,"o":"m 178 0 l 178 363 l 25 821 l 96 821 l 210 458 l 215 438 l 219 458 l 343 821 l 410 821 l 246 360 l 246 0 l 178 0 m 232 879 l 96 990 l 169 990 l 281 879 l 232 879 z "},"Ỷ":{"ha":435,"x_min":25,"x_max":410,"o":"m 178 0 l 178 363 l 25 821 l 96 821 l 210 458 l 215 438 l 219 458 l 343 821 l 410 821 l 246 360 l 246 0 l 178 0 m 199 871 l 199 894 q 215 924 199 914 q 247 943 231 933 q 264 972 264 953 l 264 976 q 253 1003 264 992 q 219 1015 243 1015 q 182 982 189 1015 l 146 989 q 169 1032 150 1017 q 224 1047 189 1047 q 285 1031 265 1047 q 306 976 306 1015 l 306 974 q 289 931 306 943 q 255 912 272 919 q 238 888 238 904 l 238 871 l 199 871 z "},"Ї":{"ha":257,"x_min":26,"x_max":232,"o":"m 94 0 l 94 821 l 163 821 l 163 0 l 94 0 m 67 890 q 38 901 50 890 q 26 929 26 913 q 38 956 26 946 q 67 967 50 967 q 94 956 83 967 q 106 929 106 946 q 94 901 106 913 q 67 890 83 890 m 193 890 q 165 901 176 890 q 153 929 153 913 q 165 956 153 946 q 193 967 176 967 q 221 956 210 967 q 232 929 232 946 q 221 901 232 913 q 193 890 210 890 z "},"Ỹ":{"ha":435,"x_min":25,"x_max":410,"o":"m 178 0 l 178 363 l 25 821 l 96 821 l 210 458 l 215 438 l 219 458 l 343 821 l 410 821 l 246 360 l 246 0 l 178 0 m 276 889 q 246 894 258 889 q 214 913 233 900 q 188 930 203 921 q 157 939 174 939 q 129 927 140 939 q 114 890 118 915 l 83 890 q 106 951 86 928 q 158 975 125 975 q 192 967 176 975 q 224 949 208 960 q 250 933 238 940 q 276 926 263 926 q 305 938 293 926 q 321 974 317 949 l 353 974 q 341 928 351 947 q 314 899 331 908 q 276 889 297 889 z "},"Ѫ":{"ha":914,"x_min":33,"x_max":878,"o":"m 58 0 l 146 321 q 171 385 156 354 q 212 435 186 415 q 278 454 238 454 l 390 454 l 33 771 l 33 821 l 878 821 l 878 771 l 522 456 l 632 454 q 703 435 678 454 q 744 385 729 415 q 767 321 758 354 l 856 0 l 782 0 l 703 310 q 671 387 692 351 q 606 428 650 422 l 490 428 l 490 0 l 422 0 l 422 428 l 307 428 q 242 388 263 422 q 211 311 222 353 l 132 0 l 58 0 m 457 472 l 796 771 l 115 771 l 457 472 z "},"Z":{"ha":379,"x_min":28,"x_max":353,"o":"m 28 0 l 28 50 l 275 771 l 43 771 l 43 821 l 353 821 l 353 776 l 99 50 l 353 50 l 353 0 l 28 0 z "},"Ź":{"ha":379,"x_min":28,"x_max":353,"o":"m 28 0 l 28 50 l 275 771 l 43 771 l 43 821 l 353 821 l 353 776 l 99 50 l 353 50 l 353 0 l 28 0 m 144 879 l 256 990 l 329 990 l 190 879 l 144 879 z "},"Ž":{"ha":379,"x_min":28,"x_max":353,"o":"m 28 0 l 28 50 l 275 771 l 43 771 l 43 821 l 353 821 l 353 776 l 99 50 l 353 50 l 353 0 l 28 0 m 182 874 l 65 982 l 115 982 l 207 910 l 299 983 l 347 983 l 231 874 l 182 874 z "},"Ż":{"ha":379,"x_min":28,"x_max":353,"o":"m 28 0 l 28 50 l 275 771 l 43 771 l 43 821 l 353 821 l 353 776 l 99 50 l 353 50 l 353 0 l 28 0 m 211 892 q 180 904 193 892 q 167 935 167 917 q 180 965 167 953 q 211 978 193 978 q 242 965 229 978 q 256 935 256 953 q 242 904 256 917 q 211 892 229 892 z "},"З":{"ha":544,"x_min":57,"x_max":476,"o":"m 267 -11 q 144 16 190 -11 q 77 90 97 43 q 57 194 57 136 l 57 274 l 126 274 l 126 197 q 163 84 126 125 q 265 40 199 43 q 367 80 329 40 q 404 189 404 119 l 404 264 q 363 367 404 331 q 250 404 321 403 l 165 404 l 165 451 l 250 451 q 315 465 285 451 q 365 503 346 478 q 390 545 382 522 q 399 594 399 568 l 399 640 q 367 735 399 696 q 265 775 335 775 q 165 735 196 775 q 133 632 133 694 l 133 581 l 63 581 l 63 636 q 111 776 63 726 q 267 826 160 826 q 422 777 374 826 q 471 640 471 728 l 471 604 q 434 487 471 531 q 340 426 397 443 q 442 366 408 414 q 476 247 476 318 l 476 194 q 457 88 476 135 q 391 15 438 42 q 267 -11 344 -11 z "},"Ж":{"ha":843,"x_min":58,"x_max":786,"o":"m 58 0 l 286 425 l 67 821 l 143 821 l 346 446 l 388 446 l 388 819 l 457 819 l 457 446 l 499 446 l 700 821 l 779 821 l 558 425 l 786 0 l 708 0 l 500 403 l 457 403 l 457 0 l 388 0 l 388 403 l 344 403 l 136 0 l 58 0 z "},"a":{"ha":496,"x_min":61,"x_max":429,"o":"m 204 -10 q 141 -1 174 -10 q 85 40 108 7 q 61 146 61 74 l 61 206 q 104 319 61 276 q 219 397 147 363 q 299 440 267 421 q 347 483 331 460 q 363 543 363 507 l 363 571 q 347 627 363 608 q 306 653 332 646 q 253 660 281 660 q 161 624 183 660 q 139 519 139 588 l 139 461 l 79 461 l 79 525 q 92 616 79 576 q 143 678 106 656 q 253 701 181 701 q 368 683 331 701 q 417 631 406 664 q 429 556 429 599 l 429 0 l 364 0 l 363 89 q 300 15 344 39 q 204 -10 256 -10 m 226 38 q 329 85 297 38 q 361 214 361 133 l 361 444 q 310 399 346 419 q 238 360 275 379 q 156 297 185 329 q 126 207 126 265 l 126 157 q 142 76 126 101 q 182 44 158 50 q 226 38 206 38 z "},"а":{"ha":496,"x_min":61,"x_max":429,"o":"m 204 -10 q 141 -1 174 -10 q 85 40 108 7 q 61 146 61 74 l 61 206 q 104 319 61 276 q 219 397 147 363 q 299 440 267 421 q 347 483 331 460 q 363 543 363 507 l 363 571 q 347 627 363 608 q 306 653 332 646 q 253 660 281 660 q 161 624 183 660 q 139 519 139 588 l 139 461 l 79 461 l 79 525 q 92 616 79 576 q 143 678 106 656 q 253 701 181 701 q 368 683 331 701 q 417 631 406 664 q 429 556 429 599 l 429 0 l 364 0 l 363 89 q 300 15 344 39 q 204 -10 256 -10 m 226 38 q 329 85 297 38 q 361 214 361 133 l 361 444 q 310 399 346 419 q 238 360 275 379 q 156 297 185 329 q 126 207 126 265 l 126 157 q 142 76 126 101 q 182 44 158 50 q 226 38 206 38 z "},"á":{"ha":496,"x_min":61,"x_max":429,"o":"m 204 -10 q 141 -1 174 -10 q 85 40 108 7 q 61 146 61 74 l 61 206 q 104 319 61 276 q 219 397 147 363 q 299 440 267 421 q 347 483 331 460 q 363 543 363 507 l 363 571 q 347 627 363 608 q 306 653 332 646 q 253 660 281 660 q 161 624 183 660 q 139 519 139 588 l 139 461 l 79 461 l 79 525 q 92 616 79 576 q 143 678 106 656 q 253 701 181 701 q 368 683 331 701 q 417 631 406 664 q 429 556 429 599 l 429 0 l 364 0 l 363 89 q 300 15 344 39 q 204 -10 256 -10 m 226 38 q 329 85 297 38 q 361 214 361 133 l 361 444 q 310 399 346 419 q 238 360 275 379 q 156 297 185 329 q 126 207 126 265 l 126 157 q 142 76 126 101 q 182 44 158 50 q 226 38 206 38 m 207 757 l 285 883 l 358 883 l 249 757 l 207 757 z "},"ă":{"ha":496,"x_min":61,"x_max":429,"o":"m 204 -10 q 141 -1 174 -10 q 85 40 108 7 q 61 146 61 74 l 61 206 q 104 319 61 276 q 219 397 147 363 q 299 440 267 421 q 347 483 331 460 q 363 543 363 507 l 363 571 q 347 627 363 608 q 306 653 332 646 q 253 660 281 660 q 161 624 183 660 q 139 519 139 588 l 139 461 l 79 461 l 79 525 q 92 616 79 576 q 143 678 106 656 q 253 701 181 701 q 368 683 331 701 q 417 631 406 664 q 429 556 429 599 l 429 0 l 364 0 l 363 89 q 300 15 344 39 q 204 -10 256 -10 m 226 38 q 329 85 297 38 q 361 214 361 133 l 361 444 q 310 399 346 419 q 238 360 275 379 q 156 297 185 329 q 126 207 126 265 l 126 157 q 142 76 126 101 q 182 44 158 50 q 226 38 206 38 m 254 758 q 176 778 204 758 q 135 826 147 799 q 122 878 124 854 l 165 878 q 195 816 171 836 q 254 796 219 796 q 316 815 292 796 q 344 878 340 835 l 388 878 q 372 824 385 851 q 330 777 358 796 q 254 758 301 758 z "},"ắ":{"ha":496,"x_min":61,"x_max":429,"o":"m 204 -10 q 141 -1 174 -10 q 85 40 108 7 q 61 146 61 74 l 61 206 q 104 319 61 276 q 219 397 147 363 q 299 440 267 421 q 347 483 331 460 q 363 543 363 507 l 363 571 q 347 627 363 608 q 306 653 332 646 q 253 660 281 660 q 161 624 183 660 q 139 519 139 588 l 139 461 l 79 461 l 79 525 q 92 616 79 576 q 143 678 106 656 q 253 701 181 701 q 368 683 331 701 q 417 631 406 664 q 429 556 429 599 l 429 0 l 364 0 l 363 89 q 300 15 344 39 q 204 -10 256 -10 m 226 38 q 329 85 297 38 q 361 214 361 133 l 361 444 q 310 399 346 419 q 238 360 275 379 q 156 297 185 329 q 126 207 126 265 l 126 157 q 142 76 126 101 q 182 44 158 50 q 226 38 206 38 m 254 758 q 176 778 204 758 q 135 826 147 799 q 122 878 124 854 l 165 878 q 195 816 171 836 q 254 796 219 796 q 316 815 292 796 q 344 878 340 835 l 388 878 q 372 824 385 851 q 330 777 358 796 q 254 758 301 758 m 207 897 l 285 1024 l 358 1024 l 249 897 l 207 897 z "},"ặ":{"ha":496,"x_min":61,"x_max":429,"o":"m 204 -10 q 141 -1 174 -10 q 85 40 108 7 q 61 146 61 74 l 61 206 q 104 319 61 276 q 219 397 147 363 q 299 440 267 421 q 347 483 331 460 q 363 543 363 507 l 363 571 q 347 627 363 608 q 306 653 332 646 q 253 660 281 660 q 161 624 183 660 q 139 519 139 588 l 139 461 l 79 461 l 79 525 q 92 616 79 576 q 143 678 106 656 q 253 701 181 701 q 368 683 331 701 q 417 631 406 664 q 429 556 429 599 l 429 0 l 364 0 l 363 89 q 300 15 344 39 q 204 -10 256 -10 m 226 38 q 329 85 297 38 q 361 214 361 133 l 361 444 q 310 399 346 419 q 238 360 275 379 q 156 297 185 329 q 126 207 126 265 l 126 157 q 142 76 126 101 q 182 44 158 50 q 226 38 206 38 m 249 -142 q 219 -130 231 -142 q 207 -103 207 -118 q 219 -74 207 -86 q 249 -62 231 -62 q 276 -74 264 -62 q 289 -103 289 -86 q 276 -130 289 -118 q 249 -142 264 -142 m 254 758 q 176 778 204 758 q 135 826 147 799 q 122 878 124 854 l 165 878 q 195 816 171 836 q 254 796 219 796 q 316 815 292 796 q 344 878 340 835 l 388 878 q 372 824 385 851 q 330 777 358 796 q 254 758 301 758 z "},"ằ":{"ha":496,"x_min":61,"x_max":429,"o":"m 204 -10 q 141 -1 174 -10 q 85 40 108 7 q 61 146 61 74 l 61 206 q 104 319 61 276 q 219 397 147 363 q 299 440 267 421 q 347 483 331 460 q 363 543 363 507 l 363 571 q 347 627 363 608 q 306 653 332 646 q 253 660 281 660 q 161 624 183 660 q 139 519 139 588 l 139 461 l 79 461 l 79 525 q 92 616 79 576 q 143 678 106 656 q 253 701 181 701 q 368 683 331 701 q 417 631 406 664 q 429 556 429 599 l 429 0 l 364 0 l 363 89 q 300 15 344 39 q 204 -10 256 -10 m 226 38 q 329 85 297 38 q 361 214 361 133 l 361 444 q 310 399 346 419 q 238 360 275 379 q 156 297 185 329 q 126 207 126 265 l 126 157 q 142 76 126 101 q 182 44 158 50 q 226 38 206 38 m 254 758 q 176 778 204 758 q 135 826 147 799 q 122 878 124 854 l 165 878 q 195 816 171 836 q 254 796 219 796 q 316 815 292 796 q 344 878 340 835 l 388 878 q 372 824 385 851 q 330 777 358 796 q 254 758 301 758 m 261 897 l 151 1024 l 225 1024 l 303 897 l 261 897 z "},"ẳ":{"ha":496,"x_min":61,"x_max":429,"o":"m 204 -10 q 141 -1 174 -10 q 85 40 108 7 q 61 146 61 74 l 61 206 q 104 319 61 276 q 219 397 147 363 q 299 440 267 421 q 347 483 331 460 q 363 543 363 507 l 363 571 q 347 627 363 608 q 306 653 332 646 q 253 660 281 660 q 161 624 183 660 q 139 519 139 588 l 139 461 l 79 461 l 79 525 q 92 616 79 576 q 143 678 106 656 q 253 701 181 701 q 368 683 331 701 q 417 631 406 664 q 429 556 429 599 l 429 0 l 364 0 l 363 89 q 300 15 344 39 q 204 -10 256 -10 m 226 38 q 329 85 297 38 q 361 214 361 133 l 361 444 q 310 399 346 419 q 238 360 275 379 q 156 297 185 329 q 126 207 126 265 l 126 157 q 142 76 126 101 q 182 44 158 50 q 226 38 206 38 m 254 758 q 176 778 204 758 q 135 826 147 799 q 122 878 124 854 l 165 878 q 195 816 171 836 q 254 796 219 796 q 316 815 292 796 q 344 878 340 835 l 388 878 q 372 824 385 851 q 330 777 358 796 q 254 758 301 758 m 235 900 l 235 924 q 251 953 235 943 q 283 972 267 963 q 300 1001 300 982 l 300 1006 q 290 1033 300 1021 q 256 1044 279 1044 q 218 1011 225 1044 l 182 1018 q 206 1061 186 1046 q 260 1076 225 1076 q 322 1060 301 1076 q 342 1006 342 1044 l 342 1003 q 325 960 342 972 q 291 941 308 949 q 274 917 274 933 l 274 900 l 235 900 z "},"ẵ":{"ha":496,"x_min":61,"x_max":429,"o":"m 204 -10 q 141 -1 174 -10 q 85 40 108 7 q 61 146 61 74 l 61 206 q 104 319 61 276 q 219 397 147 363 q 299 440 267 421 q 347 483 331 460 q 363 543 363 507 l 363 571 q 347 627 363 608 q 306 653 332 646 q 253 660 281 660 q 161 624 183 660 q 139 519 139 588 l 139 461 l 79 461 l 79 525 q 92 616 79 576 q 143 678 106 656 q 253 701 181 701 q 368 683 331 701 q 417 631 406 664 q 429 556 429 599 l 429 0 l 364 0 l 363 89 q 300 15 344 39 q 204 -10 256 -10 m 226 38 q 329 85 297 38 q 361 214 361 133 l 361 444 q 310 399 346 419 q 238 360 275 379 q 156 297 185 329 q 126 207 126 265 l 126 157 q 142 76 126 101 q 182 44 158 50 q 226 38 206 38 m 254 758 q 176 778 204 758 q 135 826 147 799 q 122 878 124 854 l 165 878 q 195 816 171 836 q 254 796 219 796 q 316 815 292 796 q 344 878 340 835 l 388 878 q 372 824 385 851 q 330 777 358 796 q 254 758 301 758 m 313 911 q 282 917 294 911 q 250 935 269 922 q 224 952 239 943 q 193 961 210 961 q 165 949 176 961 q 150 913 154 938 l 119 913 q 142 974 122 950 q 194 997 161 997 q 228 990 213 997 q 260 971 244 982 q 286 956 274 963 q 313 949 299 949 q 341 960 329 949 q 357 996 353 971 l 389 996 q 377 950 388 969 q 350 921 367 931 q 313 911 333 911 z "},"ǎ":{"ha":496,"x_min":61,"x_max":429,"o":"m 204 -10 q 141 -1 174 -10 q 85 40 108 7 q 61 146 61 74 l 61 206 q 104 319 61 276 q 219 397 147 363 q 299 440 267 421 q 347 483 331 460 q 363 543 363 507 l 363 571 q 347 627 363 608 q 306 653 332 646 q 253 660 281 660 q 161 624 183 660 q 139 519 139 588 l 139 461 l 79 461 l 79 525 q 92 616 79 576 q 143 678 106 656 q 253 701 181 701 q 368 683 331 701 q 417 631 406 664 q 429 556 429 599 l 429 0 l 364 0 l 363 89 q 300 15 344 39 q 204 -10 256 -10 m 226 38 q 329 85 297 38 q 361 214 361 133 l 361 444 q 310 399 346 419 q 238 360 275 379 q 156 297 185 329 q 126 207 126 265 l 126 157 q 142 76 126 101 q 182 44 158 50 q 226 38 206 38 m 231 760 l 108 882 l 157 882 l 256 794 l 356 882 l 401 882 l 279 760 l 231 760 z "},"â":{"ha":496,"x_min":61,"x_max":429,"o":"m 204 -10 q 141 -1 174 -10 q 85 40 108 7 q 61 146 61 74 l 61 206 q 104 319 61 276 q 219 397 147 363 q 299 440 267 421 q 347 483 331 460 q 363 543 363 507 l 363 571 q 347 627 363 608 q 306 653 332 646 q 253 660 281 660 q 161 624 183 660 q 139 519 139 588 l 139 461 l 79 461 l 79 525 q 92 616 79 576 q 143 678 106 656 q 253 701 181 701 q 368 683 331 701 q 417 631 406 664 q 429 556 429 599 l 429 0 l 364 0 l 363 89 q 300 15 344 39 q 204 -10 256 -10 m 226 38 q 329 85 297 38 q 361 214 361 133 l 361 444 q 310 399 346 419 q 238 360 275 379 q 156 297 185 329 q 126 207 126 265 l 126 157 q 142 76 126 101 q 182 44 158 50 q 226 38 206 38 m 108 760 l 231 882 l 279 882 l 401 760 l 354 760 l 254 846 l 157 760 l 108 760 z "},"ấ":{"ha":496,"x_min":61,"x_max":550,"o":"m 204 -10 q 141 -1 174 -10 q 85 40 108 7 q 61 146 61 74 l 61 206 q 104 319 61 276 q 219 397 147 363 q 299 440 267 421 q 347 483 331 460 q 363 543 363 507 l 363 571 q 347 627 363 608 q 306 653 332 646 q 253 660 281 660 q 161 624 183 660 q 139 519 139 588 l 139 461 l 79 461 l 79 525 q 92 616 79 576 q 143 678 106 656 q 253 701 181 701 q 368 683 331 701 q 417 631 406 664 q 429 556 429 599 l 429 0 l 364 0 l 363 89 q 300 15 344 39 q 204 -10 256 -10 m 226 38 q 329 85 297 38 q 361 214 361 133 l 361 444 q 310 399 346 419 q 238 360 275 379 q 156 297 185 329 q 126 207 126 265 l 126 157 q 142 76 126 101 q 182 44 158 50 q 226 38 206 38 m 108 760 l 231 882 l 279 882 l 401 760 l 354 760 l 254 846 l 157 760 l 108 760 m 399 831 l 476 957 l 550 957 l 440 831 l 399 831 z "},"ậ":{"ha":496,"x_min":61,"x_max":429,"o":"m 204 -10 q 141 -1 174 -10 q 85 40 108 7 q 61 146 61 74 l 61 206 q 104 319 61 276 q 219 397 147 363 q 299 440 267 421 q 347 483 331 460 q 363 543 363 507 l 363 571 q 347 627 363 608 q 306 653 332 646 q 253 660 281 660 q 161 624 183 660 q 139 519 139 588 l 139 461 l 79 461 l 79 525 q 92 616 79 576 q 143 678 106 656 q 253 701 181 701 q 368 683 331 701 q 417 631 406 664 q 429 556 429 599 l 429 0 l 364 0 l 363 89 q 300 15 344 39 q 204 -10 256 -10 m 226 38 q 329 85 297 38 q 361 214 361 133 l 361 444 q 310 399 346 419 q 238 360 275 379 q 156 297 185 329 q 126 207 126 265 l 126 157 q 142 76 126 101 q 182 44 158 50 q 226 38 206 38 m 249 -142 q 219 -130 231 -142 q 207 -103 207 -118 q 219 -74 207 -86 q 249 -62 231 -62 q 276 -74 264 -62 q 289 -103 289 -86 q 276 -130 289 -118 q 249 -142 264 -142 m 108 760 l 231 882 l 279 882 l 401 760 l 354 760 l 254 846 l 157 760 l 108 760 z "},"ầ":{"ha":496,"x_min":61,"x_max":496,"o":"m 204 -10 q 141 -1 174 -10 q 85 40 108 7 q 61 146 61 74 l 61 206 q 104 319 61 276 q 219 397 147 363 q 299 440 267 421 q 347 483 331 460 q 363 543 363 507 l 363 571 q 347 627 363 608 q 306 653 332 646 q 253 660 281 660 q 161 624 183 660 q 139 519 139 588 l 139 461 l 79 461 l 79 525 q 92 616 79 576 q 143 678 106 656 q 253 701 181 701 q 368 683 331 701 q 417 631 406 664 q 429 556 429 599 l 429 0 l 364 0 l 363 89 q 300 15 344 39 q 204 -10 256 -10 m 226 38 q 329 85 297 38 q 361 214 361 133 l 361 444 q 310 399 346 419 q 238 360 275 379 q 156 297 185 329 q 126 207 126 265 l 126 157 q 142 76 126 101 q 182 44 158 50 q 226 38 206 38 m 108 760 l 231 882 l 279 882 l 401 760 l 354 760 l 254 846 l 157 760 l 108 760 m 454 831 l 344 957 l 418 957 l 496 831 l 454 831 z "},"ẩ":{"ha":496,"x_min":61,"x_max":533,"o":"m 204 -10 q 141 -1 174 -10 q 85 40 108 7 q 61 146 61 74 l 61 206 q 104 319 61 276 q 219 397 147 363 q 299 440 267 421 q 347 483 331 460 q 363 543 363 507 l 363 571 q 347 627 363 608 q 306 653 332 646 q 253 660 281 660 q 161 624 183 660 q 139 519 139 588 l 139 461 l 79 461 l 79 525 q 92 616 79 576 q 143 678 106 656 q 253 701 181 701 q 368 683 331 701 q 417 631 406 664 q 429 556 429 599 l 429 0 l 364 0 l 363 89 q 300 15 344 39 q 204 -10 256 -10 m 226 38 q 329 85 297 38 q 361 214 361 133 l 361 444 q 310 399 346 419 q 238 360 275 379 q 156 297 185 329 q 126 207 126 265 l 126 157 q 142 76 126 101 q 182 44 158 50 q 226 38 206 38 m 108 760 l 231 882 l 279 882 l 401 760 l 354 760 l 254 846 l 157 760 l 108 760 m 426 833 l 426 857 q 442 886 426 876 q 475 906 458 896 q 492 935 492 915 l 492 939 q 481 966 492 954 q 447 978 471 978 q 410 944 417 978 l 374 951 q 397 994 378 979 q 451 1010 417 1010 q 513 994 493 1010 q 533 939 533 978 l 533 936 q 517 894 533 906 q 483 874 500 882 q 465 850 465 867 l 465 833 l 426 833 z "},"ẫ":{"ha":496,"x_min":61,"x_max":429,"o":"m 204 -10 q 141 -1 174 -10 q 85 40 108 7 q 61 146 61 74 l 61 206 q 104 319 61 276 q 219 397 147 363 q 299 440 267 421 q 347 483 331 460 q 363 543 363 507 l 363 571 q 347 627 363 608 q 306 653 332 646 q 253 660 281 660 q 161 624 183 660 q 139 519 139 588 l 139 461 l 79 461 l 79 525 q 92 616 79 576 q 143 678 106 656 q 253 701 181 701 q 368 683 331 701 q 417 631 406 664 q 429 556 429 599 l 429 0 l 364 0 l 363 89 q 300 15 344 39 q 204 -10 256 -10 m 226 38 q 329 85 297 38 q 361 214 361 133 l 361 444 q 310 399 346 419 q 238 360 275 379 q 156 297 185 329 q 126 207 126 265 l 126 157 q 142 76 126 101 q 182 44 158 50 q 226 38 206 38 m 108 760 l 231 882 l 279 882 l 401 760 l 354 760 l 254 846 l 157 760 l 108 760 m 313 913 q 282 918 294 913 q 250 936 269 924 q 224 953 239 944 q 193 963 210 963 q 165 951 176 963 q 150 914 154 939 l 119 914 q 142 975 122 951 q 194 999 161 999 q 228 991 213 999 q 260 972 244 983 q 286 957 274 964 q 313 950 299 950 q 341 961 329 950 q 357 997 353 972 l 389 997 q 377 951 388 971 q 350 922 367 932 q 313 913 333 913 z "},"´":{"ha":175,"x_min":0,"x_max":151,"o":"m 0 757 l 78 883 l 151 883 l 42 757 l 0 757 z "},"́":{"ha":0,"x_min":0,"x_max":151,"o":"m 0 757 l 78 883 l 151 883 l 42 757 l 0 757 z "},"ä":{"ha":496,"x_min":61,"x_max":429,"o":"m 204 -10 q 141 -1 174 -10 q 85 40 108 7 q 61 146 61 74 l 61 206 q 104 319 61 276 q 219 397 147 363 q 299 440 267 421 q 347 483 331 460 q 363 543 363 507 l 363 571 q 347 627 363 608 q 306 653 332 646 q 253 660 281 660 q 161 624 183 660 q 139 519 139 588 l 139 461 l 79 461 l 79 525 q 92 616 79 576 q 143 678 106 656 q 253 701 181 701 q 368 683 331 701 q 417 631 406 664 q 429 556 429 599 l 429 0 l 364 0 l 363 89 q 300 15 344 39 q 204 -10 256 -10 m 226 38 q 329 85 297 38 q 361 214 361 133 l 361 444 q 310 399 346 419 q 238 360 275 379 q 156 297 185 329 q 126 207 126 265 l 126 157 q 142 76 126 101 q 182 44 158 50 q 226 38 206 38 m 193 775 q 165 786 176 775 q 153 814 153 797 q 165 841 153 831 q 193 851 176 851 q 221 841 210 851 q 232 814 232 831 q 221 786 232 797 q 193 775 210 775 m 319 775 q 291 786 303 775 q 279 814 279 797 q 291 841 279 831 q 319 851 303 851 q 347 841 336 851 q 358 814 358 831 q 347 786 358 797 q 319 775 336 775 z "},"ạ":{"ha":496,"x_min":61,"x_max":429,"o":"m 204 -10 q 141 -1 174 -10 q 85 40 108 7 q 61 146 61 74 l 61 206 q 104 319 61 276 q 219 397 147 363 q 299 440 267 421 q 347 483 331 460 q 363 543 363 507 l 363 571 q 347 627 363 608 q 306 653 332 646 q 253 660 281 660 q 161 624 183 660 q 139 519 139 588 l 139 461 l 79 461 l 79 525 q 92 616 79 576 q 143 678 106 656 q 253 701 181 701 q 368 683 331 701 q 417 631 406 664 q 429 556 429 599 l 429 0 l 364 0 l 363 89 q 300 15 344 39 q 204 -10 256 -10 m 226 38 q 329 85 297 38 q 361 214 361 133 l 361 444 q 310 399 346 419 q 238 360 275 379 q 156 297 185 329 q 126 207 126 265 l 126 157 q 142 76 126 101 q 182 44 158 50 q 226 38 206 38 m 249 -142 q 219 -130 231 -142 q 207 -103 207 -118 q 219 -74 207 -86 q 249 -62 231 -62 q 276 -74 264 -62 q 289 -103 289 -86 q 276 -130 289 -118 q 249 -142 264 -142 z "},"æ":{"ha":778,"x_min":61,"x_max":724,"o":"m 204 -6 q 160 -1 185 -6 q 113 17 135 3 q 76 63 90 32 q 61 151 61 94 l 61 211 q 103 319 61 278 q 208 392 144 360 q 295 439 261 418 q 346 482 329 460 q 363 531 363 504 l 363 571 q 347 627 363 608 q 306 653 332 646 q 253 660 281 660 q 161 624 183 660 q 139 519 139 588 l 139 461 l 79 461 l 79 525 q 92 616 79 576 q 143 678 106 656 q 253 701 181 701 q 358 681 324 701 q 404 628 393 661 q 415 556 415 596 l 415 65 l 376 118 q 310 22 356 50 q 204 -6 264 -6 m 226 42 q 329 88 297 42 q 361 214 361 133 l 361 444 q 308 399 346 419 q 232 357 271 379 q 154 295 182 326 q 126 211 126 264 l 126 163 q 142 81 126 107 q 182 48 158 54 q 226 42 206 42 m 543 -3 q 463 4 496 -3 q 408 30 429 11 q 378 85 388 49 q 368 179 368 121 l 368 532 q 408 662 368 622 q 543 701 449 701 q 683 665 642 701 q 724 532 724 629 l 724 357 l 431 357 l 431 160 q 440 85 431 111 q 473 48 449 58 q 543 38 497 38 q 613 49 588 38 q 647 90 638 61 q 657 168 657 118 l 657 243 l 724 243 l 724 188 q 714 91 724 128 q 683 33 704 54 q 626 5 661 13 q 543 -3 592 -3 m 431 394 l 657 394 l 657 536 q 635 631 657 601 q 543 660 613 660 q 453 631 476 660 q 431 536 431 601 l 431 394 z "},"à":{"ha":496,"x_min":61,"x_max":429,"o":"m 204 -10 q 141 -1 174 -10 q 85 40 108 7 q 61 146 61 74 l 61 206 q 104 319 61 276 q 219 397 147 363 q 299 440 267 421 q 347 483 331 460 q 363 543 363 507 l 363 571 q 347 627 363 608 q 306 653 332 646 q 253 660 281 660 q 161 624 183 660 q 139 519 139 588 l 139 461 l 79 461 l 79 525 q 92 616 79 576 q 143 678 106 656 q 253 701 181 701 q 368 683 331 701 q 417 631 406 664 q 429 556 429 599 l 429 0 l 364 0 l 363 89 q 300 15 344 39 q 204 -10 256 -10 m 226 38 q 329 85 297 38 q 361 214 361 133 l 361 444 q 310 399 346 419 q 238 360 275 379 q 156 297 185 329 q 126 207 126 265 l 126 157 q 142 76 126 101 q 182 44 158 50 q 226 38 206 38 m 263 757 l 153 883 l 226 883 l 304 757 l 263 757 z "},"ả":{"ha":496,"x_min":61,"x_max":429,"o":"m 204 -10 q 141 -1 174 -10 q 85 40 108 7 q 61 146 61 74 l 61 206 q 104 319 61 276 q 219 397 147 363 q 299 440 267 421 q 347 483 331 460 q 363 543 363 507 l 363 571 q 347 627 363 608 q 306 653 332 646 q 253 660 281 660 q 161 624 183 660 q 139 519 139 588 l 139 461 l 79 461 l 79 525 q 92 616 79 576 q 143 678 106 656 q 253 701 181 701 q 368 683 331 701 q 417 631 406 664 q 429 556 429 599 l 429 0 l 364 0 l 363 89 q 300 15 344 39 q 204 -10 256 -10 m 226 38 q 329 85 297 38 q 361 214 361 133 l 361 444 q 310 399 346 419 q 238 360 275 379 q 156 297 185 329 q 126 207 126 265 l 126 157 q 142 76 126 101 q 182 44 158 50 q 226 38 206 38 m 236 760 l 236 783 q 252 813 236 803 q 285 832 268 822 q 301 861 301 842 l 301 865 q 291 892 301 881 q 257 904 281 904 q 219 871 226 904 l 183 878 q 207 921 188 906 q 261 936 226 936 q 323 920 303 936 q 343 865 343 904 l 343 863 q 326 820 343 832 q 292 801 310 808 q 275 776 275 793 l 275 760 l 236 760 z "},"ā":{"ha":496,"x_min":61,"x_max":429,"o":"m 204 -10 q 141 -1 174 -10 q 85 40 108 7 q 61 146 61 74 l 61 206 q 104 319 61 276 q 219 397 147 363 q 299 440 267 421 q 347 483 331 460 q 363 543 363 507 l 363 571 q 347 627 363 608 q 306 653 332 646 q 253 660 281 660 q 161 624 183 660 q 139 519 139 588 l 139 461 l 79 461 l 79 525 q 92 616 79 576 q 143 678 106 656 q 253 701 181 701 q 368 683 331 701 q 417 631 406 664 q 429 556 429 599 l 429 0 l 364 0 l 363 89 q 300 15 344 39 q 204 -10 256 -10 m 226 38 q 329 85 297 38 q 361 214 361 133 l 361 444 q 310 399 346 419 q 238 360 275 379 q 156 297 185 329 q 126 207 126 265 l 126 157 q 142 76 126 101 q 182 44 158 50 q 226 38 206 38 m 129 788 l 129 826 l 379 826 l 379 788 l 129 788 z "},"&":{"ha":674,"x_min":61,"x_max":613,"o":"m 265 -11 q 144 19 189 -11 q 80 100 99 49 q 61 218 61 151 q 94 359 61 306 q 190 429 128 413 q 165 478 178 446 q 153 556 153 511 q 194 664 154 624 q 322 704 235 704 q 398 698 364 704 q 456 685 432 692 q 488 672 479 678 l 488 618 q 459 628 482 621 q 403 641 436 635 q 335 647 371 647 q 258 628 285 647 q 224 578 232 608 q 223 515 215 549 q 247 454 231 482 q 272 421 254 443 q 313 372 290 399 q 358 318 335 344 q 398 272 381 292 q 422 244 415 253 l 424 399 l 613 399 l 613 351 l 475 351 q 475 279 475 307 q 474 233 475 251 q 472 196 474 215 q 553 115 515 151 q 613 65 592 79 l 613 -3 q 549 38 593 0 q 454 128 504 76 q 411 40 442 69 q 342 -1 381 10 q 265 -11 303 -11 m 268 39 q 369 74 332 39 q 410 171 406 110 q 303 290 356 231 q 221 385 250 349 q 147 335 175 372 q 119 221 119 297 q 159 84 118 129 q 268 39 200 39 z "},"ą":{"ha":496,"x_min":61,"x_max":456,"o":"m 204 -10 q 141 -1 174 -10 q 85 40 108 7 q 61 146 61 74 l 61 206 q 104 319 61 276 q 219 397 147 363 q 299 440 267 421 q 347 483 331 460 q 363 543 363 507 l 363 571 q 347 627 363 608 q 306 653 332 646 q 253 660 281 660 q 161 624 183 660 q 139 519 139 588 l 139 461 l 79 461 l 79 525 q 92 616 79 576 q 143 678 106 656 q 253 701 181 701 q 368 683 331 701 q 417 631 406 664 q 429 556 429 599 l 429 0 l 364 0 l 363 89 q 300 15 344 39 q 204 -10 256 -10 m 226 38 q 329 85 297 38 q 361 214 361 133 l 361 444 q 310 399 346 419 q 238 360 275 379 q 156 297 185 329 q 126 207 126 265 l 126 157 q 142 76 126 101 q 182 44 158 50 q 226 38 206 38 m 396 -185 q 333 -162 360 -185 q 306 -106 306 -140 q 333 -39 306 -67 q 390 0 360 -11 l 429 0 q 374 -44 393 -18 q 354 -97 354 -71 q 372 -139 354 -125 q 408 -153 390 -153 q 431 -149 421 -153 q 446 -143 440 -146 l 457 -169 q 433 -179 449 -174 q 396 -185 418 -185 z "},"≈":{"ha":661,"x_min":64,"x_max":597,"o":"m 461 457 q 374 471 417 457 q 288 499 331 485 q 194 513 244 513 q 133 495 157 514 q 108 454 110 476 l 64 454 q 88 515 68 492 q 137 551 107 539 q 200 561 167 563 q 286 548 244 561 q 372 522 328 535 q 468 508 417 508 q 525 526 504 508 q 549 564 546 543 l 597 564 q 572 497 593 521 q 521 464 550 472 q 461 457 492 456 m 461 168 q 374 183 417 168 q 288 211 331 197 q 194 226 244 225 q 133 208 157 226 q 108 165 110 189 l 64 165 q 88 227 68 203 q 137 263 107 251 q 200 274 167 275 q 286 260 244 274 q 372 235 328 247 q 468 221 417 222 q 525 238 504 221 q 549 276 546 256 l 597 276 q 572 209 593 233 q 521 176 550 185 q 461 168 492 168 z "},"å":{"ha":496,"x_min":61,"x_max":429,"o":"m 204 -10 q 141 -1 174 -10 q 85 40 108 7 q 61 146 61 74 l 61 206 q 104 319 61 276 q 219 397 147 363 q 299 440 267 421 q 347 483 331 460 q 363 543 363 507 l 363 571 q 347 627 363 608 q 306 653 332 646 q 253 660 281 660 q 161 624 183 660 q 139 519 139 588 l 139 461 l 79 461 l 79 525 q 92 616 79 576 q 143 678 106 656 q 253 701 181 701 q 368 683 331 701 q 417 631 406 664 q 429 556 429 599 l 429 0 l 364 0 l 363 89 q 300 15 344 39 q 204 -10 256 -10 m 226 38 q 329 85 297 38 q 361 214 361 133 l 361 444 q 310 399 346 419 q 238 360 275 379 q 156 297 185 329 q 126 207 126 265 l 126 157 q 142 76 126 101 q 182 44 158 50 q 226 38 206 38 m 254 756 q 177 785 207 756 q 147 856 147 815 q 177 928 147 899 q 254 958 207 958 q 332 928 303 958 q 361 856 361 899 q 329 785 361 815 q 254 756 297 756 m 254 790 q 305 809 286 790 q 324 856 324 828 q 305 904 324 886 q 254 922 286 922 q 204 904 222 922 q 186 856 186 886 q 204 809 186 828 q 254 790 222 790 z "},"^":{"ha":538,"x_min":64,"x_max":474,"o":"m 64 688 l 250 933 l 289 933 l 474 688 l 410 688 l 267 869 l 131 688 l 64 688 z "},"~":{"ha":661,"x_min":64,"x_max":597,"o":"m 461 707 q 374 722 417 708 q 288 750 331 736 q 194 764 244 764 q 133 747 157 765 q 108 704 110 728 l 64 704 q 88 767 68 743 q 137 803 107 792 q 200 814 167 814 q 286 801 244 814 q 372 774 328 788 q 468 760 417 760 q 525 776 504 758 q 549 815 546 793 l 597 815 q 572 749 593 772 q 521 716 550 725 q 461 707 492 707 z "},"*":{"ha":756,"x_min":65,"x_max":681,"o":"m 224 147 l 160 194 l 354 418 l 65 478 l 92 558 l 363 436 l 332 731 l 414 731 l 385 438 l 654 557 l 681 481 l 393 418 l 589 196 l 524 150 l 375 401 l 224 147 z "},"@":{"ha":985,"x_min":68,"x_max":914,"o":"m 485 -90 q 233 -40 324 -90 q 106 110 143 11 q 68 349 68 208 q 167 699 68 574 q 486 824 267 824 q 706 782 610 824 q 858 649 803 740 q 914 411 914 558 q 895 257 914 328 q 837 143 876 186 q 735 100 797 100 q 664 124 690 100 q 626 182 638 149 q 614 240 615 215 l 635 246 q 558 157 606 182 q 454 132 511 132 q 351 161 390 132 q 313 267 313 190 q 328 335 313 307 q 382 386 343 364 q 492 429 421 408 q 549 449 525 438 q 586 472 572 461 q 601 494 597 482 q 606 519 606 506 q 581 576 606 554 q 499 597 556 597 q 406 574 433 597 q 379 503 379 550 l 379 461 l 326 461 l 326 503 q 342 577 326 547 q 396 622 358 607 q 500 636 433 636 q 600 621 564 636 q 651 574 636 606 q 665 494 665 543 l 665 246 q 688 162 665 188 q 744 136 710 136 q 805 163 776 136 q 851 250 833 190 q 868 407 868 310 q 828 606 868 521 q 706 740 788 692 q 496 788 624 788 q 285 745 369 788 q 158 606 200 703 q 115 344 115 510 q 142 142 115 221 q 220 22 169 64 q 339 -36 271 -19 q 490 -53 407 -53 q 558 -50 517 -54 q 647 -38 600 -46 q 738 -19 694 -31 q 810 7 781 -8 l 810 -35 q 737 -58 783 -44 q 626 -81 690 -72 q 485 -90 563 -90 m 472 175 q 546 194 515 175 q 593 239 576 213 q 610 290 610 265 l 610 431 q 560 413 592 422 q 496 390 528 403 q 422 356 450 372 q 381 319 393 340 q 368 263 368 297 q 393 195 368 215 q 472 175 418 175 z "},"ã":{"ha":496,"x_min":61,"x_max":429,"o":"m 204 -10 q 141 -1 174 -10 q 85 40 108 7 q 61 146 61 74 l 61 206 q 104 319 61 276 q 219 397 147 363 q 299 440 267 421 q 347 483 331 460 q 363 543 363 507 l 363 571 q 347 627 363 608 q 306 653 332 646 q 253 660 281 660 q 161 624 183 660 q 139 519 139 588 l 139 461 l 79 461 l 79 525 q 92 616 79 576 q 143 678 106 656 q 253 701 181 701 q 368 683 331 701 q 417 631 406 664 q 429 556 429 599 l 429 0 l 364 0 l 363 89 q 300 15 344 39 q 204 -10 256 -10 m 226 38 q 329 85 297 38 q 361 214 361 133 l 361 444 q 310 399 346 419 q 238 360 275 379 q 156 297 185 329 q 126 207 126 265 l 126 157 q 142 76 126 101 q 182 44 158 50 q 226 38 206 38 m 314 771 q 283 776 296 771 q 251 794 271 782 q 226 812 240 803 q 194 821 211 821 q 167 809 178 821 q 151 772 156 797 l 121 772 q 143 833 124 810 q 196 857 163 857 q 230 849 214 857 q 261 831 246 842 q 288 815 275 822 q 314 808 300 808 q 342 819 331 808 q 358 856 354 831 l 390 856 q 378 810 389 829 q 351 781 368 790 q 314 771 335 771 z "},"b":{"ha":503,"x_min":79,"x_max":442,"o":"m 271 -10 q 174 13 204 -10 q 131 64 143 35 l 128 0 l 79 0 l 79 875 l 144 875 l 144 631 q 195 683 161 667 q 279 699 229 699 q 383 675 349 699 q 430 612 418 651 q 442 524 442 572 l 442 181 q 435 104 442 139 q 412 44 429 69 q 360 4 394 18 q 271 -10 326 -10 m 260 38 q 328 50 306 38 q 362 83 351 63 q 374 131 372 104 q 375 183 375 157 l 375 510 q 374 562 375 536 q 362 608 372 588 q 328 642 351 629 q 260 654 304 654 q 170 622 194 654 q 146 528 146 590 l 146 217 q 147 155 146 186 q 159 97 149 124 q 192 53 169 69 q 260 38 215 38 z "},"\\":{"ha":688,"x_min":64,"x_max":597,"o":"m 542 -64 l 64 876 l 121 876 l 597 -64 l 542 -64 z "},"|":{"ha":294,"x_min":117,"x_max":178,"o":"m 117 -339 l 117 876 l 178 876 l 178 -339 l 117 -339 z "},"б":{"ha":497,"x_min":61,"x_max":436,"o":"m 247 -10 q 138 11 179 -10 q 79 74 97 32 q 61 181 61 117 l 61 683 q 80 789 61 753 q 135 840 99 825 q 224 854 172 854 q 277 858 251 854 q 324 867 303 861 q 360 879 346 872 q 382 892 375 886 l 382 853 q 353 825 382 842 q 269 808 325 808 l 246 808 q 183 799 210 808 q 143 763 157 789 q 126 688 129 736 l 126 572 q 176 617 140 599 q 268 636 211 636 q 367 616 331 636 q 420 556 404 596 q 436 457 436 517 l 436 193 q 427 101 436 139 q 397 38 418 63 q 340 1 376 13 q 247 -10 303 -10 m 249 33 q 330 54 304 33 q 363 109 356 75 q 371 183 371 143 l 371 447 q 364 518 371 486 q 331 569 357 550 q 251 589 306 589 q 178 577 204 589 q 142 545 153 565 q 128 505 131 525 q 126 467 126 485 l 126 183 q 134 109 126 143 q 168 54 142 75 q 249 33 194 33 z "},"{":{"ha":418,"x_min":75,"x_max":319,"o":"m 319 -190 q 208 -159 251 -183 q 145 -97 165 -135 q 125 -10 125 -58 q 138 65 125 31 q 168 130 151 99 q 199 192 185 161 q 213 258 213 224 q 192 310 213 289 q 140 345 171 332 q 75 360 110 358 l 75 382 q 138 396 107 385 q 190 430 169 407 q 211 485 211 453 q 198 549 211 518 q 168 610 185 581 q 138 674 151 640 q 125 749 125 708 q 144 835 125 800 q 206 892 164 871 q 319 922 249 914 l 319 878 q 256 861 285 872 q 212 824 228 850 q 196 749 196 799 q 207 676 196 708 q 233 614 218 643 q 260 553 249 585 q 271 482 271 522 q 260 440 271 461 q 228 400 250 418 q 169 371 207 382 q 246 326 221 356 q 271 261 271 297 q 260 190 271 221 q 235 131 250 160 q 210 69 221 101 q 199 -4 199 38 q 215 -84 199 -54 q 260 -128 232 -114 q 319 -146 288 -142 l 319 -190 z "},"}":{"ha":418,"x_min":100,"x_max":343,"o":"m 100 -190 l 100 -146 q 159 -128 132 -142 q 203 -84 186 -114 q 221 -4 221 -54 q 210 69 221 38 q 184 131 199 101 q 158 190 169 160 q 147 261 147 221 q 173 326 147 297 q 249 371 199 356 q 191 400 214 382 q 158 440 168 418 q 147 482 147 461 q 158 553 147 522 q 185 614 169 585 q 211 676 200 643 q 222 749 222 708 q 207 824 222 799 q 164 861 192 850 q 100 878 136 872 l 100 922 q 213 892 171 914 q 274 835 254 871 q 293 749 293 800 q 280 674 293 708 q 251 610 267 640 q 222 549 235 581 q 208 485 208 518 q 228 430 208 453 q 281 396 249 407 q 343 382 313 385 l 343 360 q 279 345 311 358 q 227 310 247 332 q 207 258 207 289 q 220 192 207 224 q 250 130 233 161 q 280 65 267 99 q 293 -10 293 31 q 273 -97 293 -58 q 210 -159 253 -135 q 100 -190 167 -183 z "},"[":{"ha":390,"x_min":67,"x_max":322,"o":"m 67 -79 l 67 875 l 322 875 l 322 835 l 129 835 l 129 -39 l 322 -39 l 322 -79 l 67 -79 z "},"]":{"ha":390,"x_min":67,"x_max":322,"o":"m 67 -79 l 67 -39 l 260 -39 l 260 835 l 67 835 l 67 875 l 322 875 l 322 -79 l 67 -79 z "},"˘":{"ha":306,"x_min":15,"x_max":281,"o":"m 147 760 q 69 780 97 760 q 28 828 40 800 q 15 879 17 856 l 58 879 q 88 817 64 838 q 147 797 113 797 q 209 817 185 797 q 238 879 233 836 l 281 879 q 265 825 278 853 q 223 778 251 797 q 147 760 194 760 z "},"̆":{"ha":0,"x_min":15,"x_max":281,"o":"m 147 760 q 69 780 97 760 q 28 828 40 800 q 15 879 17 856 l 58 879 q 88 817 64 838 q 147 797 113 797 q 209 817 185 797 q 238 879 233 836 l 281 879 q 265 825 278 853 q 223 778 251 797 q 147 760 194 760 z "},"¦":{"ha":310,"x_min":125,"x_max":185,"o":"m 125 -236 l 125 236 l 185 236 l 185 -236 l 125 -236 m 125 381 l 125 813 l 185 813 l 185 381 l 125 381 z "},"•":{"ha":556,"x_min":89,"x_max":468,"o":"m 279 199 q 183 224 226 199 q 115 293 140 250 q 89 389 89 336 q 115 484 89 442 q 183 552 140 526 q 279 578 226 578 q 374 552 332 578 q 442 484 417 526 q 468 389 468 442 q 442 293 468 336 q 374 224 417 250 q 279 199 332 199 z "},"c":{"ha":475,"x_min":61,"x_max":421,"o":"m 247 -12 q 138 3 179 -12 q 79 60 97 19 q 61 179 61 101 l 61 528 q 102 665 61 628 q 242 701 143 701 q 380 665 339 701 q 421 532 421 629 l 421 446 l 354 446 l 354 533 q 333 628 354 599 q 242 658 311 658 q 151 628 174 658 q 128 533 128 599 l 128 165 q 151 63 128 92 q 246 33 174 33 q 333 62 311 33 q 354 165 354 90 l 354 250 l 421 250 l 421 179 q 403 63 421 104 q 347 4 385 21 q 247 -12 308 -12 z "},"ć":{"ha":475,"x_min":61,"x_max":421,"o":"m 247 -12 q 138 3 179 -12 q 79 60 97 19 q 61 179 61 101 l 61 528 q 102 665 61 628 q 242 701 143 701 q 380 665 339 701 q 421 532 421 629 l 421 446 l 354 446 l 354 533 q 333 628 354 599 q 242 658 311 658 q 151 628 174 658 q 128 533 128 599 l 128 165 q 151 63 128 92 q 246 33 174 33 q 333 62 311 33 q 354 165 354 90 l 354 250 l 421 250 l 421 179 q 403 63 421 104 q 347 4 385 21 q 247 -12 308 -12 m 190 757 l 268 883 l 342 883 l 232 757 l 190 757 z "},"ˇ":{"ha":322,"x_min":10,"x_max":303,"o":"m 132 760 l 10 882 l 58 882 l 157 794 l 257 882 l 303 882 l 181 760 l 132 760 z "},"̌":{"ha":0,"x_min":10,"x_max":303,"o":"m 132 760 l 10 882 l 58 882 l 157 794 l 257 882 l 303 882 l 181 760 l 132 760 z "},"č":{"ha":475,"x_min":61,"x_max":421,"o":"m 247 -12 q 138 3 179 -12 q 79 60 97 19 q 61 179 61 101 l 61 528 q 102 665 61 628 q 242 701 143 701 q 380 665 339 701 q 421 532 421 629 l 421 446 l 354 446 l 354 533 q 333 628 354 599 q 242 658 311 658 q 151 628 174 658 q 128 533 128 599 l 128 165 q 151 63 128 92 q 246 33 174 33 q 333 62 311 33 q 354 165 354 90 l 354 250 l 421 250 l 421 179 q 403 63 421 104 q 347 4 385 21 q 247 -12 308 -12 m 213 760 l 90 882 l 139 882 l 238 794 l 338 882 l 383 882 l 261 760 l 213 760 z "},"ç":{"ha":475,"x_min":61,"x_max":421,"o":"m 247 -12 q 138 3 179 -12 q 79 60 97 19 q 61 179 61 101 l 61 528 q 102 665 61 628 q 242 701 143 701 q 380 665 339 701 q 421 532 421 629 l 421 446 l 354 446 l 354 533 q 333 628 354 599 q 242 658 311 658 q 151 628 174 658 q 128 533 128 599 l 128 165 q 151 63 128 92 q 246 33 174 33 q 333 62 311 33 q 354 165 354 90 l 354 250 l 421 250 l 421 179 q 403 63 421 104 q 347 4 385 21 q 247 -12 308 -12 m 232 -196 q 195 -190 211 -196 q 168 -178 179 -183 l 179 -150 q 203 -160 188 -156 q 229 -165 219 -165 q 272 -153 258 -165 q 286 -122 286 -140 q 273 -92 286 -103 q 240 -82 260 -82 q 221 -85 231 -82 q 203 -96 211 -89 l 178 -82 l 222 0 l 256 0 l 218 -71 l 210 -68 q 232 -59 219 -61 q 256 -57 244 -57 q 308 -77 289 -57 q 328 -119 328 -97 q 303 -174 328 -153 q 232 -196 278 -196 z "},"ċ":{"ha":475,"x_min":61,"x_max":421,"o":"m 247 -12 q 138 3 179 -12 q 79 60 97 19 q 61 179 61 101 l 61 528 q 102 665 61 628 q 242 701 143 701 q 380 665 339 701 q 421 532 421 629 l 421 446 l 354 446 l 354 533 q 333 628 354 599 q 242 658 311 658 q 151 628 174 658 q 128 533 128 599 l 128 165 q 151 63 128 92 q 246 33 174 33 q 333 62 311 33 q 354 165 354 90 l 354 250 l 421 250 l 421 179 q 403 63 421 104 q 347 4 385 21 q 247 -12 308 -12 m 238 775 q 206 788 219 775 q 193 818 193 800 q 206 849 193 836 q 238 861 219 861 q 269 849 256 861 q 282 818 282 836 q 269 788 282 800 q 238 775 256 775 z "},"¸":{"ha":192,"x_min":0,"x_max":160,"o":"m 64 -196 q 27 -190 43 -196 q 0 -178 11 -183 l 11 -150 q 35 -160 19 -156 q 61 -165 51 -165 q 104 -153 90 -165 q 118 -122 118 -140 q 105 -92 118 -103 q 72 -82 92 -82 q 53 -85 63 -82 q 35 -96 43 -89 l 10 -82 l 54 0 l 88 0 l 50 -71 l 42 -68 q 64 -59 51 -61 q 88 -57 76 -57 q 140 -77 121 -57 q 160 -119 160 -97 q 135 -174 160 -153 q 64 -196 110 -196 z "},"̧":{"ha":0,"x_min":0,"x_max":160,"o":"m 64 -196 q 27 -190 43 -196 q 0 -178 11 -183 l 11 -150 q 35 -160 19 -156 q 61 -165 51 -165 q 104 -153 90 -165 q 118 -122 118 -140 q 105 -92 118 -103 q 72 -82 92 -82 q 53 -85 63 -82 q 35 -96 43 -89 l 10 -82 l 54 0 l 88 0 l 50 -71 l 42 -68 q 64 -59 51 -61 q 88 -57 76 -57 q 140 -77 121 -57 q 160 -119 160 -97 q 135 -174 160 -153 q 64 -196 110 -196 z "},"¢":{"ha":475,"x_min":64,"x_max":411,"o":"m 215 -87 l 215 69 q 137 84 171 71 q 83 132 103 97 q 64 233 64 167 l 64 631 q 83 724 64 692 q 137 769 103 756 q 215 783 171 782 l 215 897 l 264 897 l 264 782 q 339 766 306 779 q 392 721 372 753 q 411 631 411 689 l 411 515 l 351 515 l 351 631 q 337 706 351 682 q 297 738 322 729 q 238 746 271 746 q 178 738 204 746 q 138 706 153 729 q 124 631 124 682 l 124 224 q 138 147 124 172 q 178 115 153 122 q 238 107 204 107 q 297 115 272 107 q 337 147 322 122 q 351 224 351 172 l 351 318 l 411 318 l 411 233 q 391 133 411 168 q 338 85 371 99 q 264 71 306 72 l 264 -87 l 215 -87 z "},"ч":{"ha":453,"x_min":40,"x_max":390,"o":"m 326 0 l 326 272 q 280 215 315 239 q 193 192 244 192 q 93 215 126 192 q 50 281 60 239 q 40 378 40 324 l 40 688 l 107 688 l 107 375 q 128 275 107 310 q 213 240 149 240 q 290 267 264 240 q 322 321 315 294 l 322 688 l 390 688 l 390 0 l 326 0 z "},"ˆ":{"ha":321,"x_min":14,"x_max":307,"o":"m 14 760 l 136 882 l 185 882 l 307 760 l 260 760 l 160 846 l 63 760 l 14 760 z "},"̂":{"ha":0,"x_min":14,"x_max":307,"o":"m 14 760 l 136 882 l 185 882 l 307 760 l 260 760 l 160 846 l 63 760 l 14 760 z "},":":{"ha":231,"x_min":69,"x_max":161,"o":"m 115 385 q 83 397 96 385 q 69 428 69 410 q 83 459 69 446 q 115 472 96 472 q 147 459 133 472 q 161 428 161 446 q 147 397 161 410 q 115 385 133 385 m 115 -8 q 83 4 96 -8 q 69 35 69 17 q 83 66 69 53 q 115 79 96 79 q 147 66 133 79 q 161 35 161 53 q 147 4 161 17 q 115 -8 133 -8 z "},",":{"ha":243,"x_min":69,"x_max":174,"o":"m 69 -156 q 98 -96 83 -126 q 113 -42 113 -65 q 106 -12 113 -22 q 92 7 99 -1 q 85 32 85 15 q 97 61 85 49 q 128 74 108 74 q 161 60 149 74 q 174 24 174 46 q 163 -34 174 -3 q 136 -97 151 -65 q 103 -156 121 -129 l 69 -156 z "},"̦":{"ha":0,"x_min":0,"x_max":86,"o":"m 0 -215 q 25 -169 14 -192 q 36 -131 36 -147 q 30 -117 36 -122 q 17 -104 24 -111 q 11 -85 11 -97 q 22 -62 11 -72 q 47 -53 32 -53 q 76 -65 65 -53 q 86 -92 86 -78 q 78 -129 86 -107 q 57 -174 69 -151 q 31 -215 44 -197 l 0 -215 z "},"̒":{"ha":0,"x_min":-7,"x_max":79,"o":"m 79 915 q 54 869 65 892 q 43 831 43 846 q 50 817 43 822 q 63 804 57 811 q 69 785 69 797 q 58 763 69 772 q 32 753 47 753 q 4 765 15 753 q -7 792 -7 776 q 1 830 -7 808 q 23 874 10 851 q 49 915 36 897 l 79 915 z "},"©":{"ha":833,"x_min":63,"x_max":840,"o":"m 451 43 q 300 73 371 43 q 176 157 229 103 q 92 282 122 211 q 63 433 63 353 q 92 584 63 514 q 176 708 122 654 q 300 791 229 761 q 451 821 371 821 q 603 791 532 821 q 727 708 674 761 q 810 584 781 654 q 840 433 840 514 q 810 282 840 353 q 727 157 781 211 q 603 73 674 103 q 451 43 532 43 m 451 75 q 590 103 525 75 q 703 182 654 132 q 778 296 751 232 q 806 433 806 360 q 758 611 806 531 q 631 740 710 692 q 451 788 551 788 q 315 760 378 788 q 202 683 251 732 q 125 570 153 635 q 97 433 97 506 q 125 296 97 360 q 202 182 153 232 q 315 103 251 132 q 451 75 378 75 m 458 217 q 380 226 410 217 q 337 263 350 236 q 324 339 324 290 l 324 560 q 353 645 324 622 q 453 668 382 668 q 553 645 524 668 q 582 561 582 622 l 582 507 l 536 507 l 536 563 q 520 622 536 603 q 453 640 504 640 q 386 622 403 640 q 369 563 369 603 l 369 329 q 387 265 369 283 q 457 247 404 247 q 520 265 504 247 q 536 329 536 282 l 536 383 l 582 383 l 582 340 q 569 265 582 292 q 529 227 557 238 q 458 217 501 217 z "},"¤":{"ha":625,"x_min":64,"x_max":561,"o":"m 111 178 l 72 217 l 168 311 q 138 361 149 335 q 126 415 126 388 q 167 525 126 475 l 64 626 l 100 664 l 207 558 q 307 588 256 588 q 411 556 360 588 l 515 658 l 551 621 l 451 519 q 488 415 488 471 q 453 317 488 363 l 561 207 l 522 169 l 413 281 q 360 256 386 265 q 307 247 333 247 q 206 275 250 247 l 111 178 m 307 300 q 392 334 357 300 q 426 415 426 368 q 392 500 426 465 q 307 535 357 535 q 221 501 254 535 q 188 415 188 467 q 221 334 188 368 q 307 300 254 300 z "},"d":{"ha":503,"x_min":61,"x_max":424,"o":"m 228 -11 q 142 3 175 -11 q 90 42 108 17 q 67 102 72 67 q 61 181 61 138 l 61 525 q 67 593 61 561 q 91 649 74 625 q 140 686 108 672 q 222 700 171 700 q 311 684 279 700 q 357 643 343 668 l 357 875 l 424 875 l 424 0 l 378 0 l 369 65 q 346 28 363 46 q 301 0 329 11 q 228 -11 274 -11 m 239 32 q 308 48 283 32 q 343 90 333 64 q 355 149 353 117 q 357 210 357 181 l 357 582 q 342 614 353 597 q 307 644 331 631 q 242 657 283 657 q 174 644 197 657 q 141 610 151 632 q 129 563 131 589 q 128 510 128 538 l 128 176 q 132 107 128 140 q 160 53 136 74 q 239 32 183 32 z "},"†":{"ha":501,"x_min":64,"x_max":438,"o":"m 217 -171 l 217 468 l 64 468 l 64 514 l 217 514 l 217 813 l 278 813 l 278 514 l 438 514 l 438 468 l 278 468 l 278 -171 l 217 -171 z "},"‡":{"ha":504,"x_min":64,"x_max":440,"o":"m 218 -171 l 218 224 l 64 224 l 64 274 l 218 274 l 218 472 l 64 472 l 64 521 l 218 521 l 218 825 l 279 825 l 279 521 l 440 521 l 440 472 l 279 472 l 279 274 l 440 274 l 440 224 l 279 224 l 279 -171 l 218 -171 z "},"ď":{"ha":529,"x_min":61,"x_max":535,"o":"m 228 -11 q 142 3 175 -11 q 90 42 108 17 q 67 102 72 67 q 61 181 61 138 l 61 525 q 67 593 61 561 q 91 649 74 625 q 140 686 108 672 q 222 700 171 700 q 311 684 279 700 q 357 643 343 668 l 357 875 l 424 875 l 424 0 l 378 0 l 369 65 q 346 28 363 46 q 301 0 329 11 q 228 -11 274 -11 m 239 32 q 308 48 283 32 q 343 90 333 64 q 355 149 353 117 q 357 210 357 181 l 357 582 q 342 614 353 597 q 307 644 331 631 q 242 657 283 657 q 174 644 197 657 q 141 610 151 632 q 129 563 131 589 q 128 510 128 538 l 128 176 q 132 107 128 140 q 160 53 136 74 q 239 32 183 32 m 463 696 l 486 867 l 533 867 l 492 696 l 463 696 z "},"đ":{"ha":490,"x_min":61,"x_max":478,"o":"m 188 750 l 188 786 l 478 786 l 478 750 l 188 750 m 228 -11 q 142 3 175 -11 q 90 42 108 17 q 67 102 72 67 q 61 181 61 138 l 61 525 q 67 593 61 561 q 91 649 74 625 q 140 686 108 672 q 222 700 171 700 q 311 684 279 700 q 357 643 343 668 l 357 875 l 424 875 l 424 0 l 378 0 l 369 65 q 346 28 363 46 q 301 0 329 11 q 228 -11 274 -11 m 239 32 q 308 48 283 32 q 343 90 333 64 q 355 149 353 117 q 357 210 357 181 l 357 582 q 342 614 353 597 q 307 644 331 631 q 242 657 283 657 q 174 644 197 657 q 141 610 151 632 q 129 563 131 589 q 128 510 128 538 l 128 176 q 132 107 128 140 q 160 53 136 74 q 239 32 183 32 z "},"д":{"ha":679,"x_min":32,"x_max":647,"o":"m 32 -146 l 32 43 l 99 43 q 131 57 117 46 q 157 92 146 68 q 172 156 168 117 l 224 686 l 538 686 l 538 43 l 647 43 l 647 -146 l 589 -146 l 589 -10 l 90 -10 l 90 -146 l 32 -146 m 201 43 l 467 43 l 467 636 l 286 636 l 240 181 q 229 106 236 147 q 201 43 222 64 z "},"°":{"ha":447,"x_min":64,"x_max":385,"o":"m 224 508 q 103 554 142 508 q 64 664 64 600 q 101 774 64 728 q 226 821 138 821 q 321 800 286 821 q 370 744 356 779 q 385 665 385 708 q 346 553 385 597 q 224 508 307 508 m 225 543 q 310 576 279 543 q 340 664 340 610 q 310 751 340 714 q 224 788 281 788 q 140 753 171 788 q 110 663 110 718 q 143 576 110 610 q 225 543 176 543 z "},"¨":{"ha":236,"x_min":0,"x_max":206,"o":"m 40 775 q 12 786 24 775 q 0 814 0 797 q 12 841 0 831 q 40 851 24 851 q 68 841 57 851 q 79 814 79 831 q 68 786 79 797 q 40 775 57 775 m 167 775 q 138 786 150 775 q 126 814 126 797 q 138 841 126 831 q 167 851 150 851 q 194 841 183 851 q 206 814 206 831 q 194 786 206 797 q 167 775 183 775 z "},"̈":{"ha":0,"x_min":0,"x_max":206,"o":"m 40 775 q 12 786 24 775 q 0 814 0 797 q 12 841 0 831 q 40 851 24 851 q 68 841 57 851 q 79 814 79 831 q 68 786 79 797 q 40 775 57 775 m 167 775 q 138 786 150 775 q 126 814 126 797 q 138 841 126 831 q 167 851 150 851 q 194 841 183 851 q 206 814 206 831 q 194 786 206 797 q 167 775 183 775 z "},"÷":{"ha":504,"x_min":67,"x_max":438,"o":"m 67 379 l 67 429 l 438 429 l 438 379 l 67 379 m 251 131 q 221 142 233 131 q 208 172 208 153 q 221 201 208 189 q 251 213 233 213 q 283 201 269 213 q 296 172 296 189 q 283 142 296 153 q 251 131 269 131 m 251 575 q 221 587 233 575 q 208 617 208 599 q 221 647 208 635 q 251 658 233 658 q 283 647 269 658 q 296 617 296 635 q 283 587 296 599 q 251 575 269 575 z "},"∕":{"ha":550,"x_min":25,"x_max":535,"o":"m 25 -171 l 478 978 l 535 978 l 79 -171 l 25 -171 z "},"ђ":{"ha":554,"x_min":28,"x_max":488,"o":"m 335 -129 q 287 -124 308 -129 q 250 -111 265 -118 l 260 -75 q 284 -85 269 -81 q 317 -89 299 -89 q 399 -44 379 -89 q 419 79 419 0 l 419 436 q 394 520 418 486 q 301 554 369 554 q 223 535 249 554 q 188 485 197 515 q 178 426 179 456 q 178 375 178 396 l 178 0 l 110 0 l 110 728 l 28 728 l 28 769 l 110 769 l 110 875 l 178 875 l 178 769 l 313 769 l 313 728 l 178 728 l 178 519 q 228 575 192 553 q 318 597 264 597 q 419 577 382 597 q 472 517 456 557 q 488 418 488 478 l 488 89 q 475 -28 488 15 q 441 -93 463 -71 q 392 -122 419 -115 q 335 -129 365 -129 z "},"$":{"ha":475,"x_min":53,"x_max":410,"o":"m 225 -85 l 225 74 q 119 94 156 75 q 67 156 82 114 q 53 264 53 197 l 53 317 l 117 317 l 117 256 q 121 186 117 218 q 149 135 125 154 q 232 115 174 115 q 308 135 285 115 q 338 183 332 154 q 343 236 343 211 l 343 271 q 331 331 343 306 q 292 377 318 357 q 221 415 265 397 q 140 456 175 433 q 84 510 104 478 q 64 593 64 543 l 64 635 q 101 741 64 700 q 225 783 139 782 l 225 935 l 264 935 l 264 785 q 376 738 342 779 q 410 607 410 696 l 410 547 l 349 547 l 349 613 q 322 715 349 688 q 239 742 294 742 q 151 712 174 742 q 129 636 129 682 l 129 603 q 145 535 129 561 q 194 490 161 508 q 274 451 226 471 q 345 415 315 435 q 392 363 375 396 q 410 272 410 331 l 410 244 q 400 168 410 206 q 359 105 390 131 q 264 75 328 79 l 264 -85 l 225 -85 z "},"˙":{"ha":108,"x_min":0,"x_max":89,"o":"m 44 775 q 13 788 26 775 q 0 818 0 800 q 13 849 0 836 q 44 861 26 861 q 76 849 63 861 q 89 818 89 836 q 76 788 89 800 q 44 775 63 775 z "},"̇":{"ha":0,"x_min":0,"x_max":89,"o":"m 44 775 q 13 788 26 775 q 0 818 0 800 q 13 849 0 836 q 44 861 26 861 q 76 849 63 861 q 89 818 89 836 q 76 788 89 800 q 44 775 63 775 z "},"̣":{"ha":0,"x_min":14,"x_max":96,"o":"m 56 -142 q 26 -130 38 -142 q 14 -103 14 -118 q 26 -74 14 -86 q 56 -62 38 -62 q 83 -74 71 -62 q 96 -103 96 -86 q 83 -130 96 -118 q 56 -142 71 -142 z "},"↓":{"ha":710,"x_min":64,"x_max":647,"o":"m 357 0 l 64 310 l 97 344 l 329 110 l 329 986 l 382 986 l 382 111 l 615 343 l 647 310 l 357 0 z "},"ѕ":{"ha":474,"x_min":54,"x_max":418,"o":"m 236 -10 q 133 6 171 -10 q 79 49 96 22 q 58 110 63 76 q 54 181 54 144 l 54 233 l 121 233 l 121 174 q 125 103 121 136 q 153 51 129 71 q 236 32 178 32 q 313 51 289 32 q 342 99 336 71 q 347 153 347 128 l 347 188 q 335 249 347 222 q 295 294 322 275 q 224 332 268 314 q 141 373 176 351 q 85 427 106 394 q 65 510 65 460 l 65 551 q 106 661 65 621 q 242 701 146 701 q 342 684 304 701 q 399 628 381 667 q 418 525 418 589 l 418 464 l 353 464 l 353 529 q 326 632 353 604 q 243 660 299 660 q 155 629 178 660 q 132 554 132 599 l 132 519 q 149 451 132 478 q 198 407 165 425 q 279 368 231 389 q 351 332 319 351 q 400 280 382 313 q 418 189 418 247 l 418 161 q 406 79 418 118 q 354 15 393 40 q 236 -10 315 -10 z "},"џ":{"ha":503,"x_min":63,"x_max":442,"o":"m 224 -153 l 224 0 l 63 0 l 63 688 l 129 688 l 129 50 l 374 50 l 374 688 l 442 688 l 442 0 l 278 0 l 278 -153 l 224 -153 z "},"e":{"ha":475,"x_min":61,"x_max":421,"o":"m 249 -12 q 138 3 179 -12 q 79 61 97 19 q 61 181 61 103 l 61 532 q 102 663 61 628 q 242 699 143 699 q 380 663 339 699 q 421 532 421 628 l 421 357 l 128 357 l 128 161 q 151 60 128 89 q 246 31 174 31 q 333 58 311 31 q 354 161 354 86 l 354 244 l 421 244 l 421 182 q 403 63 421 106 q 347 4 385 21 q 249 -12 310 -12 m 128 394 l 354 394 l 354 536 q 333 629 354 600 q 242 658 311 658 q 151 629 174 658 q 128 536 128 600 l 128 394 z "},"é":{"ha":475,"x_min":61,"x_max":421,"o":"m 249 -12 q 138 3 179 -12 q 79 61 97 19 q 61 181 61 103 l 61 532 q 102 663 61 628 q 242 699 143 699 q 380 663 339 699 q 421 532 421 628 l 421 357 l 128 357 l 128 161 q 151 60 128 89 q 246 31 174 31 q 333 58 311 31 q 354 161 354 86 l 354 244 l 421 244 l 421 182 q 403 63 421 106 q 347 4 385 21 q 249 -12 310 -12 m 128 394 l 354 394 l 354 536 q 333 629 354 600 q 242 658 311 658 q 151 629 174 658 q 128 536 128 600 l 128 394 m 190 757 l 268 883 l 342 883 l 232 757 l 190 757 z "},"ě":{"ha":475,"x_min":61,"x_max":421,"o":"m 249 -12 q 138 3 179 -12 q 79 61 97 19 q 61 181 61 103 l 61 532 q 102 663 61 628 q 242 699 143 699 q 380 663 339 699 q 421 532 421 628 l 421 357 l 128 357 l 128 161 q 151 60 128 89 q 246 31 174 31 q 333 58 311 31 q 354 161 354 86 l 354 244 l 421 244 l 421 182 q 403 63 421 106 q 347 4 385 21 q 249 -12 310 -12 m 128 394 l 354 394 l 354 536 q 333 629 354 600 q 242 658 311 658 q 151 629 174 658 q 128 536 128 600 l 128 394 m 213 760 l 90 882 l 139 882 l 238 794 l 338 882 l 383 882 l 261 760 l 213 760 z "},"ê":{"ha":475,"x_min":61,"x_max":421,"o":"m 249 -12 q 138 3 179 -12 q 79 61 97 19 q 61 181 61 103 l 61 532 q 102 663 61 628 q 242 699 143 699 q 380 663 339 699 q 421 532 421 628 l 421 357 l 128 357 l 128 161 q 151 60 128 89 q 246 31 174 31 q 333 58 311 31 q 354 161 354 86 l 354 244 l 421 244 l 421 182 q 403 63 421 106 q 347 4 385 21 q 249 -12 310 -12 m 128 394 l 354 394 l 354 536 q 333 629 354 600 q 242 658 311 658 q 151 629 174 658 q 128 536 128 600 l 128 394 m 92 760 l 214 882 l 263 882 l 385 760 l 338 760 l 238 846 l 140 760 l 92 760 z "},"ế":{"ha":475,"x_min":61,"x_max":532,"o":"m 249 -12 q 138 3 179 -12 q 79 61 97 19 q 61 181 61 103 l 61 532 q 102 663 61 628 q 242 699 143 699 q 380 663 339 699 q 421 532 421 628 l 421 357 l 128 357 l 128 161 q 151 60 128 89 q 246 31 174 31 q 333 58 311 31 q 354 161 354 86 l 354 244 l 421 244 l 421 182 q 403 63 421 106 q 347 4 385 21 q 249 -12 310 -12 m 128 394 l 354 394 l 354 536 q 333 629 354 600 q 242 658 311 658 q 151 629 174 658 q 128 536 128 600 l 128 394 m 92 760 l 214 882 l 263 882 l 385 760 l 338 760 l 238 846 l 140 760 l 92 760 m 381 831 l 458 957 l 532 957 l 422 831 l 381 831 z "},"ệ":{"ha":475,"x_min":61,"x_max":421,"o":"m 249 -12 q 138 3 179 -12 q 79 61 97 19 q 61 181 61 103 l 61 532 q 102 663 61 628 q 242 699 143 699 q 380 663 339 699 q 421 532 421 628 l 421 357 l 128 357 l 128 161 q 151 60 128 89 q 246 31 174 31 q 333 58 311 31 q 354 161 354 86 l 354 244 l 421 244 l 421 182 q 403 63 421 106 q 347 4 385 21 q 249 -12 310 -12 m 128 394 l 354 394 l 354 536 q 333 629 354 600 q 242 658 311 658 q 151 629 174 658 q 128 536 128 600 l 128 394 m 239 -142 q 209 -130 221 -142 q 197 -103 197 -118 q 209 -74 197 -86 q 239 -62 221 -62 q 267 -74 254 -62 q 279 -103 279 -86 q 267 -130 279 -118 q 239 -142 254 -142 m 92 760 l 214 882 l 263 882 l 385 760 l 338 760 l 238 846 l 140 760 l 92 760 z "},"ề":{"ha":475,"x_min":61,"x_max":478,"o":"m 249 -12 q 138 3 179 -12 q 79 61 97 19 q 61 181 61 103 l 61 532 q 102 663 61 628 q 242 699 143 699 q 380 663 339 699 q 421 532 421 628 l 421 357 l 128 357 l 128 161 q 151 60 128 89 q 246 31 174 31 q 333 58 311 31 q 354 161 354 86 l 354 244 l 421 244 l 421 182 q 403 63 421 106 q 347 4 385 21 q 249 -12 310 -12 m 128 394 l 354 394 l 354 536 q 333 629 354 600 q 242 658 311 658 q 151 629 174 658 q 128 536 128 600 l 128 394 m 92 760 l 214 882 l 263 882 l 385 760 l 338 760 l 238 846 l 140 760 l 92 760 m 436 831 l 326 957 l 400 957 l 478 831 l 436 831 z "},"ể":{"ha":475,"x_min":61,"x_max":515,"o":"m 249 -12 q 138 3 179 -12 q 79 61 97 19 q 61 181 61 103 l 61 532 q 102 663 61 628 q 242 699 143 699 q 380 663 339 699 q 421 532 421 628 l 421 357 l 128 357 l 128 161 q 151 60 128 89 q 246 31 174 31 q 333 58 311 31 q 354 161 354 86 l 354 244 l 421 244 l 421 182 q 403 63 421 106 q 347 4 385 21 q 249 -12 310 -12 m 128 394 l 354 394 l 354 536 q 333 629 354 600 q 242 658 311 658 q 151 629 174 658 q 128 536 128 600 l 128 394 m 92 760 l 214 882 l 263 882 l 385 760 l 338 760 l 238 846 l 140 760 l 92 760 m 408 833 l 408 857 q 424 886 408 876 q 457 906 440 896 q 474 935 474 915 l 474 939 q 463 966 474 954 q 429 978 453 978 q 392 944 399 978 l 356 951 q 379 994 360 979 q 433 1010 399 1010 q 495 994 475 1010 q 515 939 515 978 l 515 936 q 499 894 515 906 q 465 874 482 882 q 447 850 447 867 l 447 833 l 408 833 z "},"ễ":{"ha":475,"x_min":61,"x_max":421,"o":"m 249 -12 q 138 3 179 -12 q 79 61 97 19 q 61 181 61 103 l 61 532 q 102 663 61 628 q 242 699 143 699 q 380 663 339 699 q 421 532 421 628 l 421 357 l 128 357 l 128 161 q 151 60 128 89 q 246 31 174 31 q 333 58 311 31 q 354 161 354 86 l 354 244 l 421 244 l 421 182 q 403 63 421 106 q 347 4 385 21 q 249 -12 310 -12 m 128 394 l 354 394 l 354 536 q 333 629 354 600 q 242 658 311 658 q 151 629 174 658 q 128 536 128 600 l 128 394 m 92 760 l 214 882 l 263 882 l 385 760 l 338 760 l 238 846 l 140 760 l 92 760 m 294 913 q 264 918 276 913 q 232 936 251 924 q 206 953 221 944 q 175 963 192 963 q 147 951 158 963 q 132 914 136 939 l 101 914 q 124 975 104 951 q 176 999 143 999 q 210 991 194 999 q 242 972 226 983 q 268 957 256 964 q 294 950 281 950 q 323 961 311 950 q 339 997 335 972 l 371 997 q 359 951 369 971 q 332 922 349 932 q 294 913 315 913 z "},"ë":{"ha":475,"x_min":61,"x_max":421,"o":"m 249 -12 q 138 3 179 -12 q 79 61 97 19 q 61 181 61 103 l 61 532 q 102 663 61 628 q 242 699 143 699 q 380 663 339 699 q 421 532 421 628 l 421 357 l 128 357 l 128 161 q 151 60 128 89 q 246 31 174 31 q 333 58 311 31 q 354 161 354 86 l 354 244 l 421 244 l 421 182 q 403 63 421 106 q 347 4 385 21 q 249 -12 310 -12 m 128 394 l 354 394 l 354 536 q 333 629 354 600 q 242 658 311 658 q 151 629 174 658 q 128 536 128 600 l 128 394 m 175 775 q 147 786 158 775 q 135 814 135 797 q 147 841 135 831 q 175 851 158 851 q 203 841 192 851 q 214 814 214 831 q 203 786 214 797 q 175 775 192 775 m 301 775 q 273 786 285 775 q 261 814 261 797 q 273 841 261 831 q 301 851 285 851 q 329 841 318 851 q 340 814 340 831 q 329 786 340 797 q 301 775 318 775 z "},"ė":{"ha":475,"x_min":61,"x_max":421,"o":"m 249 -12 q 138 3 179 -12 q 79 61 97 19 q 61 181 61 103 l 61 532 q 102 663 61 628 q 242 699 143 699 q 380 663 339 699 q 421 532 421 628 l 421 357 l 128 357 l 128 161 q 151 60 128 89 q 246 31 174 31 q 333 58 311 31 q 354 161 354 86 l 354 244 l 421 244 l 421 182 q 403 63 421 106 q 347 4 385 21 q 249 -12 310 -12 m 128 394 l 354 394 l 354 536 q 333 629 354 600 q 242 658 311 658 q 151 629 174 658 q 128 536 128 600 l 128 394 m 238 775 q 206 788 219 775 q 193 818 193 800 q 206 849 193 836 q 238 861 219 861 q 269 849 256 861 q 282 818 282 836 q 269 788 282 800 q 238 775 256 775 z "},"ẹ":{"ha":475,"x_min":61,"x_max":421,"o":"m 249 -12 q 138 3 179 -12 q 79 61 97 19 q 61 181 61 103 l 61 532 q 102 663 61 628 q 242 699 143 699 q 380 663 339 699 q 421 532 421 628 l 421 357 l 128 357 l 128 161 q 151 60 128 89 q 246 31 174 31 q 333 58 311 31 q 354 161 354 86 l 354 244 l 421 244 l 421 182 q 403 63 421 106 q 347 4 385 21 q 249 -12 310 -12 m 128 394 l 354 394 l 354 536 q 333 629 354 600 q 242 658 311 658 q 151 629 174 658 q 128 536 128 600 l 128 394 m 239 -142 q 209 -130 221 -142 q 197 -103 197 -118 q 209 -74 197 -86 q 239 -62 221 -62 q 267 -74 254 -62 q 279 -103 279 -86 q 267 -130 279 -118 q 239 -142 254 -142 z "},"ф":{"ha":813,"x_min":61,"x_max":751,"o":"m 372 -161 l 372 53 q 322 8 356 25 q 232 -10 289 -10 q 96 42 131 -10 q 61 189 61 94 l 61 461 q 75 561 61 519 q 126 625 89 603 q 235 647 164 647 q 324 630 290 647 q 372 581 358 613 l 372 821 l 439 821 l 439 583 q 488 631 453 614 q 576 647 522 647 q 685 625 647 647 q 738 561 724 603 q 751 461 751 519 l 751 189 q 716 42 751 94 q 581 -10 681 -10 q 490 8 524 -10 q 439 54 456 25 l 439 -161 l 372 -161 m 246 31 q 327 53 300 31 q 363 110 354 76 q 372 175 372 143 l 372 453 q 365 524 372 489 q 331 583 358 560 q 247 607 304 607 q 166 586 192 607 q 134 531 140 565 q 128 457 128 497 l 128 182 q 136 106 128 140 q 170 51 144 72 q 246 31 196 31 m 569 31 q 644 51 619 31 q 676 106 668 72 q 685 182 685 140 l 685 457 q 678 531 685 497 q 647 585 671 564 q 567 607 622 607 q 486 585 514 607 q 449 532 458 564 q 439 465 439 500 l 439 179 q 449 112 439 146 q 486 54 458 78 q 569 31 514 31 z "},"è":{"ha":475,"x_min":61,"x_max":421,"o":"m 249 -12 q 138 3 179 -12 q 79 61 97 19 q 61 181 61 103 l 61 532 q 102 663 61 628 q 242 699 143 699 q 380 663 339 699 q 421 532 421 628 l 421 357 l 128 357 l 128 161 q 151 60 128 89 q 246 31 174 31 q 333 58 311 31 q 354 161 354 86 l 354 244 l 421 244 l 421 182 q 403 63 421 106 q 347 4 385 21 q 249 -12 310 -12 m 128 394 l 354 394 l 354 536 q 333 629 354 600 q 242 658 311 658 q 151 629 174 658 q 128 536 128 600 l 128 394 m 246 757 l 136 883 l 210 883 l 288 757 l 246 757 z "},"ẻ":{"ha":475,"x_min":61,"x_max":421,"o":"m 249 -12 q 138 3 179 -12 q 79 61 97 19 q 61 181 61 103 l 61 532 q 102 663 61 628 q 242 699 143 699 q 380 663 339 699 q 421 532 421 628 l 421 357 l 128 357 l 128 161 q 151 60 128 89 q 246 31 174 31 q 333 58 311 31 q 354 161 354 86 l 354 244 l 421 244 l 421 182 q 403 63 421 106 q 347 4 385 21 q 249 -12 310 -12 m 128 394 l 354 394 l 354 536 q 333 629 354 600 q 242 658 311 658 q 151 629 174 658 q 128 536 128 600 l 128 394 m 218 760 l 218 783 q 234 813 218 803 q 267 832 250 822 q 283 861 283 842 l 283 865 q 273 892 283 881 q 239 904 263 904 q 201 871 208 904 l 165 878 q 189 921 169 906 q 243 936 208 936 q 305 920 285 936 q 325 865 325 904 l 325 863 q 308 820 325 832 q 274 801 292 808 q 257 776 257 793 l 257 760 l 218 760 z "},"л":{"ha":526,"x_min":25,"x_max":465,"o":"m 25 0 l 25 40 q 71 65 53 40 q 93 144 89 90 l 138 686 l 465 686 l 465 0 l 396 0 l 396 636 l 206 636 l 160 124 q 153 87 157 108 q 140 46 150 65 q 110 13 129 26 q 60 0 90 0 l 25 0 z "},"…":{"ha":632,"x_min":69,"x_max":563,"o":"m 115 -8 q 83 4 96 -8 q 69 35 69 17 q 83 66 69 53 q 115 79 96 79 q 147 66 133 79 q 161 35 161 53 q 147 4 161 17 q 115 -8 133 -8 m 325 -7 q 292 6 306 -7 q 279 36 279 18 q 292 67 279 54 q 325 81 306 81 q 357 67 343 81 q 371 36 371 54 q 357 6 371 18 q 325 -7 343 -7 m 517 -7 q 484 6 497 -7 q 471 36 471 18 q 484 67 471 54 q 517 81 497 81 q 549 67 535 81 q 563 36 563 54 q 549 6 563 18 q 517 -7 535 -7 z "},"м":{"ha":646,"x_min":63,"x_max":585,"o":"m 63 0 l 63 688 l 138 688 l 325 90 l 513 688 l 585 688 l 585 0 l 526 0 l 526 550 l 350 0 l 297 0 l 121 550 l 121 0 l 63 0 z "},"ē":{"ha":475,"x_min":61,"x_max":421,"o":"m 249 -12 q 138 3 179 -12 q 79 61 97 19 q 61 181 61 103 l 61 532 q 102 663 61 628 q 242 699 143 699 q 380 663 339 699 q 421 532 421 628 l 421 357 l 128 357 l 128 161 q 151 60 128 89 q 246 31 174 31 q 333 58 311 31 q 354 161 354 86 l 354 244 l 421 244 l 421 182 q 403 63 421 106 q 347 4 385 21 q 249 -12 310 -12 m 128 394 l 354 394 l 354 536 q 333 629 354 600 q 242 658 311 658 q 151 629 174 658 q 128 536 128 600 l 128 394 m 113 788 l 113 826 l 363 826 l 363 788 l 113 788 z "},"—":{"ha":811,"x_min":31,"x_max":781,"o":"m 31 336 l 31 386 l 781 386 l 781 336 l 31 336 z "},"∅":{"ha":567,"x_min":49,"x_max":535,"o":"m 49 88 l 488 781 l 519 781 l 79 88 l 49 88 m 325 -17 q 221 10 268 -17 q 146 91 174 36 q 118 232 118 146 l 118 593 q 179 774 118 715 q 328 832 240 832 q 475 773 415 832 q 535 593 535 714 l 535 232 q 507 89 535 144 q 432 8 479 33 q 325 -17 385 -17 m 326 26 q 427 74 388 26 q 467 210 467 122 l 467 604 q 426 740 467 692 q 326 788 385 788 q 226 740 267 788 q 186 604 186 692 l 186 210 q 226 74 186 122 q 326 26 267 26 z "},"н":{"ha":500,"x_min":63,"x_max":438,"o":"m 63 0 l 63 688 l 129 688 l 129 388 l 372 388 l 372 688 l 438 688 l 438 0 l 372 0 l 372 336 l 129 336 l 129 0 l 63 0 z "},"–":{"ha":483,"x_min":31,"x_max":453,"o":"m 31 336 l 31 386 l 453 386 l 453 336 l 31 336 z "},"ŋ":{"ha":489,"x_min":63,"x_max":425,"o":"m 251 -154 q 231 -153 242 -154 q 214 -150 221 -153 l 214 -112 q 222 -113 215 -112 q 235 -115 228 -114 q 247 -115 243 -115 q 329 -97 300 -115 q 358 -24 358 -79 l 358 504 q 355 574 358 540 q 328 628 351 607 q 246 649 304 649 q 181 634 204 649 q 145 599 157 619 q 129 563 133 579 l 129 0 l 63 0 l 63 688 l 117 688 l 126 615 q 181 680 142 661 q 264 699 221 699 q 373 672 339 699 q 416 604 407 646 q 425 517 425 563 l 425 -10 q 402 -103 425 -71 q 340 -144 379 -135 q 251 -154 300 -154 z "},"ę":{"ha":475,"x_min":61,"x_max":421,"o":"m 249 -12 q 138 3 179 -12 q 79 61 97 19 q 61 181 61 103 l 61 532 q 102 663 61 628 q 242 699 143 699 q 380 663 339 699 q 421 532 421 628 l 421 357 l 128 357 l 128 161 q 151 60 128 89 q 246 31 174 31 q 333 58 311 31 q 354 161 354 86 l 354 244 l 421 244 l 421 182 q 403 63 421 106 q 347 4 385 21 q 249 -12 310 -12 m 128 394 l 354 394 l 354 536 q 333 629 354 600 q 242 658 311 658 q 151 629 174 658 q 128 536 128 600 l 128 394 m 263 -185 q 199 -162 226 -185 q 172 -106 172 -140 q 199 -39 172 -67 q 257 0 226 -11 l 296 0 q 240 -44 260 -18 q 221 -97 221 -71 q 239 -139 221 -125 q 275 -153 257 -153 q 297 -149 288 -153 q 313 -143 307 -146 l 324 -169 q 300 -179 315 -174 q 263 -185 285 -185 z "},"=":{"ha":569,"x_min":69,"x_max":500,"o":"m 69 524 l 69 575 l 500 575 l 500 524 l 69 524 m 69 226 l 69 279 l 500 279 l 500 226 l 69 226 z "},"р":{"ha":503,"x_min":79,"x_max":442,"o":"m 79 -161 l 79 688 l 139 688 l 142 625 q 184 676 156 656 q 278 697 213 697 q 383 674 349 697 q 430 610 418 650 q 442 521 442 571 l 442 181 q 431 85 442 128 q 385 16 419 42 q 278 -10 350 -10 q 192 7 225 -10 q 144 47 160 24 l 144 -161 l 79 -161 m 260 33 q 328 45 304 33 q 362 78 351 57 q 374 124 372 99 q 375 178 375 150 l 375 508 q 374 561 375 535 q 362 608 372 588 q 328 642 351 629 q 260 654 304 654 q 193 638 217 654 q 159 597 169 622 q 147 540 149 571 q 146 483 146 510 l 146 168 q 153 100 146 131 q 184 51 160 69 q 260 33 208 33 z "},"э":{"ha":501,"x_min":63,"x_max":439,"o":"m 253 -11 q 131 13 171 -11 q 76 82 90 38 q 63 189 63 126 l 63 240 l 129 240 l 129 176 q 135 103 129 136 q 169 49 142 69 q 253 29 196 29 q 338 51 313 29 q 367 106 363 72 q 372 175 372 139 l 372 329 l 158 329 l 158 374 l 372 374 l 372 511 q 367 581 372 547 q 338 637 363 615 q 253 658 313 658 q 169 638 196 658 q 135 585 142 618 q 129 510 129 551 l 129 457 l 63 457 l 63 511 q 76 608 63 565 q 130 674 89 650 q 253 699 171 699 q 351 683 315 699 q 407 642 388 668 q 433 583 426 617 q 439 514 439 550 l 439 186 q 433 108 439 144 q 407 44 426 71 q 351 3 388 18 q 253 -11 315 -11 z "},"с":{"ha":475,"x_min":61,"x_max":421,"o":"m 247 -12 q 138 3 179 -12 q 79 60 97 19 q 61 179 61 101 l 61 528 q 102 665 61 628 q 242 701 143 701 q 380 665 339 701 q 421 532 421 629 l 421 446 l 354 446 l 354 533 q 333 628 354 599 q 242 658 311 658 q 151 628 174 658 q 128 533 128 599 l 128 165 q 151 63 128 92 q 246 33 174 33 q 333 62 311 33 q 354 165 354 90 l 354 250 l 421 250 l 421 179 q 403 63 421 104 q 347 4 385 21 q 247 -12 308 -12 z "},"ð":{"ha":489,"x_min":61,"x_max":421,"o":"m 235 -11 q 175 -7 206 -11 q 119 14 144 -3 q 77 67 93 31 q 61 167 61 103 l 61 513 q 83 626 61 589 q 144 673 106 663 q 229 683 182 683 q 301 673 265 683 q 353 633 338 663 q 342 763 350 710 q 305 844 333 817 q 213 872 276 872 q 142 866 174 872 q 88 854 110 860 l 88 900 q 142 913 108 904 q 221 921 176 921 q 332 899 292 921 q 391 831 372 876 q 415 718 410 786 q 421 557 421 650 l 421 218 q 413 133 421 174 q 385 60 406 92 q 329 8 365 28 q 235 -11 293 -11 m 235 29 q 312 56 286 29 q 346 122 338 82 q 354 199 354 161 l 354 561 q 344 590 354 569 q 308 627 333 610 q 233 644 282 644 q 163 627 186 644 q 134 581 140 610 q 128 511 128 551 l 128 144 q 139 81 128 104 q 168 47 150 57 q 204 33 186 36 q 235 29 222 29 m 197 743 l 174 771 l 399 961 l 421 932 l 197 743 z "},"ẽ":{"ha":475,"x_min":61,"x_max":421,"o":"m 249 -12 q 138 3 179 -12 q 79 61 97 19 q 61 181 61 103 l 61 532 q 102 663 61 628 q 242 699 143 699 q 380 663 339 699 q 421 532 421 628 l 421 357 l 128 357 l 128 161 q 151 60 128 89 q 246 31 174 31 q 333 58 311 31 q 354 161 354 86 l 354 244 l 421 244 l 421 182 q 403 63 421 106 q 347 4 385 21 q 249 -12 310 -12 m 128 394 l 354 394 l 354 536 q 333 629 354 600 q 242 658 311 658 q 151 629 174 658 q 128 536 128 600 l 128 394 m 296 771 q 265 776 278 771 q 233 794 253 782 q 208 812 222 803 q 176 821 193 821 q 149 809 160 821 q 133 772 138 797 l 103 772 q 125 833 106 810 q 178 857 144 857 q 212 849 196 857 q 243 831 228 842 q 269 815 257 822 q 296 808 282 808 q 324 819 313 808 q 340 856 336 831 l 372 856 q 360 810 371 829 q 333 781 350 790 q 296 771 317 771 z "},"€":{"ha":628,"x_min":61,"x_max":565,"o":"m 363 -17 q 260 -3 306 -17 q 188 52 214 10 q 163 181 163 94 l 163 329 l 61 329 l 75 361 l 163 361 l 163 453 l 61 453 l 75 486 l 163 486 l 163 650 q 189 767 163 728 q 261 819 215 806 q 364 832 307 832 q 467 818 421 832 q 539 766 513 804 q 565 650 565 728 l 565 610 l 497 610 l 497 650 q 480 740 497 711 q 433 779 463 769 q 363 789 403 789 q 293 779 324 789 q 246 740 263 769 q 229 650 229 711 l 229 486 l 443 486 l 428 453 l 229 453 l 229 361 l 389 361 l 375 329 l 229 329 l 229 165 q 246 75 229 104 q 293 36 263 46 q 363 26 324 26 q 433 36 403 26 q 481 75 464 46 q 497 165 497 104 l 497 240 l 565 240 l 565 181 q 539 51 565 93 q 467 -3 513 10 q 363 -17 421 -17 z "},"!":{"ha":229,"x_min":68,"x_max":164,"o":"m 93 269 l 81 501 l 78 875 l 149 875 l 146 504 l 133 269 l 93 269 m 115 -8 q 82 5 96 -8 q 68 38 68 18 q 82 67 68 54 q 115 81 96 81 q 149 67 135 81 q 164 38 164 54 q 149 5 164 18 q 115 -8 135 -8 z "},"¡":{"ha":229,"x_min":68,"x_max":164,"o":"m 93 414 l 133 414 l 146 179 l 149 -192 l 78 -192 l 81 181 l 93 414 m 115 690 q 149 678 135 690 q 164 646 164 665 q 149 616 164 629 q 115 603 135 603 q 82 616 96 603 q 68 646 68 629 q 82 678 68 665 q 115 690 96 690 z "},"f":{"ha":321,"x_min":47,"x_max":318,"o":"m 90 0 l 90 618 l 47 618 l 47 661 l 90 661 l 90 750 q 98 810 90 785 q 122 851 106 835 q 159 874 138 867 q 208 882 181 882 q 249 881 228 882 q 290 878 271 881 q 318 876 308 876 l 318 835 q 288 838 318 835 q 222 842 257 842 q 170 811 185 842 q 156 747 156 781 l 156 661 l 318 661 l 318 618 l 156 618 l 156 0 l 90 0 z "},"ﬁ":{"ha":544,"x_min":47,"x_max":478,"o":"m 90 0 l 90 618 l 47 618 l 47 661 l 90 661 l 90 750 q 98 810 90 785 q 122 851 106 835 q 159 874 138 867 q 208 882 181 882 q 249 881 228 882 q 290 878 271 881 q 318 876 308 876 l 318 835 q 288 838 318 835 q 222 842 257 842 q 170 811 185 842 q 156 747 156 781 l 156 661 l 318 661 l 318 618 l 156 618 l 156 0 l 90 0 m 400 0 l 400 688 l 465 688 l 465 0 l 400 0 m 433 775 q 402 788 415 775 q 389 818 389 800 q 402 849 389 836 q 433 861 415 861 q 465 849 451 861 q 478 818 478 836 q 465 788 478 800 q 433 775 451 775 z "},"ﬂ":{"ha":544,"x_min":47,"x_max":465,"o":"m 90 0 l 90 618 l 47 618 l 47 661 l 90 661 l 90 750 q 98 810 90 785 q 122 851 106 835 q 159 874 138 867 q 208 882 181 882 q 249 881 228 882 q 290 878 271 881 q 318 876 308 876 l 318 835 q 288 838 318 835 q 222 842 257 842 q 170 811 185 842 q 156 747 156 781 l 156 661 l 318 661 l 318 618 l 156 618 l 156 0 l 90 0 m 400 0 l 400 882 l 465 882 l 465 0 l 400 0 z "},"ƒ":{"ha":421,"x_min":-135,"x_max":401,"o":"m -33 -204 q -73 -203 -51 -204 q -112 -200 -94 -201 q -135 -199 -129 -199 l -131 -154 l -44 -160 q 10 -147 -10 -161 q 41 -106 31 -132 q 57 -47 51 -81 l 131 561 l 63 561 l 67 601 l 135 601 l 153 740 q 194 840 164 806 q 282 874 225 874 q 313 874 296 874 q 347 873 331 874 q 378 871 364 872 q 401 868 393 869 l 396 826 q 360 831 386 829 q 303 832 333 832 q 240 800 258 832 q 217 732 222 768 l 199 601 l 350 601 l 347 561 l 196 561 l 119 -62 q 75 -167 111 -131 q -33 -204 39 -204 z "},"⁴":{"ha":328,"x_min":7,"x_max":299,"o":"m 196 328 l 196 428 l 7 428 l 7 468 l 201 821 l 246 821 l 246 464 l 299 464 l 299 428 l 246 428 l 246 328 l 196 328 m 51 464 l 196 464 l 196 721 l 51 464 z "},"⁄":{"ha":519,"x_min":-118,"x_max":493,"o":"m -118 0 l 440 814 l 493 814 l -68 0 l -118 0 z "},"₣":{"ha":524,"x_min":58,"x_max":472,"o":"m 125 0 l 125 208 l 58 208 l 58 246 l 125 246 l 125 821 l 472 821 l 472 771 l 194 771 l 194 457 l 413 457 l 413 404 l 194 404 l 194 246 l 328 246 l 328 208 l 194 208 l 194 0 l 125 0 z "},"g":{"ha":489,"x_min":61,"x_max":421,"o":"m 225 -162 q 191 -161 210 -162 q 154 -158 172 -160 q 123 -154 136 -156 q 106 -151 110 -153 l 106 -111 q 152 -117 122 -112 q 207 -121 182 -121 q 248 -118 224 -121 q 297 -102 272 -115 q 339 -58 322 -89 q 356 31 356 -28 l 356 124 q 327 74 346 94 q 281 42 308 53 q 215 31 253 31 q 165 35 192 31 q 114 55 138 39 q 76 106 90 71 q 61 206 61 142 l 61 532 q 73 618 61 585 q 106 668 85 651 q 154 691 126 685 q 214 697 182 697 q 299 683 257 697 q 356 629 342 669 l 364 685 l 421 685 l 421 47 q 406 -48 421 -8 q 366 -112 392 -87 q 304 -150 340 -137 q 225 -162 268 -162 m 235 75 q 312 101 286 75 q 346 166 338 126 q 354 244 354 206 l 354 579 q 336 612 349 594 q 299 642 324 629 q 233 654 275 654 q 152 627 176 654 q 128 528 128 600 l 128 190 q 139 126 128 150 q 168 92 150 103 q 204 78 186 82 q 235 75 222 75 z "},"ğ":{"ha":489,"x_min":61,"x_max":421,"o":"m 225 -162 q 191 -161 210 -162 q 154 -158 172 -160 q 123 -154 136 -156 q 106 -151 110 -153 l 106 -111 q 152 -117 122 -112 q 207 -121 182 -121 q 248 -118 224 -121 q 297 -102 272 -115 q 339 -58 322 -89 q 356 31 356 -28 l 356 124 q 327 74 346 94 q 281 42 308 53 q 215 31 253 31 q 165 35 192 31 q 114 55 138 39 q 76 106 90 71 q 61 206 61 142 l 61 532 q 73 618 61 585 q 106 668 85 651 q 154 691 126 685 q 214 697 182 697 q 299 683 257 697 q 356 629 342 669 l 364 685 l 421 685 l 421 47 q 406 -48 421 -8 q 366 -112 392 -87 q 304 -150 340 -137 q 225 -162 268 -162 m 235 75 q 312 101 286 75 q 346 166 338 126 q 354 244 354 206 l 354 579 q 336 612 349 594 q 299 642 324 629 q 233 654 275 654 q 152 627 176 654 q 128 528 128 600 l 128 190 q 139 126 128 150 q 168 92 150 103 q 204 78 186 82 q 235 75 222 75 m 249 758 q 170 778 199 758 q 130 826 142 799 q 117 878 118 854 l 160 878 q 190 816 165 836 q 249 796 214 796 q 310 815 286 796 q 339 878 335 835 l 382 878 q 366 824 379 851 q 324 777 353 796 q 249 758 296 758 z "},"ģ":{"ha":489,"x_min":61,"x_max":421,"o":"m 292 915 q 266 869 276 892 q 256 831 256 846 q 262 817 256 822 q 274 804 268 811 q 281 785 281 797 q 269 763 281 772 q 244 753 258 753 q 215 765 226 753 q 204 792 204 776 q 213 830 204 808 q 234 874 221 851 q 261 915 247 897 l 292 915 m 225 -162 q 191 -161 210 -162 q 154 -158 172 -160 q 123 -154 136 -156 q 106 -151 110 -153 l 106 -111 q 152 -117 122 -112 q 207 -121 182 -121 q 248 -118 224 -121 q 297 -102 272 -115 q 339 -58 322 -89 q 356 31 356 -28 l 356 124 q 327 74 346 94 q 281 42 308 53 q 215 31 253 31 q 165 35 192 31 q 114 55 138 39 q 76 106 90 71 q 61 206 61 142 l 61 532 q 73 618 61 585 q 106 668 85 651 q 154 691 126 685 q 214 697 182 697 q 299 683 257 697 q 356 629 342 669 l 364 685 l 421 685 l 421 47 q 406 -48 421 -8 q 366 -112 392 -87 q 304 -150 340 -137 q 225 -162 268 -162 m 235 75 q 312 101 286 75 q 346 166 338 126 q 354 244 354 206 l 354 579 q 336 612 349 594 q 299 642 324 629 q 233 654 275 654 q 152 627 176 654 q 128 528 128 600 l 128 190 q 139 126 128 150 q 168 92 150 103 q 204 78 186 82 q 235 75 222 75 z "},"ġ":{"ha":489,"x_min":61,"x_max":421,"o":"m 225 -162 q 191 -161 210 -162 q 154 -158 172 -160 q 123 -154 136 -156 q 106 -151 110 -153 l 106 -111 q 152 -117 122 -112 q 207 -121 182 -121 q 248 -118 224 -121 q 297 -102 272 -115 q 339 -58 322 -89 q 356 31 356 -28 l 356 124 q 327 74 346 94 q 281 42 308 53 q 215 31 253 31 q 165 35 192 31 q 114 55 138 39 q 76 106 90 71 q 61 206 61 142 l 61 532 q 73 618 61 585 q 106 668 85 651 q 154 691 126 685 q 214 697 182 697 q 299 683 257 697 q 356 629 342 669 l 364 685 l 421 685 l 421 47 q 406 -48 421 -8 q 366 -112 392 -87 q 304 -150 340 -137 q 225 -162 268 -162 m 235 75 q 312 101 286 75 q 346 166 338 126 q 354 244 354 206 l 354 579 q 336 612 349 594 q 299 642 324 629 q 233 654 275 654 q 152 627 176 654 q 128 528 128 600 l 128 190 q 139 126 128 150 q 168 92 150 103 q 204 78 186 82 q 235 75 222 75 m 250 775 q 219 788 232 775 q 206 818 206 800 q 219 849 206 836 q 250 861 232 861 q 281 849 268 861 q 294 818 294 836 q 281 788 294 800 q 250 775 268 775 z "},"г":{"ha":399,"x_min":63,"x_max":374,"o":"m 63 0 l 63 688 l 374 688 l 374 636 l 132 636 l 132 0 l 63 0 z "},"ß":{"ha":521,"x_min":-51,"x_max":486,"o":"m 21 -204 q -17 -202 6 -204 q -51 -199 -40 -200 l -51 -157 q -42 -158 -46 -158 q -32 -160 -37 -158 q -15 -162 -25 -161 q 10 -162 -4 -162 q 78 -133 61 -162 q 94 -64 94 -104 l 94 638 l 47 638 l 47 688 l 94 688 l 94 725 q 108 811 94 778 q 163 860 122 844 q 281 876 203 876 q 420 847 372 876 q 468 740 468 817 l 468 608 q 444 514 468 550 q 388 475 419 478 l 388 469 q 433 451 411 467 q 471 408 456 436 q 486 339 486 381 l 486 168 q 463 60 486 96 q 401 12 440 24 q 307 0 361 0 l 207 0 l 207 42 l 301 42 q 363 53 338 42 q 402 96 389 64 q 415 192 415 128 l 415 332 q 398 402 415 376 q 351 438 381 428 q 283 449 322 449 l 228 449 l 229 490 l 301 490 q 383 524 363 490 q 403 615 403 558 l 403 725 q 374 810 403 782 q 281 838 344 838 q 202 820 228 838 q 169 778 176 803 q 161 726 161 753 l 161 -53 q 151 -122 161 -93 q 123 -169 142 -150 q 78 -196 104 -187 q 21 -204 53 -204 z "},"ѓ":{"ha":399,"x_min":63,"x_max":374,"o":"m 63 0 l 63 688 l 374 688 l 374 636 l 132 636 l 132 0 l 63 0 m 151 757 l 229 883 l 303 883 l 193 757 l 151 757 z "},"`":{"ha":179,"x_min":0,"x_max":151,"o":"m 110 757 l 0 883 l 74 883 l 151 757 l 110 757 z "},"̀":{"ha":0,"x_min":0,"x_max":151,"o":"m 110 757 l 0 883 l 74 883 l 151 757 l 110 757 z "},">":{"ha":479,"x_min":75,"x_max":404,"o":"m 75 206 l 75 276 l 343 454 l 75 635 l 75 703 l 404 481 l 404 429 l 75 206 z "},"≥":{"ha":479,"x_min":74,"x_max":404,"o":"m 74 -3 l 74 47 l 393 47 l 393 -3 l 74 -3 m 75 206 l 75 276 l 343 454 l 75 635 l 75 703 l 404 481 l 404 429 l 75 206 z "},"«":{"ha":639,"x_min":64,"x_max":575,"o":"m 494 153 l 325 397 l 507 660 l 575 660 l 394 397 l 564 153 l 494 153 m 233 153 l 64 397 l 246 660 l 314 660 l 135 397 l 301 153 l 233 153 z "},"»":{"ha":639,"x_min":64,"x_max":575,"o":"m 338 153 l 506 397 l 325 660 l 393 660 l 575 397 l 406 153 l 338 153 m 76 153 l 244 397 l 64 660 l 132 660 l 314 397 l 144 153 l 76 153 z "},"‹":{"ha":376,"x_min":64,"x_max":313,"o":"m 233 153 l 64 397 l 246 660 l 313 660 l 135 397 l 301 153 l 233 153 z "},"›":{"ha":376,"x_min":64,"x_max":313,"o":"m 75 153 l 243 397 l 64 660 l 132 660 l 313 397 l 143 153 l 75 153 z "},"h":{"ha":508,"x_min":79,"x_max":443,"o":"m 79 0 l 79 875 l 143 875 l 143 633 q 193 681 158 664 q 279 699 228 699 q 389 672 354 699 q 433 605 424 646 q 443 517 443 564 l 443 0 l 376 0 l 376 501 q 375 549 376 524 q 363 595 374 574 q 329 631 353 617 q 261 646 306 646 q 195 633 219 646 q 160 601 171 619 q 146 571 149 583 l 146 0 l 79 0 z "},"х":{"ha":428,"x_min":14,"x_max":413,"o":"m 14 0 l 174 364 l 36 688 l 101 688 l 215 421 l 335 688 l 397 688 l 256 364 l 413 0 l 349 0 l 214 303 l 79 0 l 14 0 z "},"ъ":{"ha":557,"x_min":25,"x_max":494,"o":"m 117 0 l 117 643 l 25 643 l 25 688 l 185 688 l 185 471 l 326 471 q 425 451 389 471 q 478 393 461 432 q 494 294 494 354 l 494 201 q 485 108 494 147 q 455 46 475 69 q 402 11 435 22 q 321 0 369 0 l 117 0 m 185 40 l 310 40 q 386 60 361 40 q 419 113 411 79 q 428 188 428 147 l 428 281 q 422 351 428 318 q 390 406 415 385 q 308 426 364 426 l 185 426 l 185 40 z "},"ħ":{"ha":493,"x_min":8,"x_max":443,"o":"m 8 767 l 8 806 l 243 806 l 243 767 l 8 767 m 79 0 l 79 875 l 143 875 l 143 633 q 193 681 158 664 q 279 699 228 699 q 389 672 354 699 q 433 605 424 646 q 443 517 443 564 l 443 0 l 376 0 l 376 501 q 375 549 376 524 q 363 595 374 574 q 329 631 353 617 q 261 646 306 646 q 195 633 219 646 q 160 601 171 619 q 146 571 149 583 l 146 0 l 79 0 z "},"̉":{"ha":0,"x_min":22,"x_max":182,"o":"m 75 760 l 75 783 q 91 813 75 803 q 124 832 107 822 q 140 861 140 842 l 140 865 q 130 892 140 881 q 96 904 119 904 q 58 871 65 904 l 22 878 q 46 921 26 906 q 100 936 65 936 q 162 920 142 936 q 182 865 182 904 l 182 863 q 165 820 182 832 q 131 801 149 808 q 114 776 114 793 l 114 760 l 75 760 z "},"̛":{"ha":0,"x_min":14,"x_max":147,"o":"m 18 643 l 14 678 l 29 678 q 99 740 99 678 l 99 763 l 147 763 l 147 746 q 114 668 147 694 q 18 643 81 642 z "},"˝":{"ha":201,"x_min":0,"x_max":201,"o":"m 0 757 l 43 883 l 107 883 l 32 757 l 0 757 m 90 757 l 138 883 l 201 883 l 125 757 l 90 757 z "},"̋":{"ha":0,"x_min":0,"x_max":201,"o":"m 0 757 l 43 883 l 107 883 l 32 757 l 0 757 m 90 757 l 138 883 l 201 883 l 125 757 l 90 757 z "},"-":{"ha":407,"x_min":64,"x_max":344,"o":"m 64 336 l 64 386 l 344 386 l 344 336 l 64 336 z "},"i":{"ha":224,"x_min":68,"x_max":157,"o":"m 79 0 l 79 688 l 144 688 l 144 0 l 79 0 m 113 775 q 81 788 94 775 q 68 818 68 800 q 81 849 68 836 q 113 861 94 861 q 144 849 131 861 q 157 818 157 836 q 144 788 157 800 q 113 775 131 775 z "},"і":{"ha":224,"x_min":68,"x_max":157,"o":"m 79 0 l 79 688 l 144 688 l 144 0 l 79 0 m 113 775 q 81 788 94 775 q 68 818 68 800 q 81 849 68 836 q 113 861 94 861 q 144 849 131 861 q 157 818 157 836 q 144 788 157 800 q 113 775 131 775 z "},"я":{"ha":529,"x_min":57,"x_max":465,"o":"m 57 0 l 144 243 q 181 306 160 282 q 229 333 201 331 q 124 376 161 338 q 88 493 88 415 l 88 540 q 131 653 88 619 q 243 688 175 688 l 465 688 l 465 0 l 396 0 l 396 326 l 296 318 q 241 275 263 310 q 201 189 219 240 l 135 0 l 57 0 m 285 361 l 396 361 l 396 644 l 250 644 q 184 617 213 644 q 156 539 156 590 l 156 493 q 190 392 156 422 q 285 361 224 361 z "},"í":{"ha":224,"x_min":64,"x_max":215,"o":"m 79 0 l 79 688 l 144 688 l 144 0 l 79 0 m 64 757 l 142 883 l 215 883 l 106 757 l 64 757 z "},"ǐ":{"ha":224,"x_min":-35,"x_max":258,"o":"m 79 0 l 79 688 l 144 688 l 144 0 l 79 0 m 88 760 l -35 882 l 14 882 l 113 794 l 213 882 l 258 882 l 136 760 l 88 760 z "},"î":{"ha":224,"x_min":-35,"x_max":258,"o":"m 79 0 l 79 688 l 144 688 l 144 0 l 79 0 m -35 760 l 88 882 l 136 882 l 258 760 l 211 760 l 111 846 l 14 760 l -35 760 z "},"ï":{"ha":224,"x_min":10,"x_max":215,"o":"m 79 0 l 79 688 l 144 688 l 144 0 l 79 0 m 50 775 q 22 786 33 775 q 10 814 10 797 q 22 841 10 831 q 50 851 33 851 q 78 841 67 851 q 89 814 89 831 q 78 786 89 797 q 50 775 67 775 m 176 775 q 148 786 160 775 q 136 814 136 797 q 148 841 136 831 q 176 851 160 851 q 204 841 193 851 q 215 814 215 831 q 204 786 215 797 q 176 775 193 775 z "},"ị":{"ha":224,"x_min":68,"x_max":164,"o":"m 79 0 l 79 688 l 144 688 l 144 0 l 79 0 m 113 775 q 81 788 94 775 q 68 818 68 800 q 81 849 68 836 q 113 861 94 861 q 144 849 131 861 q 157 818 157 836 q 144 788 157 800 q 113 775 131 775 m 124 -142 q 94 -130 106 -142 q 82 -103 82 -118 q 94 -74 82 -86 q 124 -62 106 -62 q 151 -74 139 -62 q 164 -103 164 -86 q 151 -130 164 -118 q 124 -142 139 -142 z "},"ı":{"ha":224,"x_min":79,"x_max":144,"o":"m 79 0 l 79 688 l 144 688 l 144 0 l 79 0 z "},"е":{"ha":475,"x_min":61,"x_max":421,"o":"m 249 -12 q 138 3 179 -12 q 79 61 97 19 q 61 181 61 103 l 61 532 q 102 663 61 628 q 242 699 143 699 q 380 663 339 699 q 421 532 421 628 l 421 357 l 128 357 l 128 161 q 151 60 128 89 q 246 31 174 31 q 333 58 311 31 q 354 161 354 86 l 354 244 l 421 244 l 421 182 q 403 63 421 106 q 347 4 385 21 q 249 -12 310 -12 m 128 394 l 354 394 l 354 536 q 333 629 354 600 q 242 658 311 658 q 151 629 174 658 q 128 536 128 600 l 128 394 z "},"ѐ":{"ha":475,"x_min":61,"x_max":421,"o":"m 249 -12 q 138 3 179 -12 q 79 61 97 19 q 61 181 61 103 l 61 532 q 102 663 61 628 q 242 699 143 699 q 380 663 339 699 q 421 532 421 628 l 421 357 l 128 357 l 128 161 q 151 60 128 89 q 246 31 174 31 q 333 58 311 31 q 354 161 354 86 l 354 244 l 421 244 l 421 182 q 403 63 421 106 q 347 4 385 21 q 249 -12 310 -12 m 128 394 l 354 394 l 354 536 q 333 629 354 600 q 242 658 311 658 q 151 629 174 658 q 128 536 128 600 l 128 394 m 246 757 l 136 883 l 210 883 l 288 757 l 246 757 z "},"ì":{"ha":224,"x_min":10,"x_max":161,"o":"m 79 0 l 79 688 l 144 688 l 144 0 l 79 0 m 119 757 l 10 883 l 83 883 l 161 757 l 119 757 z "},"ỉ":{"ha":224,"x_min":39,"x_max":200,"o":"m 79 0 l 79 688 l 144 688 l 144 0 l 79 0 m 92 760 l 92 783 q 108 813 92 803 q 140 832 124 822 q 157 861 157 842 l 157 865 q 147 892 157 881 q 113 904 136 904 q 75 871 82 904 l 39 878 q 63 921 43 906 q 117 936 82 936 q 178 920 158 936 q 199 865 199 904 l 199 863 q 182 820 199 832 q 148 801 165 808 q 131 776 131 793 l 131 760 l 92 760 z "},"и":{"ha":497,"x_min":63,"x_max":435,"o":"m 63 0 l 63 686 l 124 686 l 124 124 l 372 686 l 435 686 l 435 0 l 375 0 l 375 576 q 249 288 311 431 q 121 0 186 144 l 63 0 z "},"ѝ":{"ha":497,"x_min":63,"x_max":435,"o":"m 63 0 l 63 686 l 124 686 l 124 124 l 372 686 l 435 686 l 435 0 l 375 0 l 375 576 q 249 288 311 431 q 121 0 186 144 l 63 0 m 256 757 l 146 883 l 219 883 l 297 757 l 256 757 z "},"й":{"ha":497,"x_min":63,"x_max":435,"o":"m 63 0 l 63 686 l 124 686 l 124 124 l 372 686 l 435 686 l 435 0 l 375 0 l 375 576 q 249 288 311 431 q 121 0 186 144 l 63 0 m 247 758 q 169 778 197 758 q 128 826 140 799 q 115 878 117 854 l 158 878 q 188 816 164 836 q 247 796 213 796 q 309 815 285 796 q 338 878 333 835 l 381 878 q 365 824 378 851 q 323 777 351 796 q 247 758 294 758 z "},"ī":{"ha":224,"x_min":-14,"x_max":238,"o":"m 79 0 l 79 688 l 144 688 l 144 0 l 79 0 m -14 788 l -14 826 l 236 826 l 236 788 l -14 788 z "},"∞":{"ha":992,"x_min":63,"x_max":929,"o":"m 229 140 q 106 188 150 140 q 63 335 63 236 q 102 478 63 424 q 231 532 142 532 q 316 516 279 532 q 395 463 353 500 q 496 368 438 426 q 598 465 556 429 q 678 516 640 500 q 763 532 715 532 q 890 478 850 532 q 929 335 929 424 q 890 194 929 247 q 763 140 850 140 q 676 157 715 140 q 597 210 638 174 q 497 306 556 247 q 395 208 438 244 q 315 156 353 172 q 229 140 276 140 m 231 188 q 338 225 289 188 q 458 338 388 263 q 388 403 424 369 q 315 459 353 436 q 231 482 276 482 q 139 440 168 482 q 110 333 110 397 q 139 231 110 274 q 231 188 168 188 m 761 189 q 851 229 819 189 q 882 338 882 269 q 852 442 882 399 q 761 485 822 485 q 711 478 732 485 q 667 456 690 471 q 613 411 644 440 q 533 335 582 382 q 624 250 588 282 q 692 203 661 218 q 761 189 724 189 z "},"∫":{"ha":535,"x_min":-122,"x_max":499,"o":"m -24 -404 q -72 -401 -47 -403 q -122 -396 -97 -399 l -114 -350 l -24 -356 q 42 -324 21 -354 q 68 -261 64 -293 l 244 746 q 272 821 253 792 q 324 863 292 850 q 399 876 356 876 q 451 873 425 875 q 499 868 476 871 l 490 822 l 400 828 q 334 797 354 828 q 308 733 314 767 l 132 -274 q 103 -349 124 -319 q 52 -391 83 -378 q -24 -404 21 -404 z "},"ё":{"ha":475,"x_min":61,"x_max":421,"o":"m 249 -12 q 138 3 179 -12 q 79 61 97 19 q 61 181 61 103 l 61 532 q 102 663 61 628 q 242 699 143 699 q 380 663 339 699 q 421 532 421 628 l 421 357 l 128 357 l 128 161 q 151 60 128 89 q 246 31 174 31 q 333 58 311 31 q 354 161 354 86 l 354 244 l 421 244 l 421 182 q 403 63 421 106 q 347 4 385 21 q 249 -12 310 -12 m 128 394 l 354 394 l 354 536 q 333 629 354 600 q 242 658 311 658 q 151 629 174 658 q 128 536 128 600 l 128 394 m 175 775 q 147 786 158 775 q 135 814 135 797 q 147 841 135 831 q 175 851 158 851 q 203 841 192 851 q 214 814 214 831 q 203 786 214 797 q 175 775 192 775 m 301 775 q 273 786 285 775 q 261 814 261 797 q 273 841 261 831 q 301 851 285 851 q 329 841 318 851 q 340 814 340 831 q 329 786 340 797 q 301 775 318 775 z "},"į":{"ha":224,"x_min":22,"x_max":172,"o":"m 79 0 l 79 688 l 144 688 l 144 0 l 79 0 m 113 775 q 81 788 94 775 q 68 818 68 800 q 81 849 68 836 q 113 861 94 861 q 144 849 131 861 q 157 818 157 836 q 144 788 157 800 q 113 775 131 775 m 113 -185 q 49 -162 76 -185 q 22 -106 22 -140 q 49 -39 22 -67 q 107 0 76 -11 l 146 0 q 90 -44 110 -18 q 71 -97 71 -71 q 89 -139 71 -125 q 125 -153 107 -153 q 147 -149 138 -153 q 163 -143 157 -146 l 174 -169 q 150 -179 165 -174 q 113 -185 135 -185 z "},"ĩ":{"ha":224,"x_min":-22,"x_max":247,"o":"m 79 0 l 79 688 l 144 688 l 144 0 l 79 0 m 171 771 q 140 776 153 771 q 108 794 128 782 q 83 812 97 803 q 51 821 68 821 q 24 809 35 821 q 8 772 13 797 l -22 772 q 0 833 -19 810 q 53 857 19 857 q 87 849 71 857 q 118 831 103 842 q 144 815 132 822 q 171 808 157 808 q 199 819 188 808 q 215 856 211 831 l 247 856 q 235 810 246 829 q 208 781 225 790 q 171 771 192 771 z "},"ю":{"ha":799,"x_min":63,"x_max":738,"o":"m 557 -11 q 439 14 478 -11 q 388 83 400 39 q 375 183 375 128 l 375 517 q 388 607 375 565 q 439 674 400 649 q 557 699 478 699 q 674 674 635 699 q 725 607 713 649 q 738 517 738 565 l 738 185 q 725 83 738 128 q 674 14 713 39 q 557 -11 635 -11 m 63 0 l 63 688 l 129 688 l 129 388 l 392 388 l 392 336 l 129 336 l 129 0 l 63 0 m 557 29 q 634 50 610 29 q 665 103 658 71 q 671 172 671 136 l 671 518 q 665 585 671 553 q 634 638 658 617 q 557 658 610 658 q 478 638 503 658 q 448 585 454 617 q 442 518 442 553 l 442 172 q 448 103 442 136 q 478 50 454 71 q 557 29 503 29 z "},"j":{"ha":222,"x_min":-71,"x_max":157,"o":"m -37 -154 q -56 -152 -43 -153 q -71 -150 -68 -151 l -71 -111 q -56 -113 -67 -112 q -35 -114 -44 -114 q 49 -94 18 -112 q 79 -19 79 -76 l 79 688 l 144 688 l 144 -8 q 119 -105 144 -74 q 53 -145 94 -136 q -37 -154 13 -154 m 113 775 q 81 788 94 775 q 68 818 68 800 q 81 849 68 836 q 113 861 94 861 q 144 849 131 861 q 157 818 157 836 q 144 788 157 800 q 113 775 131 775 z "},"ȷ":{"ha":222,"x_min":-71,"x_max":144,"o":"m -37 -154 q -56 -152 -43 -153 q -71 -150 -68 -151 l -71 -111 q -56 -113 -67 -112 q -35 -114 -44 -114 q 49 -94 18 -112 q 79 -19 79 -76 l 79 688 l 144 688 l 144 -8 q 119 -105 144 -74 q 53 -145 94 -136 q -37 -154 13 -154 z "},"ј":{"ha":222,"x_min":-71,"x_max":157,"o":"m -37 -154 q -56 -152 -43 -153 q -71 -150 -68 -151 l -71 -111 q -56 -113 -67 -112 q -35 -114 -44 -114 q 49 -94 18 -112 q 79 -19 79 -76 l 79 688 l 144 688 l 144 -8 q 119 -105 144 -74 q 53 -145 94 -136 q -37 -154 13 -154 m 113 775 q 81 788 94 775 q 68 818 68 800 q 81 849 68 836 q 113 861 94 861 q 144 849 131 861 q 157 818 157 836 q 144 788 157 800 q 113 775 131 775 z "},"k":{"ha":450,"x_min":79,"x_max":428,"o":"m 357 0 l 172 400 l 358 688 l 425 688 l 239 400 l 428 0 l 357 0 m 79 0 l 79 882 l 144 882 l 144 0 l 79 0 z "},"к":{"ha":469,"x_min":63,"x_max":429,"o":"m 63 0 l 63 688 l 129 688 l 129 369 q 222 522 168 456 q 331 626 275 589 q 429 667 388 664 l 429 618 q 362 584 393 607 q 303 531 331 561 q 267 485 283 510 q 233 435 250 461 l 426 0 l 350 0 l 179 364 q 150 310 165 339 q 129 267 135 281 l 129 0 l 63 0 z "},"ķ":{"ha":450,"x_min":79,"x_max":428,"o":"m 357 0 l 172 400 l 358 688 l 425 688 l 239 400 l 428 0 l 357 0 m 79 0 l 79 882 l 144 882 l 144 0 l 79 0 m 192 -215 q 217 -169 206 -192 q 228 -131 228 -147 q 222 -117 228 -122 q 209 -104 215 -111 q 203 -85 203 -97 q 213 -62 203 -72 q 239 -53 224 -53 q 267 -65 257 -53 q 278 -92 278 -78 q 269 -129 278 -107 q 249 -174 261 -151 q 222 -215 236 -197 l 192 -215 z "},"ќ":{"ha":469,"x_min":63,"x_max":429,"o":"m 63 0 l 63 688 l 129 688 l 129 369 q 222 522 168 456 q 331 626 275 589 q 429 667 388 664 l 429 618 q 362 584 393 607 q 303 531 331 561 q 267 485 283 510 q 233 435 250 461 l 426 0 l 350 0 l 179 364 q 150 310 165 339 q 129 267 135 281 l 129 0 l 63 0 m 188 757 l 265 883 l 339 883 l 229 757 l 188 757 z "},"l":{"ha":224,"x_min":79,"x_max":144,"o":"m 79 0 l 79 882 l 144 882 l 144 0 l 79 0 z "},"ĺ":{"ha":224,"x_min":50,"x_max":235,"o":"m 79 0 l 79 882 l 144 882 l 144 0 l 79 0 m 50 933 l 161 1044 l 235 1044 l 96 933 l 50 933 z "},"ľ":{"ha":251,"x_min":79,"x_max":268,"o":"m 79 0 l 79 882 l 144 882 l 144 0 l 79 0 m 197 722 l 221 893 l 268 893 l 226 722 l 197 722 z "},"ļ":{"ha":224,"x_min":64,"x_max":150,"o":"m 79 0 l 79 882 l 144 882 l 144 0 l 79 0 m 64 -215 q 89 -169 78 -192 q 100 -131 100 -147 q 94 -117 100 -122 q 81 -104 88 -111 q 75 -85 75 -97 q 85 -62 75 -72 q 111 -53 96 -53 q 140 -65 129 -53 q 150 -92 150 -78 q 142 -129 150 -107 q 121 -174 133 -151 q 94 -215 108 -197 l 64 -215 z "},"←":{"ha":1117,"x_min":64,"x_max":1050,"o":"m 375 101 l 64 392 l 375 685 l 408 651 l 174 421 l 1050 419 l 1050 365 l 174 367 l 408 135 l 375 101 z "},"↔":{"ha":1342,"x_min":63,"x_max":1276,"o":"m 378 75 l 63 367 l 378 658 l 411 625 l 178 393 l 1161 393 l 928 625 l 963 658 l 1276 367 l 963 75 l 928 108 l 1161 339 l 179 339 l 411 108 l 378 75 z "},"<":{"ha":479,"x_min":75,"x_max":404,"o":"m 404 206 l 75 428 l 75 479 l 404 703 l 404 633 l 136 453 l 404 275 l 404 206 z "},"≤":{"ha":458,"x_min":65,"x_max":396,"o":"m 394 206 l 65 429 l 65 481 l 394 703 l 394 635 l 126 454 l 394 276 l 394 206 m 396 -3 l 75 -3 l 75 47 l 396 47 l 396 -3 z "},"љ":{"ha":835,"x_min":25,"x_max":774,"o":"m 25 0 l 25 40 q 71 65 53 40 q 93 144 89 90 l 138 686 l 465 686 l 465 471 l 606 471 q 709 450 674 471 q 759 390 744 429 q 774 294 774 350 l 774 228 q 766 130 774 172 q 740 58 758 88 q 689 15 722 29 q 601 0 656 0 l 396 0 l 396 636 l 206 636 l 160 124 q 153 87 157 108 q 140 46 150 65 q 110 13 129 26 q 60 0 90 0 l 25 0 m 465 40 l 589 40 q 665 60 640 40 q 699 113 690 79 q 707 188 707 147 l 707 281 q 700 351 707 318 q 668 406 693 385 q 588 426 643 426 l 465 426 l 465 40 z "},"¬":{"ha":774,"x_min":65,"x_max":711,"o":"m 661 261 l 661 510 l 65 510 l 65 561 l 711 561 l 711 261 l 661 261 z "},"ſ":{"ha":460,"x_min":13,"x_max":438,"o":"m 115 -203 q 60 -201 89 -203 q 13 -197 31 -200 l 13 -154 l 47 -158 q 78 -159 63 -160 q 111 -157 94 -158 q 160 -126 146 -156 q 174 -68 174 -97 l 174 565 l 128 565 l 128 611 l 174 611 l 174 750 q 189 826 174 797 q 234 869 204 856 q 304 882 264 882 q 374 877 342 882 q 438 865 407 872 l 428 824 q 371 833 399 829 q 307 838 343 838 q 254 806 268 838 q 240 740 240 774 l 240 -53 q 226 -135 240 -101 q 185 -185 213 -168 q 115 -203 157 -201 z "},"◊":{"ha":651,"x_min":64,"x_max":589,"o":"m 297 -49 l 64 406 l 297 858 l 356 858 l 589 406 l 356 -49 l 297 -49 m 328 19 l 519 407 l 328 788 l 133 407 l 328 19 z "},"ł":{"ha":383,"x_min":60,"x_max":324,"o":"m 158 0 l 158 247 l 60 204 l 60 244 l 158 289 l 158 882 l 222 882 l 222 318 l 324 364 l 324 324 l 222 278 l 222 0 l 158 0 z "},"m":{"ha":789,"x_min":79,"x_max":722,"o":"m 79 0 l 79 688 l 135 688 l 143 613 q 194 674 158 651 q 283 697 231 697 q 396 664 363 697 q 429 567 429 631 l 415 565 q 469 661 429 625 q 574 697 510 697 q 690 658 658 697 q 722 538 722 618 l 722 0 l 656 0 l 656 521 q 633 620 656 593 q 556 647 611 647 q 471 616 506 647 q 433 539 436 585 l 433 0 l 367 0 l 367 532 q 345 621 367 594 q 265 647 324 647 q 185 622 213 647 q 146 561 158 596 l 146 0 l 79 0 z "},"¯":{"ha":278,"x_min":14,"x_max":264,"o":"m 14 788 l 14 826 l 264 826 l 264 788 l 14 788 z "},"̄":{"ha":0,"x_min":14,"x_max":264,"o":"m 14 788 l 14 826 l 264 826 l 264 788 l 14 788 z "},"µ":{"ha":488,"x_min":64,"x_max":425,"o":"m 64 -179 l 64 688 l 131 688 l 131 126 q 172 62 142 85 q 250 39 201 39 q 306 47 282 39 q 344 82 331 54 q 358 167 358 110 l 358 688 l 425 688 l 425 172 q 413 69 425 110 q 367 9 400 28 q 268 -10 333 -10 q 186 9 226 -10 q 128 72 146 28 l 119 -179 l 64 -179 z "},"−":{"ha":606,"x_min":75,"x_max":507,"o":"m 75 324 l 75 379 l 507 379 l 507 324 l 75 324 z "},"×":{"ha":492,"x_min":64,"x_max":428,"o":"m 390 182 l 246 325 l 111 192 l 71 231 l 206 365 l 64 507 l 103 547 l 246 404 l 381 540 l 421 500 l 286 365 l 428 221 l 390 182 z "},"n":{"ha":508,"x_min":79,"x_max":443,"o":"m 79 0 l 79 688 l 133 688 l 143 615 q 197 680 158 661 q 279 699 236 699 q 389 672 354 699 q 433 605 424 646 q 443 517 443 564 l 443 0 l 376 0 l 376 504 q 375 558 376 532 q 363 604 374 583 q 329 637 353 625 q 261 649 306 649 q 197 634 221 649 q 162 599 172 619 q 146 563 151 579 l 146 0 l 79 0 z "},"ń":{"ha":508,"x_min":79,"x_max":443,"o":"m 79 0 l 79 688 l 133 688 l 143 615 q 197 680 158 661 q 279 699 236 699 q 389 672 354 699 q 433 605 424 646 q 443 517 443 564 l 443 0 l 376 0 l 376 504 q 375 558 376 532 q 363 604 374 583 q 329 637 353 625 q 261 649 306 649 q 197 634 221 649 q 162 599 172 619 q 146 563 151 579 l 146 0 l 79 0 m 207 757 l 285 883 l 358 883 l 249 757 l 207 757 z "},"ň":{"ha":508,"x_min":79,"x_max":443,"o":"m 79 0 l 79 688 l 133 688 l 143 615 q 197 680 158 661 q 279 699 236 699 q 389 672 354 699 q 433 605 424 646 q 443 517 443 564 l 443 0 l 376 0 l 376 504 q 375 558 376 532 q 363 604 374 583 q 329 637 353 625 q 261 649 306 649 q 197 634 221 649 q 162 599 172 619 q 146 563 151 579 l 146 0 l 79 0 m 231 760 l 108 882 l 157 882 l 256 794 l 356 882 l 401 882 l 279 760 l 231 760 z "},"ņ":{"ha":508,"x_min":79,"x_max":443,"o":"m 79 0 l 79 688 l 133 688 l 143 615 q 197 680 158 661 q 279 699 236 699 q 389 672 354 699 q 433 605 424 646 q 443 517 443 564 l 443 0 l 376 0 l 376 504 q 375 558 376 532 q 363 604 374 583 q 329 637 353 625 q 261 649 306 649 q 197 634 221 649 q 162 599 172 619 q 146 563 151 579 l 146 0 l 79 0 m 210 -215 q 235 -169 224 -192 q 246 -131 246 -147 q 240 -117 246 -122 q 227 -104 233 -111 q 221 -85 221 -97 q 231 -62 221 -72 q 257 -53 242 -53 q 285 -65 275 -53 q 296 -92 296 -78 q 288 -129 296 -107 q 267 -174 279 -151 q 240 -215 254 -197 l 210 -215 z "},"њ":{"ha":810,"x_min":63,"x_max":747,"o":"m 63 0 l 63 688 l 129 688 l 129 388 l 372 388 l 372 688 l 438 688 l 438 471 l 579 471 q 683 450 646 471 q 733 390 719 429 q 747 294 747 350 l 747 228 q 740 130 747 172 q 715 58 733 88 q 662 15 696 29 q 575 0 628 0 l 372 0 l 372 336 l 129 336 l 129 0 l 63 0 m 438 40 l 563 40 q 640 60 615 40 q 672 113 664 79 q 681 188 681 147 l 681 281 q 674 351 681 318 q 642 406 668 385 q 561 426 617 426 l 438 426 l 438 40 z "},"↗":{"ha":826,"x_min":51,"x_max":768,"o":"m 90 110 l 51 150 l 671 768 l 343 768 l 343 814 l 768 828 l 756 401 l 708 401 l 710 732 l 90 110 z "},"↖":{"ha":839,"x_min":67,"x_max":785,"o":"m 746 103 l 128 722 l 129 394 l 81 394 l 67 821 l 494 807 l 494 760 l 165 761 l 785 140 l 746 103 z "},"≠":{"ha":558,"x_min":69,"x_max":494,"o":"m 69 -7 l 193 226 l 76 226 l 76 279 l 221 279 l 347 524 l 76 524 l 76 575 l 374 575 l 450 722 l 493 722 l 417 575 l 494 575 l 494 524 l 389 524 l 261 279 l 494 279 l 494 226 l 233 226 l 113 -7 l 69 -7 z "},"ñ":{"ha":508,"x_min":79,"x_max":443,"o":"m 79 0 l 79 688 l 133 688 l 143 615 q 197 680 158 661 q 279 699 236 699 q 389 672 354 699 q 433 605 424 646 q 443 517 443 564 l 443 0 l 376 0 l 376 504 q 375 558 376 532 q 363 604 374 583 q 329 637 353 625 q 261 649 306 649 q 197 634 221 649 q 162 599 172 619 q 146 563 151 579 l 146 0 l 79 0 m 314 771 q 283 776 296 771 q 251 794 271 782 q 226 812 240 803 q 194 821 211 821 q 167 809 178 821 q 151 772 156 797 l 121 772 q 143 833 124 810 q 196 857 163 857 q 230 849 214 857 q 261 831 246 842 q 288 815 275 822 q 314 808 300 808 q 342 819 331 808 q 358 856 354 831 l 390 856 q 378 810 389 829 q 351 781 368 790 q 314 771 335 771 z "},"#":{"ha":953,"x_min":63,"x_max":890,"o":"m 181 0 l 265 267 l 63 267 l 75 310 l 278 310 l 351 544 l 149 546 l 163 588 l 367 588 l 432 796 l 472 796 l 408 588 l 647 588 l 713 796 l 756 796 l 690 588 l 890 588 l 876 544 l 675 544 l 601 310 l 803 310 l 790 267 l 589 267 l 506 0 l 463 0 l 546 267 l 307 267 l 222 0 l 181 0 m 321 310 l 560 310 l 633 544 l 393 544 l 321 310 z "},"o":{"ha":483,"x_min":61,"x_max":424,"o":"m 243 -10 q 126 15 165 -10 q 74 85 86 40 q 61 185 61 129 l 61 514 q 74 606 61 564 q 125 674 86 649 q 243 699 164 699 q 360 674 322 699 q 411 606 399 649 q 424 514 424 564 l 424 185 q 410 85 424 129 q 358 15 397 40 q 243 -10 319 -10 m 243 33 q 321 54 297 33 q 351 108 344 75 q 357 176 357 142 l 357 514 q 351 581 357 549 q 321 635 344 614 q 243 656 297 656 q 165 635 189 656 q 134 581 140 614 q 128 514 128 549 l 128 176 q 134 108 128 142 q 165 54 140 75 q 243 33 189 33 z "},"о":{"ha":483,"x_min":61,"x_max":424,"o":"m 243 -10 q 126 15 165 -10 q 74 85 86 40 q 61 185 61 129 l 61 514 q 74 606 61 564 q 125 674 86 649 q 243 699 164 699 q 360 674 322 699 q 411 606 399 649 q 424 514 424 564 l 424 185 q 410 85 424 129 q 358 15 397 40 q 243 -10 319 -10 m 243 33 q 321 54 297 33 q 351 108 344 75 q 357 176 357 142 l 357 514 q 351 581 357 549 q 321 635 344 614 q 243 656 297 656 q 165 635 189 656 q 134 581 140 614 q 128 514 128 549 l 128 176 q 134 108 128 142 q 165 54 140 75 q 243 33 189 33 z "},"ó":{"ha":483,"x_min":61,"x_max":424,"o":"m 243 -10 q 126 15 165 -10 q 74 85 86 40 q 61 185 61 129 l 61 514 q 74 606 61 564 q 125 674 86 649 q 243 699 164 699 q 360 674 322 699 q 411 606 399 649 q 424 514 424 564 l 424 185 q 410 85 424 129 q 358 15 397 40 q 243 -10 319 -10 m 243 33 q 321 54 297 33 q 351 108 344 75 q 357 176 357 142 l 357 514 q 351 581 357 549 q 321 635 344 614 q 243 656 297 656 q 165 635 189 656 q 134 581 140 614 q 128 514 128 549 l 128 176 q 134 108 128 142 q 165 54 140 75 q 243 33 189 33 m 194 757 l 272 883 l 346 883 l 236 757 l 194 757 z "},"ǒ":{"ha":483,"x_min":61,"x_max":424,"o":"m 243 -10 q 126 15 165 -10 q 74 85 86 40 q 61 185 61 129 l 61 514 q 74 606 61 564 q 125 674 86 649 q 243 699 164 699 q 360 674 322 699 q 411 606 399 649 q 424 514 424 564 l 424 185 q 410 85 424 129 q 358 15 397 40 q 243 -10 319 -10 m 243 33 q 321 54 297 33 q 351 108 344 75 q 357 176 357 142 l 357 514 q 351 581 357 549 q 321 635 344 614 q 243 656 297 656 q 165 635 189 656 q 134 581 140 614 q 128 514 128 549 l 128 176 q 134 108 128 142 q 165 54 140 75 q 243 33 189 33 m 217 760 l 94 882 l 143 882 l 242 794 l 342 882 l 388 882 l 265 760 l 217 760 z "},"ô":{"ha":483,"x_min":61,"x_max":424,"o":"m 243 -10 q 126 15 165 -10 q 74 85 86 40 q 61 185 61 129 l 61 514 q 74 606 61 564 q 125 674 86 649 q 243 699 164 699 q 360 674 322 699 q 411 606 399 649 q 424 514 424 564 l 424 185 q 410 85 424 129 q 358 15 397 40 q 243 -10 319 -10 m 243 33 q 321 54 297 33 q 351 108 344 75 q 357 176 357 142 l 357 514 q 351 581 357 549 q 321 635 344 614 q 243 656 297 656 q 165 635 189 656 q 134 581 140 614 q 128 514 128 549 l 128 176 q 134 108 128 142 q 165 54 140 75 q 243 33 189 33 m 94 760 l 217 882 l 265 882 l 388 760 l 340 760 l 240 846 l 143 760 l 94 760 z "},"ố":{"ha":483,"x_min":61,"x_max":536,"o":"m 243 -10 q 126 15 165 -10 q 74 85 86 40 q 61 185 61 129 l 61 514 q 74 606 61 564 q 125 674 86 649 q 243 699 164 699 q 360 674 322 699 q 411 606 399 649 q 424 514 424 564 l 424 185 q 410 85 424 129 q 358 15 397 40 q 243 -10 319 -10 m 243 33 q 321 54 297 33 q 351 108 344 75 q 357 176 357 142 l 357 514 q 351 581 357 549 q 321 635 344 614 q 243 656 297 656 q 165 635 189 656 q 134 581 140 614 q 128 514 128 549 l 128 176 q 134 108 128 142 q 165 54 140 75 q 243 33 189 33 m 94 760 l 217 882 l 265 882 l 388 760 l 340 760 l 240 846 l 143 760 l 94 760 m 385 831 l 463 957 l 536 957 l 426 831 l 385 831 z "},"ộ":{"ha":483,"x_min":61,"x_max":424,"o":"m 243 -10 q 126 15 165 -10 q 74 85 86 40 q 61 185 61 129 l 61 514 q 74 606 61 564 q 125 674 86 649 q 243 699 164 699 q 360 674 322 699 q 411 606 399 649 q 424 514 424 564 l 424 185 q 410 85 424 129 q 358 15 397 40 q 243 -10 319 -10 m 243 33 q 321 54 297 33 q 351 108 344 75 q 357 176 357 142 l 357 514 q 351 581 357 549 q 321 635 344 614 q 243 656 297 656 q 165 635 189 656 q 134 581 140 614 q 128 514 128 549 l 128 176 q 134 108 128 142 q 165 54 140 75 q 243 33 189 33 m 242 -142 q 212 -130 224 -142 q 200 -103 200 -118 q 212 -74 200 -86 q 242 -62 224 -62 q 269 -74 257 -62 q 282 -103 282 -86 q 269 -130 282 -118 q 242 -142 257 -142 m 94 760 l 217 882 l 265 882 l 388 760 l 340 760 l 240 846 l 143 760 l 94 760 z "},"ồ":{"ha":483,"x_min":61,"x_max":482,"o":"m 243 -10 q 126 15 165 -10 q 74 85 86 40 q 61 185 61 129 l 61 514 q 74 606 61 564 q 125 674 86 649 q 243 699 164 699 q 360 674 322 699 q 411 606 399 649 q 424 514 424 564 l 424 185 q 410 85 424 129 q 358 15 397 40 q 243 -10 319 -10 m 243 33 q 321 54 297 33 q 351 108 344 75 q 357 176 357 142 l 357 514 q 351 581 357 549 q 321 635 344 614 q 243 656 297 656 q 165 635 189 656 q 134 581 140 614 q 128 514 128 549 l 128 176 q 134 108 128 142 q 165 54 140 75 q 243 33 189 33 m 94 760 l 217 882 l 265 882 l 388 760 l 340 760 l 240 846 l 143 760 l 94 760 m 440 831 l 331 957 l 404 957 l 482 831 l 440 831 z "},"ổ":{"ha":483,"x_min":61,"x_max":519,"o":"m 243 -10 q 126 15 165 -10 q 74 85 86 40 q 61 185 61 129 l 61 514 q 74 606 61 564 q 125 674 86 649 q 243 699 164 699 q 360 674 322 699 q 411 606 399 649 q 424 514 424 564 l 424 185 q 410 85 424 129 q 358 15 397 40 q 243 -10 319 -10 m 243 33 q 321 54 297 33 q 351 108 344 75 q 357 176 357 142 l 357 514 q 351 581 357 549 q 321 635 344 614 q 243 656 297 656 q 165 635 189 656 q 134 581 140 614 q 128 514 128 549 l 128 176 q 134 108 128 142 q 165 54 140 75 q 243 33 189 33 m 94 760 l 217 882 l 265 882 l 388 760 l 340 760 l 240 846 l 143 760 l 94 760 m 413 833 l 413 857 q 428 886 413 876 q 461 906 444 896 q 478 935 478 915 l 478 939 q 467 966 478 954 q 433 978 457 978 q 396 944 403 978 l 360 951 q 383 994 364 979 q 438 1010 403 1010 q 499 994 479 1010 q 519 939 519 978 l 519 936 q 503 894 519 906 q 469 874 486 882 q 451 850 451 867 l 451 833 l 413 833 z "},"ỗ":{"ha":483,"x_min":61,"x_max":424,"o":"m 243 -10 q 126 15 165 -10 q 74 85 86 40 q 61 185 61 129 l 61 514 q 74 606 61 564 q 125 674 86 649 q 243 699 164 699 q 360 674 322 699 q 411 606 399 649 q 424 514 424 564 l 424 185 q 410 85 424 129 q 358 15 397 40 q 243 -10 319 -10 m 243 33 q 321 54 297 33 q 351 108 344 75 q 357 176 357 142 l 357 514 q 351 581 357 549 q 321 635 344 614 q 243 656 297 656 q 165 635 189 656 q 134 581 140 614 q 128 514 128 549 l 128 176 q 134 108 128 142 q 165 54 140 75 q 243 33 189 33 m 94 760 l 217 882 l 265 882 l 388 760 l 340 760 l 240 846 l 143 760 l 94 760 m 299 913 q 268 918 281 913 q 236 936 256 924 q 210 953 225 944 q 179 963 196 963 q 151 951 163 963 q 136 914 140 939 l 106 914 q 128 975 108 951 q 181 999 147 999 q 215 991 199 999 q 246 972 231 983 q 272 957 260 964 q 299 950 285 950 q 327 961 315 950 q 343 997 339 972 l 375 997 q 363 951 374 971 q 336 922 353 932 q 299 913 319 913 z "},"ö":{"ha":483,"x_min":61,"x_max":424,"o":"m 243 -10 q 126 15 165 -10 q 74 85 86 40 q 61 185 61 129 l 61 514 q 74 606 61 564 q 125 674 86 649 q 243 699 164 699 q 360 674 322 699 q 411 606 399 649 q 424 514 424 564 l 424 185 q 410 85 424 129 q 358 15 397 40 q 243 -10 319 -10 m 243 33 q 321 54 297 33 q 351 108 344 75 q 357 176 357 142 l 357 514 q 351 581 357 549 q 321 635 344 614 q 243 656 297 656 q 165 635 189 656 q 134 581 140 614 q 128 514 128 549 l 128 176 q 134 108 128 142 q 165 54 140 75 q 243 33 189 33 m 179 775 q 151 786 163 775 q 139 814 139 797 q 151 841 139 831 q 179 851 163 851 q 207 841 196 851 q 218 814 218 831 q 207 786 218 797 q 179 775 196 775 m 306 775 q 277 786 289 775 q 265 814 265 797 q 277 841 265 831 q 306 851 289 851 q 333 841 322 851 q 344 814 344 831 q 333 786 344 797 q 306 775 322 775 z "},"ọ":{"ha":483,"x_min":61,"x_max":424,"o":"m 243 -10 q 126 15 165 -10 q 74 85 86 40 q 61 185 61 129 l 61 514 q 74 606 61 564 q 125 674 86 649 q 243 699 164 699 q 360 674 322 699 q 411 606 399 649 q 424 514 424 564 l 424 185 q 410 85 424 129 q 358 15 397 40 q 243 -10 319 -10 m 243 33 q 321 54 297 33 q 351 108 344 75 q 357 176 357 142 l 357 514 q 351 581 357 549 q 321 635 344 614 q 243 656 297 656 q 165 635 189 656 q 134 581 140 614 q 128 514 128 549 l 128 176 q 134 108 128 142 q 165 54 140 75 q 243 33 189 33 m 242 -142 q 212 -130 224 -142 q 200 -103 200 -118 q 212 -74 200 -86 q 242 -62 224 -62 q 269 -74 257 -62 q 282 -103 282 -86 q 269 -130 282 -118 q 242 -142 257 -142 z "}}}
